<?xml version="1.0" encoding="utf-8"?>
<!-- Generator: Adobe Illustrator 18.0.0, SVG Export Plug-In . SVG Version: 6.00 Build 0)  -->
<!DOCTYPE svg PUBLIC "-//W3C//DTD SVG 1.1//EN" "http://www.w3.org/Graphics/SVG/1.1/DTD/svg11.dtd">
<svg version="1.1" id="Capa_1" xmlns="http://www.w3.org/2000/svg" xmlns:xlink="http://www.w3.org/1999/xlink" x="0px" y="0px"
	 viewBox="0 0 252.164 317.833" enable-background="new 0 0 252.164 317.833" xml:space="preserve">
<g id="paper_1_">
	<g>
		
			<linearGradient id="SVGID_1_" gradientUnits="userSpaceOnUse" x1="561.1198" y1="436.1512" x2="606.9363" y2="458.3653" gradientTransform="matrix(0.7798 0.626 -0.626 0.7798 -26.0119 -572.0432)">
			<stop  offset="0" style="stop-color:#FFFFFF"/>
			<stop  offset="1" style="stop-color:#E4E4E4"/>
		</linearGradient>
		<path fill-rule="evenodd" clip-rule="evenodd" fill="url(#SVGID_1_)" d="M131.653,175.585l-12.652-37.787l53.339-17.899
			l12.632,37.791L131.653,175.585z"/>
		<g>
			<polygon opacity="0.5" fill="#65A7DD" points="130.019,160.59 134.97,148.414 144.476,151.833 150.18,143.884 159.316,144.874 
				167.712,143.884 171.971,129.314 179.019,150.365 131.9,166.208 			"/>
			<polygon fill="#4674B7" points="132.494,166.009 138.761,154.931 145.617,149.538 153.979,152.167 160.809,145.387 
				169.985,147.374 174.252,135.79 179.119,150.33 			"/>
		</g>
	</g>
</g>
<g>
	<polygon fill-rule="evenodd" clip-rule="evenodd" fill="#D8817A" points="243.988,115.543 208.236,104.506 197.223,140.337 
		232.976,151.372 	"/>
	<polygon fill-rule="evenodd" clip-rule="evenodd" fill="#D26359" points="200.886,128.422 197.223,140.337 207.193,143.415 	"/>
	<polygon fill-rule="evenodd" clip-rule="evenodd" fill="#E4A39E" points="243.988,115.543 208.236,104.506 206.915,108.802 
		242.667,119.838 	"/>
</g>
<polygon fill-rule="evenodd" clip-rule="evenodd" fill="#E4A39E" points="200.886,128.422 210.857,131.5 207.193,143.415 "/>
<g>
	
		<radialGradient id="SVGID_2_" cx="122.1763" cy="77.0838" r="65.155" gradientTransform="matrix(1.0347 -0.3246 0.2761 0.8839 41.2979 214.6378)" gradientUnits="userSpaceOnUse">
		<stop  offset="0" style="stop-color:#272425"/>
		<stop  offset="1" style="stop-color:#272425;stop-opacity:0"/>
	</radialGradient>
	<path fill="url(#SVGID_2_)" d="M259.925,220.86c9.554,30.571-14.462,65.32-53.635,77.61c-39.174,12.287-78.674-2.54-88.225-33.109
		c-9.549-30.572,14.466-65.323,53.64-77.611C210.88,175.461,250.38,190.288,259.925,220.86z"/>
	<g>
		<g>
			<g>
				<linearGradient id="SVGID_3_" gradientUnits="userSpaceOnUse" x1="131.2491" y1="242.5276" x2="213.7725" y2="242.5276">
					<stop  offset="0" style="stop-color:#FFFFFF"/>
					<stop  offset="1" style="stop-color:#E4E4E4"/>
				</linearGradient>
				<path fill-rule="evenodd" clip-rule="evenodd" fill="url(#SVGID_3_)" d="M131.249,202.881l64.804-12.556l17.719,91.853
					l-64.804,12.553L131.249,202.881z"/>
				<g>
					<path fill="#B4D8E7" d="M180.339,243.467c-0.141,1.148-0.516,2.227-1.109,3.185l7.198,6.825
						c2.386-3.03,3.789-6.809,3.821-10.817L180.339,243.467z"/>
					<path fill="#E2992F" d="M172.609,234.536c3.434,0.048,6.475,2.352,7.466,5.712l9.898-0.813c-0.02-0.11-0.027-0.218-0.05-0.331
						c-1.762-9.102-10.164-15.22-19.196-14.298L172.609,234.536z"/>
					<path fill="#65ADBC" d="M165.756,238.37c0.847-1.408,2.107-2.556,3.689-3.219l-1.884-9.732
						c-5.083,1.473-9.051,5.079-11.157,9.63L165.756,238.37z"/>
					<path fill="#648CB0" d="M177.026,249.005c-0.881,0.618-1.893,1.07-3.014,1.288c-4.297,0.834-8.461-1.985-9.294-6.291
						c-0.169-0.882-0.153-1.744-0.039-2.584l-9.351-3.325c-0.629,2.471-0.763,5.11-0.246,7.781
						c1.866,9.643,11.174,15.94,20.796,14.069c3.212-0.623,6.044-2.088,8.331-4.117L177.026,249.005z"/>
				</g>
				<g>
					
						<rect x="139.297" y="206.96" transform="matrix(0.9817 -0.1906 0.1906 0.9817 -37.0425 31.149)" fill="#E2992F" width="8.26" height="2.409"/>
					
						<rect x="140.339" y="212.35" transform="matrix(0.9816 -0.1907 0.1907 0.9816 -38.0804 31.4764)" fill="#65ADBC" width="8.261" height="2.408"/>
					
						<rect x="141.384" y="217.739" transform="matrix(0.9817 -0.1907 0.1907 0.9817 -39.08 31.7652)" fill="#B4D8E7" width="8.258" height="2.408"/>
					<polygon fill="#648CB0" points="150.838,224.726 142.73,226.303 142.273,223.937 150.381,222.361 					"/>
					<polygon fill="#CACACA" points="153.28,207.904 191.032,200.569 190.518,197.908 152.767,205.246 					"/>
					<polygon fill="#CACACA" points="154.818,215.854 192.569,208.52 192.056,205.86 154.305,213.195 					"/>
					
						<rect x="155.747" y="217.456" transform="matrix(-0.9816 0.1908 -0.1908 -0.9816 388.4792 400.2211)" fill="#CACACA" width="38.459" height="2.706"/>
					
						<rect x="154.978" y="213.478" transform="matrix(-0.9816 0.1907 -0.1907 -0.9816 386.1855 392.4977)" fill="#CACACA" width="38.456" height="2.707"/>
					<polygon fill="#CACACA" points="154.049,211.877 191.8,204.542 191.287,201.885 153.536,209.222 					"/>
				</g>
				<g>
					
						<rect x="152.427" y="267.024" transform="matrix(0.9815 -0.1916 0.1916 0.9815 -50.1079 34.4948)" fill="#CACACA" width="1.748" height="18.61"/>
					
						<rect x="179.176" y="255.348" transform="matrix(0.1903 0.9817 -0.9817 0.1903 422.1434 51.1693)" fill="#CACACA" width="1.75" height="52.308"/>
					<g>
						<polygon fill="#65ADBC" points="163.456,275.406 158.86,276.297 160.432,284.425 165.027,283.529 						"/>
						
							<rect x="158.422" y="271.751" transform="matrix(0.9816 -0.1909 0.1909 0.9816 -49.3149 35.725)" fill="#B4D8E7" width="4.686" height="4.137"/>
					</g>
					<g>
						<polygon fill="#65ADBC" points="171.35,270.221 166.752,271.114 169.004,282.757 173.602,281.865 						"/>
						
							<rect x="166.483" y="268.317" transform="matrix(0.9816 -0.1908 0.1908 0.9816 -48.3263 37.1688)" fill="#B4D8E7" width="4.683" height="2.372"/>
					</g>
					<g>
						<polygon fill="#65ADBC" points="181.03,274.286 176.431,275.182 177.577,281.094 182.174,280.198 						"/>
						<polygon fill="#B4D8E7" points="180.209,270.043 175.611,270.935 176.431,275.182 181.03,274.286 						"/>
					</g>
					<g>
						
							<rect x="185.778" y="275.563" transform="matrix(0.9816 -0.1908 0.1908 0.9816 -49.4522 40.9891)" fill="#65ADBC" width="4.683" height="3.449"/>
						
							<rect x="185.122" y="272.177" transform="matrix(0.9817 -0.1905 0.1905 0.9817 -48.7563 40.739)" fill="#B4D8E7" width="4.684" height="3.449"/>
					</g>
				</g>
			</g>
			<g>
				<polygon opacity="0.1" fill-rule="evenodd" clip-rule="evenodd" points="164.737,268.49 212.836,277.31 196.053,190.325 
					178.381,193.749 				"/>
				<linearGradient id="SVGID_4_" gradientUnits="userSpaceOnUse" x1="230.539" y1="227.2766" x2="94.9835" y2="218.3177">
					<stop  offset="0" style="stop-color:#FFFFFF"/>
					<stop  offset="1" style="stop-color:#E4E4E4"/>
				</linearGradient>
				<path fill-rule="evenodd" clip-rule="evenodd" fill="url(#SVGID_4_)" d="M187.841,174.551l64.323,11.794l-16.643,91.165
					l-64.324-11.795L187.841,174.551z"/>
				<g>
					<polygon fill-rule="evenodd" clip-rule="evenodd" fill="#648CB0" points="187.336,223.158 192.891,224.176 191.961,229.238 
						186.404,228.22 					"/>
					
						<rect x="193.444" y="222.6" transform="matrix(-0.9836 -0.1803 0.1803 -0.9836 348.5208 484.2459)" fill-rule="evenodd" clip-rule="evenodd" fill="#759BBD" width="5.649" height="7.367"/>
					<polygon fill-rule="evenodd" clip-rule="evenodd" fill="#84A9CA" points="201.5,218.249 207.057,219.264 204.807,231.594 
						199.252,230.576 					"/>
					<polygon fill-rule="evenodd" clip-rule="evenodd" fill="#96B9D7" points="207.613,221.135 213.169,222.153 211.231,232.771 
						205.676,231.753 					"/>
					
						<rect x="212.538" y="228.081" transform="matrix(-0.9836 -0.1803 0.1803 -0.9836 385.5884 496.61)" fill-rule="evenodd" clip-rule="evenodd" fill="#A7C8E3" width="5.647" height="5.403"/>
					<polygon fill-rule="evenodd" clip-rule="evenodd" fill="#84A9CA" points="219.698,226.75 225.253,227.768 223.916,235.086 
						218.361,234.068 					"/>
					<polygon fill-rule="evenodd" clip-rule="evenodd" fill="#96B9D7" points="226.722,224.626 232.279,225.645 230.339,236.263 
						224.784,235.246 					"/>
					<polygon fill-rule="evenodd" clip-rule="evenodd" fill="#A7C8E3" points="234.421,218.787 239.976,219.805 236.763,237.443 
						231.207,236.424 					"/>
				</g>
				
					<rect x="182.5" y="237.518" transform="matrix(-0.9836 -0.1804 0.1804 -0.9836 343.3179 507.8867)" fill-rule="evenodd" clip-rule="evenodd" fill="#CACACA" width="24.501" height="1.631"/>
				
					<rect x="181.985" y="240.327" transform="matrix(-0.9836 -0.1803 0.1803 -0.9836 341.8043 513.358)" fill-rule="evenodd" clip-rule="evenodd" fill="#CACACA" width="24.504" height="1.63"/>
				
					<rect x="181.473" y="243.134" transform="matrix(-0.9836 -0.1803 0.1803 -0.9836 340.2861 518.8333)" fill-rule="evenodd" clip-rule="evenodd" fill="#CACACA" width="24.504" height="1.631"/>
				
					<rect x="180.961" y="245.944" transform="matrix(-0.9836 -0.1803 0.1803 -0.9836 338.7728 524.3088)" fill-rule="evenodd" clip-rule="evenodd" fill="#CACACA" width="24.503" height="1.632"/>
				
					<rect x="180.449" y="248.752" transform="matrix(-0.9836 -0.1803 0.1803 -0.9836 337.2307 529.7934)" fill-rule="evenodd" clip-rule="evenodd" fill="#CACACA" width="24.502" height="1.629"/>
				
					<rect x="179.935" y="251.56" transform="matrix(-0.9836 -0.1803 0.1803 -0.9836 335.7081 535.2733)" fill-rule="evenodd" clip-rule="evenodd" fill="#CACACA" width="24.505" height="1.63"/>
				
					<rect x="179.422" y="254.368" transform="matrix(-0.9836 -0.1804 0.1804 -0.9836 334.1652 540.7611)" fill-rule="evenodd" clip-rule="evenodd" fill="#CACACA" width="24.505" height="1.632"/>
				
					<rect x="179.009" y="256.073" transform="matrix(-0.9836 -0.1803 0.1803 -0.9836 320.9123 542.9507)" fill-rule="evenodd" clip-rule="evenodd" fill="#CACACA" width="12.253" height="1.63"/>
				
					<rect x="210.913" y="242.728" transform="matrix(-0.9836 -0.1803 0.1803 -0.9836 398.7522 523.3381)" fill-rule="evenodd" clip-rule="evenodd" fill="#CACACA" width="24.504" height="1.631"/>
				
					<rect x="210.399" y="245.536" transform="matrix(-0.9836 -0.1803 0.1803 -0.9836 397.2272 528.816)" fill-rule="evenodd" clip-rule="evenodd" fill="#CACACA" width="24.505" height="1.632"/>
				
					<rect x="209.887" y="248.345" transform="matrix(-0.9836 -0.1804 0.1804 -0.9836 395.6979 534.2994)" fill-rule="evenodd" clip-rule="evenodd" fill="#CACACA" width="24.504" height="1.632"/>
				
					<rect x="209.376" y="251.152" transform="matrix(-0.9836 -0.1803 0.1803 -0.9836 394.1884 539.7708)" fill-rule="evenodd" clip-rule="evenodd" fill="#CACACA" width="24.504" height="1.634"/>
				
					<rect x="208.862" y="253.962" transform="matrix(-0.9836 -0.1804 0.1804 -0.9836 392.6485 545.2552)" fill-rule="evenodd" clip-rule="evenodd" fill="#CACACA" width="24.503" height="1.629"/>
				
					<rect x="208.35" y="256.77" transform="matrix(-0.9836 -0.1803 0.1803 -0.9836 391.1438 550.7246)" fill-rule="evenodd" clip-rule="evenodd" fill="#CACACA" width="24.503" height="1.631"/>
				
					<rect x="207.838" y="259.578" transform="matrix(-0.9836 -0.1803 0.1803 -0.9836 389.6306 556.1968)" fill-rule="evenodd" clip-rule="evenodd" fill="#CACACA" width="24.502" height="1.631"/>
				<polygon fill-rule="evenodd" clip-rule="evenodd" fill="#CACACA" points="207.672,260.19 224.635,263.301 224.345,264.906 
					207.379,261.795 				"/>
				<g>
					<g>
						<polygon fill="#EDBE31" points="191.641,206.667 190.529,204.39 211.34,194.185 221.776,204.531 243.195,194.945 
							244.226,197.258 221.226,207.554 210.839,197.252 						"/>
					</g>
					<g>
						<polygon fill="#EDBE31" points="243.604,201.662 241.614,201.297 242.413,196.896 238.023,196.093 238.384,194.098 
							244.769,195.265 						"/>
					</g>
				</g>
				
					<ellipse transform="matrix(0.9836 0.1801 -0.1801 0.9836 40.6412 -36.5195)" fill="#65ADBC" cx="221.428" cy="205.545" rx="2.783" ry="2.789"/>
				<circle fill="#65ADBC" cx="211.131" cy="195.725" r="2.784"/>
			</g>
		</g>
	</g>
	<g>
		
			<radialGradient id="SVGID_5_" cx="3.1032" cy="76.9164" r="19.549" gradientTransform="matrix(2.0105 -0.5423 0.2365 0.8807 206.23 133.0938)" gradientUnits="userSpaceOnUse">
			<stop  offset="0" style="stop-color:#272425"/>
			<stop  offset="1" style="stop-color:#272425;stop-opacity:0"/>
		</radialGradient>
		<path opacity="0.2" fill="url(#SVGID_5_)" d="M272.015,187.999c2.455,9.14-14.068,21.545-36.906,27.706
			c-22.838,6.161-43.342,3.744-45.797-5.397c-2.456-9.141,14.068-21.545,36.906-27.706
			C249.056,176.442,269.561,178.859,272.015,187.999z"/>
		<g id="glasses_2_">
			<g>
				<g>
					<g>
						<path fill="#58667C" d="M184.235,189.917c0.179-0.035,0.374-0.026,0.562,0.038l10.494,3.321
							c2.017,0.638,4.112,1.026,6.224,1.151c2.114,0.129,4.239-0.009,6.32-0.404l41.865-7.948l0.43,2.276l-41.864,7.948
							c-2.266,0.431-4.585,0.574-6.887,0.439c-2.3-0.137-4.583-0.561-6.785-1.259l-10.492-3.321c-0.61-0.192-0.946-0.842-0.753-1.45
							C183.48,190.287,183.83,189.993,184.235,189.917z"/>
						<path fill="#58667C" d="M249.33,177.558c-0.18,0.035-0.357,0.115-0.51,0.241l-8.552,6.936
							c-1.647,1.335-3.457,2.463-5.376,3.354c-1.918,0.895-3.947,1.546-6.027,1.94l-41.867,7.949l0.43,2.275l41.867-7.949
							c2.266-0.429,4.477-1.145,6.569-2.113c2.093-0.972,4.06-2.202,5.855-3.659l8.554-6.938c0.496-0.403,0.573-1.132,0.172-1.627
							C250.167,177.627,249.734,177.481,249.33,177.558z"/>
					</g>
				</g>
				<path fill="#2C394D" d="M221.42,191.924L221.42,191.924c0.311,1.646-0.772,3.241-2.417,3.552
					c-1.646,0.314-3.237-0.771-3.549-2.419l0,0l-2.268,0.429l0,0c0.55,2.908,3.346,4.817,6.247,4.266
					c2.9-0.549,4.806-3.354,4.256-6.26l0,0L221.42,191.924z"/>
				<g>
					<path fill="#E3EDF8" d="M223.016,187.934c-0.453-2.395,1.13-4.727,3.523-5.182l15.138-2.874
						c2.389-0.453,4.715,1.136,5.167,3.531l1.547,8.178c0.454,2.396-1.133,4.727-3.522,5.182l-15.139,2.873
						c-2.391,0.454-4.716-1.134-5.167-3.53L223.016,187.934z"/>
					<path fill="#D2E0F0" d="M229.73,199.642l8.329-1.581l-3.191-16.891l-8.329,1.582c-2.392,0.454-3.975,2.787-3.523,5.182
						l1.547,8.179C225.014,198.508,227.339,200.096,229.73,199.642z"/>
				</g>
				<g>
					<path fill="#E3EDF8" d="M188.749,194.438c-0.453-2.394,1.132-4.727,3.523-5.181l15.139-2.873
						c2.39-0.454,4.714,1.136,5.168,3.53l1.546,8.18c0.452,2.395-1.132,4.725-3.522,5.179l-15.138,2.875
						c-2.391,0.454-4.718-1.135-5.171-3.531L188.749,194.438z"/>
					<path fill="#D2E0F0" d="M195.465,206.148l8.327-1.581l-3.193-16.891l-8.327,1.581c-2.391,0.454-3.976,2.787-3.523,5.181
						l1.545,8.178C190.747,205.012,193.074,206.601,195.465,206.148z"/>
				</g>
				<path fill="#36465D" d="M229.023,202.075l17.392-3.302c3.019-0.573,5.021-3.517,4.449-6.541l-1.952-10.327
					c-0.572-3.023-3.51-5.03-6.527-4.457l-17.392,3.302c-3.019,0.573-5.02,3.517-4.45,6.54l1.953,10.326
					C223.067,200.643,226.005,202.648,229.023,202.075z M223.016,187.934c-0.453-2.395,1.13-4.727,3.523-5.182l15.138-2.874
					c2.389-0.453,4.715,1.136,5.167,3.531l1.547,8.178c0.454,2.396-1.133,4.727-3.522,5.182l-15.139,2.873
					c-2.391,0.454-4.716-1.134-5.167-3.53L223.016,187.934z"/>
				<path fill="#36465D" d="M194.756,208.58l17.392-3.302c3.019-0.573,5.02-3.516,4.449-6.539l-1.952-10.328
					c-0.572-3.023-3.51-5.029-6.528-4.457l-17.392,3.303c-3.019,0.573-5.021,3.517-4.449,6.54l1.952,10.326
					C188.8,207.146,191.736,209.153,194.756,208.58z M188.749,194.438c-0.453-2.394,1.132-4.727,3.523-5.181l15.139-2.873
					c2.39-0.454,4.714,1.136,5.168,3.53l1.546,8.18c0.452,2.395-1.132,4.725-3.522,5.179l-15.138,2.875
					c-2.391,0.454-4.718-1.135-5.171-3.531L188.749,194.438z"/>
			</g>
		</g>
	</g>
</g>
<g>
	<g>
		<path fill="#66A8DE" d="M94.455,284.609c-7.923,23.361-33.247,35.864-56.559,27.924c-23.312-7.942-35.787-33.316-27.864-56.68
			c7.923-23.361,33.246-35.864,56.557-27.924C89.902,235.87,102.378,261.247,94.455,284.609z"/>
		<linearGradient id="SVGID_6_" gradientUnits="userSpaceOnUse" x1="36.5047" y1="268.7869" x2="122.5678" y2="268.7869">
			<stop  offset="0" style="stop-color:#FFFFFF"/>
			<stop  offset="1" style="stop-color:#E4E4E4"/>
		</linearGradient>
		<path fill="url(#SVGID_6_)" d="M92.265,282.66c-7.646,22.544-32.08,34.609-54.574,26.946
			c-22.496-7.663-34.535-32.149-26.889-54.694c7.646-22.544,32.08-34.606,54.577-26.946C87.871,235.63,99.911,260.117,92.265,282.66
			z"/>
		<linearGradient id="SVGID_7_" gradientUnits="userSpaceOnUse" x1="-26.3425" y1="314.6796" x2="65.887" y2="260.33">
			<stop  offset="0" style="stop-color:#FFFFFF"/>
			<stop  offset="1" style="stop-color:#E4E4E4"/>
		</linearGradient>
		<path fill="url(#SVGID_7_)" d="M51.755,299.971c-22.497-7.663-34.534-32.149-26.888-54.693c2.126-6.272,5.554-11.727,9.875-16.176
			c-10.888,4.63-19.834,13.705-23.94,25.811c-7.646,22.544,4.393,47.031,26.889,54.694c16.237,5.531,33.484,0.779,44.7-10.771
			C73,302.83,62.17,303.517,51.755,299.971z"/>
		<g>
			<path fill="#384959" d="M66.104,245.947c-1.048,3.09-4.394,4.741-7.477,3.691c-3.083-1.05-4.731-4.401-3.684-7.493
				c1.048-3.088,4.394-4.74,7.476-3.689C65.502,239.505,67.151,242.857,66.104,245.947z"/>
			<path fill="#9DCDD6" d="M64.324,245.342c-0.714,2.105-2.994,3.229-5.093,2.512c-2.1-0.714-3.224-2.997-2.509-5.103
				c0.712-2.104,2.993-3.23,5.094-2.514C63.915,240.953,65.038,243.237,64.324,245.342z"/>
		</g>
		<g>
			<g>
				<linearGradient id="SVGID_8_" gradientUnits="userSpaceOnUse" x1="54.0783" y1="185.7955" x2="127.6889" y2="185.7955">
					<stop  offset="0" style="stop-color:#FFFFFF"/>
					<stop  offset="1" style="stop-color:#CACACA"/>
				</linearGradient>
				<path fill="url(#SVGID_8_)" d="M125.897,197.721c-6.248,18.418-26.986,28.012-46.324,21.423
					c-19.338-6.587-29.95-26.856-23.704-45.275c6.247-18.418,26.987-28.01,46.325-21.423
					C121.532,159.031,132.145,179.303,125.897,197.721z"/>
				<linearGradient id="SVGID_9_" gradientUnits="userSpaceOnUse" x1="89.0649" y1="225.2343" x2="91.8493" y2="164.7776">
					<stop  offset="0" style="stop-color:#FFFFFF"/>
					<stop  offset="1" style="stop-color:#E4E4E4"/>
				</linearGradient>
				<path fill="url(#SVGID_9_)" d="M126.529,178.097c-9.055,11.993-25.641,17.278-41.306,11.942
					c-12.472-4.248-21.302-14.19-24.336-25.652c-2.119,2.81-3.832,5.986-5.017,9.482c-6.247,18.419,4.365,38.689,23.704,45.275
					c19.337,6.588,40.076-3.005,46.324-21.423C128.116,191.18,128.198,184.407,126.529,178.097z"/>
			</g>
			<g>
				<path fill="#606978" d="M98.632,148.94c0,0,3.968,10.518,5.573,15.184c4.856,9.712-18.982,25.914-31.653,12.43
					c-3.49-3.299-6.892-16.885-6.892-16.885L98.632,148.94z"/>
				<path fill="#4B5460" d="M66.026,161.041l-0.365-1.372c0,0,3.402,13.586,6.892,16.885c12.173,12.956,35.22-2.719,32.015-11.329
					C100.043,170.889,80.353,176.037,66.026,161.041z"/>
				<linearGradient id="SVGID_10_" gradientUnits="userSpaceOnUse" x1="71.6739" y1="137.6207" x2="79.0956" y2="149.3717">
					<stop  offset="0" style="stop-color:#FFFFFF"/>
					<stop  offset="1" style="stop-color:#CACACA"/>
				</linearGradient>
				<path fill="url(#SVGID_10_)" d="M99.536,155.64c-1.065,3.848-5.627,7.07-9.761,8.877c-4.649,2.033-11.117,4.832-15.728,3.261
					c-8.71-2.966-11.331-9.947-8.607-17.977c2.725-8.032,14.946-12.542,23.656-9.576C97.808,143.192,101.344,149.119,99.536,155.64z
					"/>
			</g>
		</g>
		<g>
			<path fill="#606978" d="M7.545,271.147c0,0-2.307,2.491-6.437-1.357c-2.344-2.186-0.239-5.484-0.239-5.484l69.021-92.086
				l9.678,3.297L7.545,271.147z"/>
			<path fill="#535A65" d="M74.727,173.869l-72.022,95.63c0,0-0.411,0.491-1.122,0.701c3.825,3.237,5.98,0.895,5.98,0.895
				l72.004-95.578L74.727,173.869z"/>
		</g>
		<path fill="#535A65" d="M2.246,270.855l25.738,24.927c0,0,2.479,1.971,5.079-1.274c2.082-2.599,0.701-4.722,0.701-4.722
			L7.871,263.552L2.246,270.855z"/>
		<g>
			
				<rect x="7.615" y="264.002" transform="matrix(-0.0181 0.9998 -0.9998 -0.0181 285.1035 249.7135)" fill="#535A65" width="24.634" height="1.706"/>
		</g>
	</g>
</g>
<g>
	<g>
		<path fill="#77644C" d="M89.487,128.422c-2.967,0.986-6.144-0.547-7.096-3.422L57.128,48.713
			c-0.952-2.878,0.681-6.009,3.647-6.995l99.497-33.09c2.966-0.988,6.145,0.545,7.097,3.422l25.263,76.286
			c0.953,2.876-0.68,6.007-3.646,6.994L89.487,128.422z"/>
		<g>
			<path fill="#E9E3D0" d="M189.119,91.496l-24.89-75.164c-1.168-3.524-4.959-5.43-8.473-4.262L65.379,42.128
				c-3.513,1.167-5.414,4.968-4.249,8.493l24.892,75.164L189.119,91.496z"/>
			<path fill="none" stroke="#CCC6B2" stroke-width="0.25" stroke-miterlimit="10" d="M158.309,19.774l23.221,70.119L158.309,19.774
				z"/>
			<path fill="none" stroke="#CCC6B2" stroke-width="0.25" stroke-miterlimit="10" d="M151.948,21.89l23.221,70.12L151.948,21.89z"
				/>
			<path fill="none" stroke="#CCC6B2" stroke-width="0.25" stroke-miterlimit="10" d="M145.587,24.005l23.221,70.12L145.587,24.005z
				"/>
			<path fill="none" stroke="#CCC6B2" stroke-width="0.25" stroke-miterlimit="10" d="M139.225,26.121l23.22,70.12L139.225,26.121z"
				/>
			<path fill="none" stroke="#CCC6B2" stroke-width="0.25" stroke-miterlimit="10" d="M132.864,28.236l23.22,70.121L132.864,28.236z
				"/>
			<path fill="none" stroke="#CCC6B2" stroke-width="0.25" stroke-miterlimit="10" d="M126.504,30.351l23.222,70.12L126.504,30.351z
				"/>
			<path fill="none" stroke="#CCC6B2" stroke-width="0.25" stroke-miterlimit="10" d="M120.143,32.468l23.221,70.12L120.143,32.468z
				"/>
			<path fill="none" stroke="#CCC6B2" stroke-width="0.25" stroke-miterlimit="10" d="M113.784,34.583l23.222,70.12L113.784,34.583z
				"/>
			<path fill="none" stroke="#CCC6B2" stroke-width="0.25" stroke-miterlimit="10" d="M107.42,36.699l23.22,70.121L107.42,36.699z"
				/>
			<path fill="none" stroke="#CCC6B2" stroke-width="0.25" stroke-miterlimit="10" d="M101.059,38.814l23.22,70.12L101.059,38.814z"
				/>
			<path fill="none" stroke="#CCC6B2" stroke-width="0.25" stroke-miterlimit="10" d="M94.7,40.929l23.219,70.121L94.7,40.929z"/>
			<path fill="none" stroke="#CCC6B2" stroke-width="0.25" stroke-miterlimit="10" d="M88.338,43.044l23.222,70.121L88.338,43.044z"
				/>
			<path fill="none" stroke="#CCC6B2" stroke-width="0.25" stroke-miterlimit="10" d="M81.979,45.161l23.222,70.12L81.979,45.161z"
				/>
			<path fill="none" stroke="#CCC6B2" stroke-width="0.25" stroke-miterlimit="10" d="M75.615,47.277l23.22,70.12L75.615,47.277z"/>
			<path fill="none" stroke="#CCC6B2" stroke-width="0.25" stroke-miterlimit="10" d="M69.255,49.393l23.219,70.12L69.255,49.393z"
				/>
			<path fill="#5A4D3B" d="M155.236,5.166c0.879-0.293,1.825,0.183,2.118,1.065l3.079,9.298c0.291,0.881-0.184,1.829-1.063,2.123
				c-0.88,0.292-1.826-0.183-2.118-1.066l-3.079-9.297C153.881,6.407,154.356,5.459,155.236,5.166z M153.278,17.908L150.2,8.612
				c-0.292-0.883-1.24-1.358-2.119-1.066c-0.88,0.293-1.354,1.241-1.062,2.124l3.078,9.296c0.292,0.882,1.239,1.358,2.119,1.065
				C153.094,19.74,153.57,18.791,153.278,17.908z M146.121,20.289l-3.079-9.297c-0.293-0.882-1.24-1.357-2.118-1.065
				c-0.878,0.293-1.355,1.241-1.064,2.122l3.081,9.299c0.291,0.882,1.24,1.357,2.118,1.065
				C145.937,22.119,146.413,21.171,146.121,20.289z M138.964,22.669l-3.078-9.297c-0.292-0.883-1.238-1.358-2.118-1.065
				c-0.879,0.292-1.354,1.24-1.063,2.121l3.078,9.299c0.293,0.883,1.241,1.357,2.118,1.065
				C138.782,24.5,139.256,23.552,138.964,22.669z M131.809,25.05l-3.08-9.299c-0.292-0.88-1.238-1.356-2.117-1.064
				c-0.88,0.294-1.355,1.241-1.062,2.123l3.078,9.297c0.292,0.883,1.238,1.358,2.118,1.065
				C131.626,26.879,132.1,25.932,131.809,25.05z M124.654,27.428l-3.08-9.296c-0.291-0.883-1.237-1.358-2.118-1.066
				c-0.88,0.292-1.353,1.241-1.061,2.123l3.079,9.298c0.291,0.881,1.238,1.357,2.117,1.065
				C124.472,29.258,124.945,28.311,124.654,27.428z M117.497,29.809l-3.078-9.297c-0.293-0.883-1.242-1.358-2.118-1.065
				c-0.88,0.293-1.355,1.24-1.063,2.122l3.078,9.298c0.293,0.882,1.238,1.357,2.118,1.065
				C117.312,31.639,117.791,30.691,117.497,29.809z M110.339,32.189l-3.078-9.297c-0.293-0.883-1.238-1.357-2.119-1.065
				c-0.876,0.292-1.352,1.24-1.062,2.122l3.08,9.298c0.291,0.883,1.24,1.357,2.116,1.065
				C110.156,34.02,110.632,33.072,110.339,32.189z M103.184,34.569l-3.08-9.297c-0.292-0.882-1.237-1.357-2.118-1.065
				c-0.88,0.292-1.354,1.239-1.061,2.121l3.078,9.299c0.292,0.881,1.238,1.356,2.118,1.064
				C103.001,36.398,103.477,35.452,103.184,34.569z M96.028,36.95l-3.079-9.298c-0.292-0.883-1.237-1.359-2.118-1.066
				c-0.88,0.293-1.354,1.241-1.063,2.124l3.08,9.297c0.292,0.882,1.236,1.358,2.118,1.065C95.846,38.779,96.319,37.831,96.028,36.95
				z M88.873,39.328l-3.078-9.297c-0.292-0.883-1.242-1.356-2.119-1.065c-0.878,0.291-1.354,1.24-1.061,2.121l3.078,9.299
				c0.293,0.882,1.238,1.357,2.118,1.065C88.688,41.159,89.165,40.21,88.873,39.328z M81.718,41.708l-3.08-9.298
				c-0.291-0.881-1.24-1.356-2.12-1.063c-0.877,0.292-1.355,1.24-1.063,2.122l3.079,9.297c0.293,0.883,1.242,1.358,2.117,1.065
				C81.532,43.54,82.01,42.59,81.718,41.708z M74.558,44.089l-3.078-9.297c-0.292-0.882-1.238-1.357-2.118-1.065
				c-0.876,0.291-1.354,1.24-1.063,2.122l3.08,9.298c0.293,0.881,1.241,1.356,2.118,1.065
				C74.377,45.919,74.851,44.972,74.558,44.089z M67.403,46.469l-3.079-9.298c-0.291-0.881-1.237-1.358-2.118-1.064
				c-0.88,0.292-1.355,1.24-1.063,2.123l3.079,9.297c0.291,0.882,1.237,1.357,2.118,1.064C67.221,48.298,67.696,47.35,67.403,46.469
				z"/>
			<polygon fill="#BC543D" points="58.648,57.342 59.227,55.381 57.591,54.151 165.064,18.407 166.121,21.598 			"/>
			<g>
				<path fill="#77644C" d="M118.395,19.189l1.011,3.054l3.18-1.058l-1.012-3.053c-0.079-0.238-0.213-0.437-0.376-0.615
					l-2.868,0.955C118.302,18.713,118.316,18.952,118.395,19.189z"/>
				<path fill="#77644C" d="M104.08,23.949l1.011,3.053l3.18-1.057l-1.01-3.053c-0.079-0.237-0.211-0.436-0.373-0.616l-2.872,0.955
					C103.993,23.473,104.002,23.711,104.08,23.949z"/>
				<path fill="#77644C" d="M111.239,21.568l1.011,3.053l3.181-1.056l-1.011-3.054c-0.079-0.238-0.213-0.437-0.376-0.616
					l-2.87,0.955C111.147,21.093,111.16,21.331,111.239,21.568z"/>
				<path fill="#77644C" d="M125.55,16.809l1.011,3.054l3.18-1.058l-1.012-3.055c-0.078-0.237-0.21-0.436-0.372-0.614l-2.873,0.954
					C125.458,16.333,125.471,16.572,125.55,16.809z"/>
				<path fill="#77644C" d="M132.705,14.429l1.01,3.054l3.183-1.057l-1.012-3.053c-0.079-0.238-0.21-0.436-0.376-0.616l-2.869,0.956
					C132.614,13.954,132.626,14.192,132.705,14.429z"/>
				<path fill="#77644C" d="M148.029,12.724l3.181-1.059L150.2,8.612c-0.079-0.239-0.213-0.437-0.376-0.616l-2.87,0.955
					c-0.028,0.242-0.014,0.48,0.064,0.719L148.029,12.724z"/>
				<path fill="#77644C" d="M139.86,12.048l1.013,3.055l3.18-1.058l-1.011-3.054c-0.079-0.237-0.212-0.436-0.376-0.615l-2.871,0.955
					C139.771,11.573,139.783,11.813,139.86,12.048z"/>
				<path fill="#77644C" d="M96.925,26.329l1.011,3.054l3.18-1.057l-1.012-3.054c-0.078-0.237-0.21-0.438-0.372-0.616L96.86,25.61
					C96.832,25.853,96.845,26.092,96.925,26.329z"/>
				<path fill="#77644C" d="M62.156,41.283l3.18-1.059l-1.011-3.054c-0.079-0.238-0.211-0.437-0.374-0.615l-2.873,0.955
					c-0.026,0.243-0.013,0.48,0.066,0.718L62.156,41.283z"/>
				<path fill="#77644C" d="M68.299,35.849l1.012,3.053l3.18-1.056l-1.012-3.054c-0.079-0.238-0.21-0.436-0.374-0.616l-2.871,0.956
					C68.212,35.373,68.222,35.611,68.299,35.849z"/>
				<path fill="#77644C" d="M156.979,5.617l-2.871,0.954c-0.025,0.243-0.013,0.482,0.066,0.719l1.011,3.055l3.18-1.059l-1.011-3.054
					C157.276,5.994,157.142,5.795,156.979,5.617z"/>
				<path fill="#77644C" d="M75.455,33.47l1.011,3.054l3.185-1.058l-1.013-3.056c-0.078-0.236-0.213-0.434-0.374-0.614l-2.874,0.957
					C75.366,32.993,75.377,33.232,75.455,33.47z"/>
				<path fill="#77644C" d="M89.769,28.71l1.012,3.054l3.179-1.058l-1.011-3.053c-0.079-0.239-0.211-0.438-0.376-0.615l-2.87,0.955
					C89.677,28.233,89.691,28.472,89.769,28.71z"/>
				<path fill="#77644C" d="M82.614,31.088l1.011,3.055l3.18-1.059l-1.011-3.053c-0.079-0.237-0.213-0.437-0.376-0.614l-2.87,0.954
					C82.522,30.613,82.535,30.852,82.614,31.088z"/>
			</g>
		</g>
	</g>
	<g>
		<g>
			<polygon fill="#EEBE71" points="25.483,77.235 22.425,63.992 31.941,73.68 			"/>
			<path fill="#5A4D3B" d="M25.096,69.036c0.501-0.276,0.902-0.65,1.22-1.079l-3.892-3.965l1.267,5.489
				C24.171,69.428,24.645,69.284,25.096,69.036z"/>
			<g>
				<path fill="#DA87A3" d="M56.623,134.049c-0.658-1.199-0.224-2.7,0.972-3.358l2.167-1.193c1.195-0.659,2.697-0.222,3.354,0.975
					l1.487,2.715c0.657,1.199,0.22,2.702-0.976,3.361l-2.167,1.191c-1.196,0.658-2.695,0.221-3.352-0.978L56.623,134.049z"/>
				<polygon fill="#E7C758" points="25.454,77.193 31.946,73.619 61.877,128.214 55.382,131.79 				"/>
				<polygon fill="#FAEF88" points="27.212,76.223 30.183,74.587 60.115,129.184 57.142,130.822 				"/>
				<polygon fill="#E9E3D0" points="54.87,131.66 62.043,127.712 63.53,130.425 56.357,134.373 				"/>
			</g>
		</g>
		<g>
			<path fill="#5A4D3B" d="M35.556,58.806c-0.617-1.123-0.967-2.114-0.781-2.216c0.187-0.103,0.842,0.721,1.458,1.843
				c0.614,1.122,0.958,2.122,0.773,2.224C36.82,60.758,36.171,59.928,35.556,58.806z"/>
			<path fill="#A69989" d="M52.038,96.212C41.147,76.343,33.849,59.394,35.742,58.351C37.634,57.309,48,72.571,58.891,92.438
				c10.893,19.87,18.186,36.821,16.294,37.862C73.294,131.342,62.93,116.081,52.038,96.212z"/>
			<path fill="#8A7D6E" d="M52.038,96.212c10.893,19.869,21.256,35.13,23.147,34.088c0.185-0.1,0.281-0.356,0.297-0.736
				c-2.451-2.093-6.341-6.913-12.311-17.651c-12.698-22.841-27.43-53.562-27.43-53.562C33.849,59.394,41.147,76.343,52.038,96.212z"
				/>
			<g>
				<path fill="#5A4D3B" d="M70.829,127.816c-0.657-1.197-0.218-2.705,0.978-3.361l0.407-0.225c1.191-0.654,2.695-0.219,3.351,0.978
					l2.528,4.612c0.657,1.198,0.218,2.704-0.973,3.359l-0.408,0.223c-1.195,0.659-2.699,0.222-3.355-0.975L70.829,127.816z"/>
				<path fill="#77644C" d="M77.121,133.179c1.191-0.655,1.63-2.162,0.973-3.359l-0.641-1.168c-0.436-0.022-0.882,0.063-1.295,0.292
					c-1.175,0.647-1.603,2.125-0.956,3.305c0.328,0.6,0.864,1.001,1.471,1.173c0.013-0.008,0.028-0.009,0.041-0.018L77.121,133.179z
					"/>
				<path fill="#5A4D3B" d="M68.367,131.819c0.373-0.205,0.514-0.682,0.307-1.061l-0.033-0.057c1.45,0.429,3.068,0.186,4.332-0.825
					l-0.774-0.964c-1.384,1.113-3.394,0.964-4.682-0.267L51.437,99.314c-0.206-0.376-0.685-0.512-1.056-0.309
					c-0.381,0.212-0.514,0.685-0.309,1.061L67.31,131.51C67.518,131.89,67.988,132.028,68.367,131.819z"/>
				<path fill="#5A4D3B" d="M57.081,97.432c-1.452,0.799-2.867,1.261-3.84,1.314c0.031,0.3,0.122,0.601,0.279,0.886l17.046,31.093
					c0.62,1.133,2.044,1.545,3.168,0.926l3.413-1.88c1.131-0.622,1.544-2.042,0.923-3.177L61.023,95.5
					c-0.174-0.316-0.414-0.569-0.688-0.767C59.823,95.558,58.631,96.579,57.081,97.432z"/>
				<path fill="#77644C" d="M73.654,131.686c0.026-0.014,0.055-0.02,0.08-0.034l3.413-1.88c1.131-0.622,1.544-2.042,0.923-3.177
					L61.023,95.5c-0.174-0.316-0.414-0.569-0.688-0.767c-0.512,0.825-1.704,1.846-3.253,2.699c-0.606,0.334-1.198,0.595-1.763,0.806
					L73.654,131.686z"/>
			</g>
		</g>
	</g>
</g>
</svg>
