<?xml version="1.0" encoding="utf-8"?>
<!-- Generator: Adobe Illustrator 18.0.0, SVG Export Plug-In . SVG Version: 6.00 Build 0)  -->
<!DOCTYPE svg PUBLIC "-//W3C//DTD SVG 1.1//EN" "http://www.w3.org/Graphics/SVG/1.1/DTD/svg11.dtd">
<svg version="1.1" id="Capa_1" xmlns="http://www.w3.org/2000/svg" xmlns:xlink="http://www.w3.org/1999/xlink" x="0px" y="0px"
	 viewBox="0 0 960 560" enable-background="new 0 0 960 560" xml:space="preserve">
<g>
	<g>
		<path fill="#B8C5CC" d="M504.508,264.205c0,5.705-0.963,11.133-2.883,16.276c-1.923,5.145-4.62,9.659-8.087,13.538
			c-3.472,3.884-7.595,6.971-12.379,9.261c-4.783,2.29-10.033,3.439-15.751,3.439c-3.563,0-6.892-0.492-9.985-1.475
			c-3.095-0.981-6.003-2.547-8.721-4.699l0.14,39.284h-20.344V223.375h20.344l0.14,4.21c2.338-1.87,5.122-3.367,8.349-4.491
			c3.227-1.122,6.615-1.684,10.17-1.684c4.957,0,9.773,1.1,14.452,3.298c4.676,2.198,8.838,5.214,12.488,9.049
			c3.647,3.837,6.569,8.348,8.767,13.539C503.408,252.488,504.508,258.125,504.508,264.205z M483.882,264.345
			c0-3.833-0.563-7.295-1.689-10.382c-1.128-3.087-2.702-5.728-4.717-7.928c-2.02-2.197-4.414-3.88-7.185-5.051
			c-2.771-1.168-5.846-1.754-9.223-1.754c-2.162,0-4.625,0.444-7.394,1.332c-2.771,0.89-5.094,2.083-6.971,3.579v38.863
			c4.412,4.024,9.34,6.034,14.786,6.034c3.194,0,6.174-0.609,8.945-1.824c2.769-1.215,5.137-2.924,7.111-5.122
			c1.971-2.196,3.52-4.817,4.648-7.858C483.319,271.199,483.882,267.9,483.882,264.345z"/>
		<path fill="#B8C5CC" d="M575.36,231.934l-10.802,17.118c-1.964-2.151-4.139-4.045-6.526-5.683
			c-2.384-1.635-4.793-2.455-7.223-2.455c-1.312,0-2.738,0.304-4.279,0.912c-1.544,0.609-2.995,1.614-4.35,3.016
			c-1.358,1.403-2.504,3.253-3.439,5.542c-0.935,2.294-1.404,5.122-1.404,8.489v45.738h-20.203v-81.095h20.203v8.7
			c2.432-3.46,5.122-6.126,8.069-7.998c2.947-1.87,6.243-2.807,9.89-2.807c3.553,0,7.038,0.96,10.453,2.877
			C569.163,226.206,572.367,228.756,575.36,231.934z"/>
		<path fill="#B8C5CC" d="M666.276,264.064c0,6.08-1.121,11.714-3.367,16.907c-2.244,5.191-5.331,9.679-9.259,13.469
			c-3.93,3.788-8.538,6.783-13.82,8.979c-5.285,2.196-10.922,3.298-16.907,3.298c-5.986,0-11.599-1.103-16.836-3.298
			c-5.239-2.196-9.822-5.214-13.749-9.05c-3.93-3.833-7.015-8.347-9.261-13.54c-2.244-5.191-3.367-10.779-3.367-16.765
			c0-5.894,1.144-11.435,3.439-16.627c2.29-5.191,5.4-9.726,9.33-13.609c3.928-3.879,8.51-6.92,13.749-9.119
			c5.237-2.198,10.805-3.298,16.696-3.298c5.986,0,11.622,1.1,16.907,3.298c5.283,2.198,9.89,5.191,13.82,8.979
			c3.928,3.788,7.015,8.302,9.259,13.54C665.155,252.468,666.276,258.079,666.276,264.064z M646.072,264.064
			c0-3.459-0.606-6.686-1.819-9.682c-1.212-2.993-2.868-5.612-4.967-7.858c-2.096-2.244-4.547-3.999-7.343-5.261
			c-2.797-1.262-5.782-1.894-8.951-1.894c-3.171,0-6.156,0.632-8.953,1.894c-2.799,1.262-5.247,3.017-7.346,5.261
			c-2.096,2.245-3.752,4.865-4.964,7.858c-1.212,2.995-1.819,6.223-1.819,9.682c0,3.461,0.606,6.689,1.819,9.681
			c1.212,2.993,2.868,5.611,4.964,7.855c2.099,2.247,4.547,3.999,7.346,5.262c2.797,1.263,5.782,1.895,8.953,1.895
			c3.169,0,6.154-0.632,8.951-1.895c2.797-1.263,5.247-3.016,7.343-5.262c2.099-2.244,3.754-4.862,4.967-7.855
			C645.466,270.753,646.072,267.526,646.072,264.064z"/>
	</g>
	<path fill="#0088CC" d="M707.095,304.583v-7.943h1.933c2.853,0,4.811-1.411,5.665-4.082c0.739-2.3,1.11-5.574,1.11-9.725
		c0-1.819,0.028-3.714,0.079-5.683c0.051-1.903,0.28-3.768,0.68-5.542c0.39-1.722,1.042-3.311,1.938-4.725
		c0.851-1.335,2.106-2.402,3.731-3.169l2.183-1.029l-2.221-0.95c-1.582-0.679-2.827-1.62-3.698-2.798
		c-0.904-1.224-1.554-2.632-1.938-4.186c-0.397-1.622-0.639-3.395-0.716-5.27c-0.076-1.94-0.117-3.911-0.117-5.858
		c0-4.727-0.402-8.214-1.233-10.657c-1.182-3.482-3.625-4.215-5.464-4.215h-1.933v-8.018h3.584c3.176,0,5.677,0.512,7.427,1.522
		c1.74,1.002,3.044,2.337,3.884,3.964c0.879,1.704,1.447,3.668,1.691,5.838c0.257,2.259,0.387,4.613,0.387,6.999v7.119
		c0,2.392,0.278,4.577,0.825,6.495c0.576,2.017,1.569,3.663,2.952,4.89c1.235,1.096,2.97,1.728,5.165,1.886v6.499
		c-2.15,0.161-3.849,0.795-5.056,1.89c-1.358,1.233-2.313,2.883-2.835,4.912c-0.489,1.9-0.751,4.073-0.777,6.456
		c-0.028,2.305-0.066,4.664-0.12,7.071c-0.051,2.364-0.219,4.721-0.502,7.012c-0.267,2.18-0.884,4.136-1.831,5.81
		c-0.912,1.615-2.302,2.944-4.121,3.956c-1.834,1.016-4.429,1.531-7.72,1.531H707.095z"/>
	<path fill="#0088CC" d="M701.318,304.583v-7.943h-1.933c-2.853,0-4.812-1.411-5.665-4.082c-0.736-2.3-1.11-5.574-1.11-9.725
		c0-1.819-0.028-3.714-0.079-5.683c-0.051-1.903-0.278-3.768-0.68-5.542c-0.387-1.722-1.042-3.311-1.936-4.725
		c-0.851-1.335-2.107-2.402-3.732-3.169l-2.185-1.029l2.224-0.95c1.582-0.679,2.825-1.62,3.698-2.798
		c0.902-1.224,1.554-2.632,1.936-4.186c0.4-1.622,0.642-3.395,0.718-5.27c0.076-1.94,0.115-3.911,0.115-5.858
		c0-4.727,0.405-8.214,1.233-10.657c1.184-3.482,3.625-4.215,5.464-4.215h1.933v-8.018h-3.581c-3.179,0-5.677,0.512-7.43,1.522
		c-1.737,1.002-3.044,2.337-3.882,3.964c-0.879,1.704-1.449,3.668-1.694,5.838c-0.255,2.259-0.385,4.613-0.385,6.999v7.119
		c0,2.392-0.278,4.577-0.828,6.495c-0.576,2.017-1.569,3.663-2.952,4.89c-1.233,1.096-2.97,1.728-5.163,1.886v6.499
		c2.15,0.161,3.846,0.795,5.056,1.89c1.355,1.233,2.31,2.883,2.832,4.912c0.489,1.9,0.751,4.073,0.777,6.456
		c0.028,2.305,0.069,4.664,0.12,7.071c0.051,2.364,0.219,4.721,0.504,7.012c0.267,2.18,0.881,4.136,1.829,5.81
		c0.914,1.615,2.303,2.944,4.124,3.956c1.831,1.016,4.429,1.531,7.718,1.531H701.318z"/>
	<path fill="#2E3133" d="M294.514,286.242c0,4.358-1.019,8.237-3.05,11.634c-2.034,3.397-4.675,6.234-7.928,8.516
		c-3.25,2.282-6.909,4.006-10.973,5.171c-4.065,1.164-8.079,1.75-12.04,1.75c-6.709,0-12.882-1.244-18.521-3.726
		c-5.641-2.483-10.595-6.464-14.861-11.939l13.231-13.384c2.635,3.347,5.676,5.958,9.125,7.832
		c3.446,1.877,7.147,2.815,11.103,2.815c3.445,0,6.31-0.633,8.591-1.901c2.282-1.266,3.423-3.167,3.423-5.703
		c0-2.635-1.625-4.841-4.867-6.616c-3.246-1.773-7.809-3.523-13.688-5.246c-3.448-1.014-6.793-2.306-10.038-3.879
		c-3.245-1.57-6.135-3.498-8.668-5.778c-2.534-2.282-4.562-4.892-6.082-7.834c-1.522-2.938-2.282-6.335-2.282-10.189
		c0-4.259,0.991-8.083,2.972-11.482c1.983-3.395,4.572-6.235,7.774-8.515c3.2-2.282,6.834-4.032,10.899-5.247
		c4.065-1.218,8.18-1.826,12.348-1.826c13.412,0,24.388,5.071,32.924,15.209l-13.079,13.232c-2.536-3.142-5.425-5.629-8.669-7.453
		c-3.246-1.826-6.794-2.738-10.646-2.738c-1.319,0-2.713,0.178-4.182,0.532c-1.471,0.357-2.84,0.863-4.106,1.522
		c-1.27,0.661-2.308,1.519-3.118,2.584c-0.814,1.066-1.217,2.259-1.217,3.574c0,2.336,1.545,4.362,4.638,6.085
		c3.092,1.724,7.529,3.447,13.309,5.171c3.749,1.117,7.3,2.534,10.646,4.258c3.346,1.726,6.285,3.728,8.819,6.007
		c2.534,2.282,4.537,4.867,6.009,7.757C293.775,279.321,294.514,282.592,294.514,286.242z"/>
	<polygon fill="#2E3133" points="377.465,262.6 365.327,222.657 347.368,222.657 332.074,273.448 316.781,222.657 295.455,222.657 
		322.815,304.033 340.352,304.033 356.487,255.628 368.82,292.625 	"/>
	<polygon fill="#0088CC" points="396.053,222.657 391.069,239.213 391.178,239.213 372.618,304.02 372.623,304.033 390.161,304.033 
		417.379,222.657 	"/>
</g>
</svg>
