<?xml version="1.0" encoding="utf-8"?>
<!-- Generator: Adobe Illustrator 18.0.0, SVG Export Plug-In . SVG Version: 6.00 Build 0)  -->
<!DOCTYPE svg PUBLIC "-//W3C//DTD SVG 1.1//EN" "http://www.w3.org/Graphics/SVG/1.1/DTD/svg11.dtd">
<svg version="1.1" id="Capa_1" xmlns="http://www.w3.org/2000/svg" xmlns:xlink="http://www.w3.org/1999/xlink" x="0px" y="0px"
	 viewBox="0 0 300 300" enable-background="new 0 0 300 300" xml:space="preserve">
<g>
	<g>
		<g>
			<path fill="#434244" d="M122.561,103.895l0.004-0.009l-0.142-0.055c-0.097-0.04-0.194-0.075-0.291-0.113l-17.446-8.37
				c-0.07-0.029-0.141-0.054-0.211-0.082l-0.39-0.151l-0.005,0.013c-4.85-1.735-11.631,0.479-15.515,4.363
				c-2.494,2.494-3.814,5.708-3.991,8.971l-15.145,15.145c-3.264,0.178-6.478,1.498-8.971,3.991
				c-3.884,3.884-6.098,10.665-4.363,15.515l-0.013,0.005l0.151,0.39c0.028,0.071,0.053,0.141,0.082,0.212l8.37,17.446
				c0.038,0.097,0.073,0.195,0.113,0.291l0.055,0.142l0.01-0.003c0.669,1.565,1.633,3.035,2.911,4.313
				c5.369,5.369,14.075,5.37,19.444,0c4.083-4.083,5.053-10.094,2.924-15.102l0.008-0.003l-4.199-10.799l15.02-15.02l10.799,4.198
				l0.003-0.008c5.008,2.128,11.018,1.159,15.102-2.925c5.369-5.369,5.369-14.075,0-19.444
				C125.596,105.528,124.126,104.564,122.561,103.895z"/>
			<circle fill="#707070" cx="70.756" cy="138.283" r="11.707"/>
			<circle fill="#707070" cx="100.637" cy="108.402" r="11.707"/>
			<path fill="#EDEDED" d="M73.195,133.429l-2.889,2.889l-2.89-2.889c-0.193-0.193-0.505-0.193-0.698,0l-0.817,0.817
				c-0.192,0.192-0.192,0.504,0.001,0.697l2.89,2.889l-2.891,2.891c-0.192,0.192-0.192,0.505,0,0.697l0.816,0.816
				c0.192,0.192,0.505,0.192,0.697,0l2.891-2.891l2.891,2.891c0.192,0.192,0.504,0.192,0.696,0l0.817-0.817
				c0.193-0.193,0.192-0.505,0.001-0.697l-2.891-2.891l2.889-2.889c0.193-0.193,0.192-0.505,0-0.697l-0.816-0.816
				C73.699,133.237,73.387,133.236,73.195,133.429z"/>
			<circle fill="#EDEDED" cx="84.399" cy="126.444" r="2.772"/>
			<circle fill="#EDEDED" cx="90.305" cy="120.538" r="2.772"/>
			<g>
				<circle fill="#E7B933" cx="95.549" cy="103.743" r="2.772"/>
				<circle fill="#CB2E2B" cx="96.288" cy="112.751" r="2.772"/>
				<circle fill="#84BA51" cx="104.557" cy="104.482" r="2.772"/>
				<circle fill="#D56C2F" cx="104.342" cy="112.536" r="2.772"/>
			</g>
		</g>
		<circle fill-rule="evenodd" clip-rule="evenodd" fill="#84BA51" cx="110.719" cy="73.704" r="15.568"/>
		<rect x="154.401" y="58.011" fill-rule="evenodd" clip-rule="evenodd" fill="#895299" width="12.427" height="12.427"/>
		<polygon fill-rule="evenodd" clip-rule="evenodd" fill="#5FA7D1" points="206.803,68.574 229.866,68.574 229.866,91.637 		"/>
		<polygon fill-rule="evenodd" clip-rule="evenodd" fill="#CB2E2B" points="104.058,34.953 127.121,34.953 127.121,58.016 		"/>
		<polygon fill-rule="evenodd" clip-rule="evenodd" fill="#D56C2F" points="178.068,239.957 161.762,223.649 178.068,207.341 		"/>
		
			<rect x="106.77" y="139.765" transform="matrix(0.7071 0.7071 -0.7071 0.7071 141.6294 -39.3387)" fill-rule="evenodd" clip-rule="evenodd" fill="#84BA51" width="23.063" height="23.063"/>
		<polygon fill-rule="evenodd" clip-rule="evenodd" fill="#E7B933" points="66.51,196.766 76.026,191.272 85.542,196.766 
			85.542,207.754 76.026,213.25 66.51,207.754 		"/>
		<polygon fill-rule="evenodd" clip-rule="evenodd" fill="#895299" points="137.959,190.876 150.504,183.633 163.049,190.876 
			163.049,205.361 150.504,212.606 137.959,205.361 		"/>
		<polygon fill-rule="evenodd" clip-rule="evenodd" fill="#5FA7D1" points="129.888,82.095 139.901,76.314 149.915,82.095 
			149.915,93.657 139.901,99.439 129.888,93.657 		"/>
		<polygon fill-rule="evenodd" clip-rule="evenodd" fill="#CB2E2B" points="160.761,236.532 166.275,247.701 178.599,249.492 
			169.68,258.186 171.786,270.462 160.761,264.666 149.737,270.462 151.843,258.186 142.924,249.492 155.25,247.701 		"/>
		<polygon fill-rule="evenodd" clip-rule="evenodd" fill="#84BA51" points="46.54,169.824 52.052,180.993 64.378,182.784 
			55.459,191.478 57.565,203.754 46.54,197.959 35.516,203.754 37.621,191.478 28.702,182.784 41.027,180.993 		"/>
		<path fill="#E7B933" d="M210.49,36.816c-0.62-0.376-1.446-0.297-1.983,0.188c-0.324,0.295-0.527,0.65-0.585,1.087
			c-0.115,0.899,0.485,1.738,1.376,1.92c0.065,0.013,0.132,0.023,0.197,0.036c-0.001,0.144-0.372,4.616-0.778,6.78
			c-0.182,0.962-0.905,0.622-1.257,0.346c-2.121-1.67-4.245-3.339-6.375-5.014c0.037-0.048,0.066-0.088,0.099-0.121
			c0.631-0.598,0.879-1.722,0.241-2.653c-0.518-0.756-1.424-1.062-2.269-0.834c-1.207,0.327-1.911,1.666-1.356,2.89
			c0.388,0.854,1.267,1.301,2.112,1.209c0.074-0.007,0.146-0.017,0.224-0.024c0.005,0.033,0.01,0.058,0.01,0.08
			c-0.005,2.572,0.203,5.591-0.091,8.146c-0.125,1.088-0.509,0.9-1.043,0.723c-3.542-1.192-7.459-2.509-11.112-3.736
			c1.089-1.881,0.847-4.321-0.763-5.931c-1.921-1.921-5.034-1.921-6.955,0c-1.92,1.92-1.92,5.033,0.001,6.954
			c1.553,1.553,3.879,1.827,5.731,0.868c0.97,3.062,2.86,9.094,3.606,11.507c0.194,0.617-0.293,1.055-0.546,1.055
			c-0.669,0.004-1.338,0.004-2.007,0.008c-0.803,0.003-1.608,0.01-2.412,0.011c-0.822,0.005-1.646,0.012-2.47,0.018
			c-0.48,0.002-0.964,0.005-1.445,0.011c-0.052,0-0.1-0.004-0.148-0.004c-0.034-0.067-0.004-0.127,0.001-0.188
			c0.05-0.496-0.056-0.959-0.331-1.379c-0.678-1.024-2.006-1.207-2.906-0.594c-1.014,0.691-1.181,1.954-0.624,2.835
			c0.401,0.635,0.987,0.975,1.743,0.996c0.542,0.015,1.018-0.167,1.424-0.526c0.029-0.025,0.057-0.049,0.09-0.082
			c0.027,0.027,0.051,0.044,0.068,0.066c0.266,0.366,0.528,0.731,0.794,1.098c0.293,0.405,0.586,0.811,0.877,1.218
			c0.293,0.405,0.585,0.812,0.878,1.221c0.291,0.407,0.585,0.812,0.877,1.218c0.29,0.401,0.576,0.803,0.866,1.204
			c0.297,0.413,0.631,0.799,0.887,1.235c0.384,0.646-0.826,0.632-1.406,0.663c-1.814,0.089-3.627,0.182-5.449,0.272
			c0.001-0.061,0.003-0.108,0.008-0.153c0.046-0.425-0.048-0.814-0.286-1.166c-0.575-0.83-1.627-0.968-2.364-0.49
			c-0.837,0.539-1.029,1.612-0.525,2.395c0.032,0.053,0.068,0.101,0.06,0.166c0.096,0.096,0.193,0.193,0.29,0.29
			c0.073-0.005,0.126,0.038,0.184,0.073c0.378,0.239,0.789,0.319,1.228,0.24c0.338-0.059,0.633-0.206,0.878-0.448
			c0.026-0.026,0.056-0.048,0.084-0.072c0.005-0.002,0.012-0.002,0.037-0.008c0.461,0.383,0.915,0.79,1.379,1.188
			c0.462,0.393,0.916,0.793,1.373,1.191c0.463,0.399,0.93,0.798,1.392,1.198c0.459,0.395,0.913,0.797,1.373,1.191
			c0.464,0.398,0.922,0.806,1.393,1.197c0.05-0.035,0.093-0.06,0.131-0.089c0.363-0.304,0.723-0.605,1.081-0.907
			c0.402-0.338,0.804-0.676,1.204-1.018c0.315-0.269,0.626-0.544,0.94-0.814c0.333-0.288,0.663-0.574,0.996-0.862
			c0.172-0.15,0.344-0.299,0.515-0.452c0.38-0.336,0.759-0.674,1.136-1.01c0.395-0.354,0.793-0.708,1.191-1.065
			c0.314-0.284,0.632-0.572,0.946-0.861c0.439-0.401,0.874-0.803,1.31-1.206c0.494-0.457,0.988-0.917,1.483-1.375
			c0.41-0.384,0.824-0.764,1.234-1.152c0.197-0.186,0.392-0.376,0.587-0.564c0.398-0.382,0.794-0.761,1.193-1.145
			c0.209-0.198,0.419-0.401,0.627-0.605c0.506-0.499,1.015-0.997,1.521-1.498c0.684-0.677,1.368-1.357,2.053-2.042
			c0.434-0.438,0.871-0.879,1.302-1.32c0.418-0.433,0.832-0.867,1.247-1.299c0.398-0.416,0.799-0.828,1.191-1.247
			c0.366-0.388,0.724-0.78,1.087-1.169c0.171-0.186,0.349-0.367,0.52-0.553c0.46-0.505,0.92-1.007,1.375-1.509
			c0.44-0.485,0.876-0.973,1.312-1.464c0.33-0.367,0.659-0.738,0.986-1.108c0.388-0.449,0.773-0.9,1.162-1.351
			c0.245-0.287,0.491-0.573,0.736-0.858c0.225-0.267,0.442-0.532,0.664-0.799c0.201-0.241,0.405-0.484,0.604-0.727
			c0.213-0.257,0.421-0.517,0.635-0.776c0.104-0.13,0.21-0.259,0.317-0.39c0.038-0.047,0.075-0.095,0.11-0.143
			c-0.033-0.085-0.085-0.144-0.135-0.206c-0.364-0.468-0.733-0.936-1.097-1.404c-0.351-0.448-0.704-0.893-1.056-1.342
			c-0.282-0.36-0.563-0.722-0.844-1.08c-0.279-0.357-0.559-0.712-0.836-1.067c-0.286-0.364-0.572-0.732-0.858-1.096
			c-0.221-0.28-0.444-0.562-0.663-0.845c-0.044-0.053-0.079-0.11-0.119-0.159c0.025-0.077,0.085-0.1,0.132-0.14
			c0.445-0.363,0.669-0.83,0.661-1.408c-0.006-0.288-0.07-0.562-0.237-0.807c-0.009-0.014-0.007-0.033-0.011-0.051
			c-0.193-0.193-0.385-0.385-0.578-0.578C210.525,36.821,210.507,36.824,210.49,36.816z"/>
		<g>
			<polygon fill-rule="evenodd" clip-rule="evenodd" fill="#CB2E2B" points="205.288,270.013 199.534,260.047 205.288,250.082 
				216.796,250.082 222.55,260.047 216.796,270.013 			"/>
			<polygon opacity="0.2" fill-rule="evenodd" clip-rule="evenodd" fill="#FFFFFF" points="207.047,266.967 203.052,260.047 
				207.047,253.128 215.038,253.128 219.033,260.047 215.038,266.967 			"/>
		</g>
		<g>
			
				<rect x="113.575" y="242.396" transform="matrix(0.7071 0.7071 -0.7071 0.7071 215.7806 -13.9205)" fill-rule="evenodd" clip-rule="evenodd" fill="#5FA7D1" width="22.239" height="22.239"/>
			
				<rect x="119.019" y="247.839" transform="matrix(0.7071 0.7071 -0.7071 0.7071 215.7745 -13.9226)" opacity="0.2" fill-rule="evenodd" clip-rule="evenodd" fill="#FFFFFF" width="11.351" height="11.352"/>
		</g>
		<g>
			
				<rect x="227.996" y="202.995" transform="matrix(0.7071 0.7071 -0.7071 0.7071 219.6559 -105.6313)" fill-rule="evenodd" clip-rule="evenodd" fill="#D56C2F" width="18.685" height="18.685"/>
			
				<rect x="232.57" y="207.569" transform="matrix(0.7071 0.7071 -0.7071 0.7071 219.6494 -105.631)" opacity="0.2" fill-rule="evenodd" clip-rule="evenodd" fill="#FFFFFF" width="9.537" height="9.538"/>
		</g>
		<g>
			
				<rect x="42.66" y="98.958" transform="matrix(0.7071 0.7071 -0.7071 0.7071 93.5865 -5.7875)" fill-rule="evenodd" clip-rule="evenodd" fill="#895299" width="22.239" height="22.239"/>
			
				<rect x="48.104" y="104.402" transform="matrix(0.7071 0.7071 -0.7071 0.7071 93.5844 -5.7882)" opacity="0.2" fill-rule="evenodd" clip-rule="evenodd" fill="#FFFFFF" width="11.351" height="11.352"/>
		</g>
		<g>
			<polygon fill-rule="evenodd" clip-rule="evenodd" fill="#E7B933" points="73.037,78.86 77.814,74.083 73.037,69.306 
				73.037,62.551 66.283,62.551 61.506,57.775 56.731,62.551 49.974,62.551 49.974,69.306 45.197,74.083 49.974,78.86 
				49.974,85.614 56.728,85.614 61.506,90.391 66.283,85.614 73.037,85.614 			"/>
			<polygon opacity="0.2" fill-rule="evenodd" clip-rule="evenodd" fill="#FFFFFF" points="69.697,77.476 73.089,74.083 
				69.697,70.69 69.697,65.892 64.897,65.892 61.506,62.5 58.114,65.892 53.316,65.892 53.316,70.69 49.922,74.083 53.316,77.476 
				53.316,82.273 58.114,82.273 61.506,85.666 64.9,82.274 69.697,82.274 			"/>
		</g>
		<g>
			<rect x="202.572" y="193.878" fill-rule="evenodd" clip-rule="evenodd" fill="#E7B933" width="17.45" height="47.593"/>
			
				<rect x="205.018" y="199.029" opacity="0.2" fill-rule="evenodd" clip-rule="evenodd" fill="#FFFFFF" width="12.559" height="37.289"/>
		</g>
		<g>
			<g>
				
					<rect x="105.166" y="212.192" transform="matrix(0.7071 0.7071 -0.7071 0.7071 188.9019 -9.3102)" fill="#9E4128" width="1.047" height="22.355"/>
				<polygon fill="#CB2E2B" points="112.755,216.303 122.45,225.997 117.136,225.822 116.961,231.487 107.266,221.792 				"/>
			</g>
			<g>
				
					<rect x="83.657" y="217.089" transform="matrix(0.7071 0.7071 -0.7071 0.7071 181.4056 3.0546)" fill="#484848" width="6.717" height="6.828"/>
				
					<rect x="101.177" y="234.61" transform="matrix(0.7071 0.7071 -0.7071 0.7071 198.9247 -4.2029)" fill="#484848" width="6.717" height="6.828"/>
				
					<rect x="92.417" y="225.85" transform="matrix(0.7071 0.7071 -0.7071 0.7071 190.1667 -0.5736)" fill="#484848" width="6.717" height="6.828"/>
			</g>
			
				<rect x="72.061" y="228.699" transform="matrix(0.7071 0.7071 -0.7071 0.7071 195.6334 12.0771)" fill="#AA8230" width="22.355" height="26.98"/>
			
				<rect x="76.875" y="229.499" transform="matrix(0.7071 0.7071 -0.7071 0.7071 191.472 2.5797)" fill="#E7B933" width="31.494" height="5.836"/>
			
				<rect x="58.82" y="249.775" transform="matrix(0.7071 0.7071 -0.7071 0.7071 199.1866 21.6441)" fill="#E7B933" width="29.293" height="2.973"/>
		</g>
		<path fill="#CB2E2B" d="M47.587,144.835v-3.647h3.558v-3.647h-3.647v3.647H43.94v3.647h-3.469h-0.089h-3.469h-0.089h-3.47h-0.088
			h-3.469v-3.647h-3.558v-3.647h-3.647v3.647h3.558v3.647h3.559v3.647h-3.469h-0.089h-3.558v3.647v3.647v3.647h3.558v3.647h3.559
			v3.647h3.558h0.088h3.47h0.089h3.469h0.089h3.558v-3.647h3.558v-3.647h3.558v-3.647v-3.647v-3.647h-3.558h-0.089h-3.469v-3.647
			H47.587z M29.708,152.129h0.089h3.469v3.647h-3.469h-0.089h-3.469v-3.647H29.708z M47.498,152.129v3.647h-3.469H43.94h-3.469
			v-3.647h3.469h0.089H47.498z"/>
		<path fill="#84BA51" d="M196.108,139.148v-3.836h-3.743v-3.837h-3.743h-0.094h-3.743v3.837h-3.649v-3.837h-3.743h-0.094h-3.743
			v3.837h-3.743v3.836h-3.743v3.837v3.837v3.836h3.743v3.836v3.837h0.062v3.837h3.618h0.218h3.618v-3.837h-3.618h-0.062v-3.837
			h3.649h0.094h3.65h0.093h3.649h0.094h3.649h0.094h3.649v3.743h-0.031h-3.743v3.836h3.743h0.093h3.743v-3.743h0.031v-3.837v-3.836
			h3.743v-3.836v-3.837v-3.837H196.108z M196.014,146.822h-3.696h-0.047h-3.649v-3.837h3.649h0.094h3.649V146.822z M169.907,146.822
			v-3.837h3.649h0.094h3.649v3.837h-3.649h-0.094H169.907z"/>
		<path fill="#895299" d="M211.439,89.104v-3.363h-3.281h-0.082h-3.199v-3.363h-3.363v3.363h-3.199v-3.363h-3.363v3.363h-3.199
			h-0.082h-3.281v3.363h-3.281v3.363v3.363v3.363v3.363h3.281v3.363h3.281v3.363h3.363v-3.363h3.199v3.363h3.363v-3.363h3.199v3.363
			h3.363v-3.363h3.281v-3.363h3.281v-3.363V95.83v-3.363v-3.363H211.439z M188.473,92.467h3.199h0.082h3.199v3.363v3.363h-3.199
			h-0.082h-3.199V95.83V92.467z M211.357,99.193h-3.199h-0.082h-3.199V95.83v-3.363h3.199h0.082h3.199v3.363V99.193z"/>
		<path fill="#5FA7D1" d="M124.36,182.239v-3.981h-3.884v-3.981h-3.884h-0.097h-3.884v3.981h-3.786v-3.981h-3.884h-0.097h-3.884
			v3.981h-3.884v3.981h-3.885v3.981v3.981v3.981v3.981v3.981v3.981h3.981v-3.981h3.787v3.981h3.981v-3.981h3.786v3.981h3.981v-3.981
			h3.786v3.981h3.981v-3.981h3.786v3.981h3.982v-3.981v-3.981v-3.981v-3.981v-3.981v-3.981H124.36z M124.263,190.201h-3.883v3.981
			h-3.787v-3.981v-3.981h3.787h0.097h3.786V190.201z M97.173,186.22h3.787h0.097h3.787v3.981h-3.884v3.981h-3.787v-3.981V186.22z"/>
		<g>
			
				<rect x="240.375" y="134.528" transform="matrix(-0.7071 -0.7071 0.7071 -0.7071 327.3906 424.034)" fill="#BCC8A3" width="22.281" height="19.368"/>
			<circle fill="#A32430" cx="243.63" cy="130.288" r="0.548"/>
			<path fill="#434244" d="M272.303,147.915c0.66-0.66,0.66-1.734,0-2.393l-21.796-21.796c-0.66-0.66-1.733-0.66-2.393,0
				l-18.593,18.593c0,0-2.399,1.166,10.313,13.878c12.712,12.712,13.877,10.311,13.877,10.311L272.303,147.915z M243.242,130.676
				c-0.214-0.214-0.214-0.561-0.001-0.774c0.215-0.216,0.563-0.215,0.776-0.002c0.215,0.215,0.215,0.562-0.001,0.777
				C243.804,130.891,243.458,130.891,243.242,130.676z M252.545,158.937l-15.755-15.755l13.695-13.695l15.755,15.755
				L252.545,158.937z"/>
			<path fill="#272525" d="M229.703,187.692c-0.211-0.008-0.395,0.159-0.403,0.375c-0.006,0.214,0.164,0.395,0.377,0.401
				c0.213,0.01,0.395-0.159,0.401-0.373C230.086,187.879,229.918,187.699,229.703,187.692z"/>
			<circle fill="#272525" cx="231.111" cy="188.13" r="0.389"/>
			<circle fill="#272525" cx="232.582" cy="186.77" r="0.389"/>
			<circle fill="#272525" cx="231.162" cy="186.718" r="0.389"/>
			<circle fill="#272525" cx="231.211" cy="185.307" r="0.389"/>
			<path fill="#272525" d="M229.806,184.867c-0.215-0.008-0.397,0.162-0.403,0.375c-0.01,0.213,0.159,0.395,0.375,0.403
				c0.213,0.006,0.392-0.162,0.401-0.377C230.187,185.057,230.017,184.875,229.806,184.867z"/>
			<circle fill="#272525" cx="229.741" cy="186.668" r="0.389"/>
			<circle fill="#272525" cx="228.318" cy="186.618" r="0.389"/>
			<path fill="#272525" d="M226.962,184.768c-0.215-0.008-0.395,0.16-0.403,0.375c-0.006,0.213,0.16,0.395,0.375,0.403
				c0.213,0.006,0.397-0.161,0.401-0.377C227.345,184.955,227.176,184.774,226.962,184.768z"/>
			<path fill="#272525" d="M228.384,184.818c-0.215-0.008-0.395,0.159-0.403,0.375c-0.008,0.215,0.159,0.395,0.375,0.403
				c0.214,0.006,0.393-0.162,0.403-0.374C228.765,185.003,228.598,184.824,228.384,184.818z"/>
			<circle fill="#272525" cx="229.84" cy="183.845" r="0.389"/>
			<circle fill="#272525" cx="228.419" cy="183.794" r="0.388"/>
			<circle fill="#272525" cx="226.998" cy="183.743" r="0.389"/>
			<path fill="#272525" d="M227.062,181.944c-0.215-0.008-0.395,0.16-0.402,0.375c-0.006,0.213,0.161,0.393,0.376,0.401
				c0.214,0.01,0.395-0.16,0.401-0.373C227.445,182.131,227.278,181.952,227.062,181.944z"/>
			<circle fill="#272525" cx="228.47" cy="182.382" r="0.389"/>
			<path fill="#272525" d="M228.532,180.582c-0.211-0.008-0.393,0.162-0.398,0.375c-0.01,0.213,0.159,0.395,0.373,0.4
				c0.216,0.008,0.395-0.16,0.403-0.375C228.915,180.769,228.747,180.589,228.532,180.582z"/>
			<path fill="#272525" d="M229.954,180.632c-0.214-0.006-0.393,0.162-0.401,0.377c-0.01,0.214,0.16,0.395,0.375,0.403
				c0.213,0.006,0.393-0.161,0.401-0.377C230.337,180.819,230.169,180.64,229.954,180.632z"/>
			<circle fill="#272525" cx="229.891" cy="182.433" r="0.388"/>
			<circle fill="#272525" cx="231.312" cy="182.484" r="0.389"/>
			<circle fill="#272525" cx="231.262" cy="183.894" r="0.389"/>
			<path fill="#272525" d="M232.696,183.557c-0.215-0.008-0.395,0.16-0.402,0.375c-0.006,0.213,0.162,0.393,0.377,0.4
				c0.213,0.01,0.395-0.159,0.401-0.372C233.079,183.744,232.912,183.565,232.696,183.557z"/>
			<circle fill="#272525" cx="232.632" cy="185.356" r="0.389"/>
			<path fill="#272525" d="M234.066,185.019c-0.211-0.008-0.393,0.162-0.401,0.377c-0.008,0.211,0.161,0.393,0.374,0.399
				c0.216,0.008,0.395-0.159,0.403-0.374C234.449,185.206,234.281,185.027,234.066,185.019z"/>
			<circle fill="#272525" cx="234.104" cy="183.996" r="0.389"/>
			<path fill="#272525" d="M234.17,182.195c-0.217-0.006-0.397,0.162-0.403,0.375c-0.008,0.216,0.16,0.395,0.375,0.403
				c0.213,0.006,0.395-0.16,0.403-0.375C234.551,182.384,234.381,182.203,234.17,182.195z"/>
			<circle fill="#272525" cx="232.734" cy="182.534" r="0.389"/>
			<path fill="#272525" d="M232.796,180.733c-0.213-0.005-0.393,0.162-0.403,0.375c-0.006,0.213,0.164,0.395,0.377,0.401
				c0.213,0.01,0.395-0.159,0.401-0.372C233.179,180.921,233.011,180.741,232.796,180.733z"/>
			<circle fill="#272525" cx="231.362" cy="181.07" r="0.389"/>
			<circle fill="#272525" cx="231.412" cy="179.66" r="0.389"/>
			<circle fill="#272525" cx="229.992" cy="179.609" r="0.389"/>
			<path fill="#272525" d="M224.645,156.297c0.463-0.463,0.465-1.215,0.002-1.677c-0.231-0.231-0.534-0.346-0.839-0.349
				c-0.305,0.002-0.608,0.118-0.839,0.349c-0.232,0.232-0.347,0.534-0.347,0.838c0.002,0.305,0.118,0.608,0.349,0.839
				C223.432,156.759,224.182,156.759,224.645,156.297z"/>
			<path fill="#7A1D27" d="M240.933,162.461c0.504-0.504,0.502-1.32,0-1.823l-5.947-5.947c-0.251-0.251-0.583-0.379-0.912-0.377
				c-0.329-0.002-0.66,0.125-0.911,0.376c-0.505,0.505-0.505,1.319,0,1.824l5.947,5.947
				C239.612,162.964,240.428,162.966,240.933,162.461z"/>
			<circle fill="#434244" cx="242.857" cy="172.83" r="2.538"/>
			<circle fill="#434244" cx="236.049" cy="169.28" r="2.538"/>
			<path fill="#434244" d="M228.408,157.484l-2.025-2.025l2.026-2.026c0.219-0.219,0.222-0.577,0-0.798l-1.779-1.779
				c-0.221-0.221-0.578-0.219-0.798,0.001l-2.026,2.026l-2.026-2.026c-0.22-0.22-0.576-0.222-0.798,0l-1.779,1.779
				c-0.222,0.222-0.22,0.579,0,0.798l2.026,2.026l-2.026,2.026c-0.22,0.219-0.222,0.576,0,0.797l1.779,1.779
				c0.221,0.221,0.578,0.219,0.798,0l2.026-2.026l2.025,2.025c0.221,0.221,0.576,0.222,0.798,0l1.779-1.779
				C228.63,158.06,228.629,157.705,228.408,157.484z M222.621,155.457c0-0.303,0.116-0.606,0.347-0.838
				c0.231-0.231,0.534-0.347,0.839-0.349c0.305,0.002,0.608,0.118,0.839,0.349c0.463,0.463,0.461,1.215-0.002,1.677
				c-0.463,0.463-1.213,0.462-1.675,0C222.738,156.065,222.623,155.762,222.621,155.457z"/>
			<path fill="#CB2E2B" d="M233.988,190.876l42.924-42.924c0.662-0.662,0.662-1.731,0-2.393l-26.58-26.58
				c-0.662-0.662-1.731-0.662-2.394,0l-42.924,42.924c0,0-4.745,4.569,9.83,19.144C229.421,195.623,233.988,190.876,233.988,190.876
				z M226.63,160.06c-0.222,0.222-0.577,0.221-0.798,0l-2.025-2.025l-2.026,2.026c-0.22,0.219-0.577,0.221-0.798,0l-1.779-1.779
				c-0.221-0.221-0.219-0.578,0-0.797l2.026-2.026l-2.026-2.026c-0.22-0.22-0.222-0.576,0-0.798l1.779-1.779
				c0.221-0.221,0.578-0.219,0.798,0l2.026,2.026l2.026-2.026c0.219-0.219,0.576-0.222,0.798-0.001l1.779,1.779
				c0.221,0.221,0.219,0.579,0,0.798l-2.026,2.026l2.025,2.025c0.221,0.221,0.222,0.576,0,0.798L226.63,160.06z M233.163,156.515
				c-0.505-0.505-0.505-1.319,0-1.824c0.251-0.251,0.582-0.379,0.911-0.376c0.329-0.002,0.66,0.126,0.912,0.377l5.947,5.947
				c0.503,0.503,0.505,1.318,0,1.823c-0.505,0.505-1.321,0.503-1.823,0L233.163,156.515z M234.254,171.075
				c-0.991-0.991-0.991-2.599,0-3.59c0.991-0.991,2.599-0.991,3.59,0c0.991,0.991,0.991,2.599,0,3.59
				C236.852,172.066,235.245,172.066,234.254,171.075z M227.036,182.72c-0.215-0.008-0.383-0.188-0.376-0.401
				c0.007-0.215,0.187-0.383,0.402-0.375c0.216,0.008,0.383,0.187,0.375,0.403C227.431,182.56,227.249,182.73,227.036,182.72z
				 M228.506,181.357c-0.213-0.006-0.383-0.187-0.373-0.4c0.005-0.214,0.187-0.383,0.398-0.375c0.215,0.008,0.384,0.187,0.378,0.401
				C228.901,181.198,228.722,181.366,228.506,181.357z M229.978,179.998c-0.216-0.008-0.384-0.188-0.376-0.403
				c0.006-0.214,0.188-0.383,0.403-0.375c0.215,0.008,0.381,0.189,0.374,0.402C230.373,179.838,230.193,180.005,229.978,179.998z
				 M226.985,184.132c-0.214-0.007-0.384-0.188-0.375-0.403c0.008-0.216,0.19-0.381,0.403-0.375
				c0.216,0.008,0.383,0.187,0.375,0.403C227.379,183.972,227.2,184.139,226.985,184.132z M228.456,182.771
				c-0.216-0.008-0.383-0.187-0.375-0.403c0.008-0.215,0.188-0.382,0.403-0.375c0.216,0.008,0.383,0.188,0.376,0.403
				C228.851,182.611,228.671,182.78,228.456,182.771z M229.928,181.411c-0.215-0.007-0.385-0.189-0.375-0.403
				c0.008-0.215,0.187-0.383,0.401-0.377c0.215,0.008,0.383,0.187,0.375,0.403C230.321,181.25,230.141,181.417,229.928,181.411z
				 M231.426,179.271c0.215,0.008,0.383,0.187,0.375,0.403c-0.006,0.214-0.188,0.383-0.403,0.375
				c-0.213-0.01-0.381-0.189-0.375-0.403C231.031,179.431,231.21,179.263,231.426,179.271z M226.935,185.545
				c-0.216-0.008-0.381-0.19-0.375-0.403c0.008-0.215,0.188-0.383,0.403-0.375c0.214,0.006,0.383,0.188,0.373,0.401
				C227.331,185.384,227.148,185.551,226.935,185.545z M228.406,184.181c-0.213-0.006-0.383-0.187-0.375-0.403
				c0.006-0.214,0.186-0.381,0.401-0.373c0.215,0.008,0.383,0.187,0.375,0.403C228.801,184.022,228.622,184.189,228.406,184.181z
				 M229.878,182.821c-0.216-0.008-0.383-0.187-0.375-0.403c0.006-0.213,0.187-0.383,0.401-0.373
				c0.216,0.008,0.383,0.188,0.377,0.401C230.273,182.662,230.093,182.829,229.878,182.821z M231.348,181.459
				c-0.213-0.006-0.381-0.186-0.373-0.401c0.008-0.215,0.187-0.383,0.401-0.377c0.216,0.008,0.383,0.187,0.375,0.403
				C231.743,181.3,231.563,181.467,231.348,181.459z M241.062,174.624c-0.991-0.991-0.993-2.596,0.001-3.589
				c0.991-0.991,2.598-0.991,3.589-0.001c0.993,0.993,0.991,2.599,0,3.59C243.659,175.618,242.055,175.618,241.062,174.624z
				 M234.142,182.973c-0.215-0.008-0.383-0.188-0.375-0.403c0.006-0.213,0.186-0.381,0.403-0.375
				c0.211,0.008,0.381,0.189,0.375,0.403C234.537,182.813,234.355,182.979,234.142,182.973z M232.77,181.509
				c-0.213-0.006-0.383-0.187-0.377-0.401c0.01-0.214,0.19-0.381,0.403-0.375c0.215,0.008,0.383,0.188,0.376,0.403
				C233.165,181.35,232.983,181.519,232.77,181.509z M228.356,185.595c-0.216-0.008-0.383-0.187-0.375-0.403
				c0.008-0.216,0.188-0.383,0.403-0.375c0.214,0.006,0.381,0.185,0.375,0.403C228.749,185.434,228.57,185.601,228.356,185.595z
				 M229.826,184.234c-0.215-0.008-0.383-0.188-0.375-0.403c0.008-0.216,0.187-0.383,0.403-0.375
				c0.215,0.008,0.382,0.187,0.375,0.403C230.221,184.074,230.042,184.242,229.826,184.234z M231.298,182.873
				c-0.214-0.01-0.381-0.19-0.375-0.403c0.008-0.215,0.187-0.383,0.403-0.374c0.215,0.008,0.383,0.187,0.375,0.403
				C231.695,182.712,231.513,182.881,231.298,182.873z M228.304,187.007c-0.213-0.01-0.38-0.189-0.375-0.403
				c0.008-0.215,0.187-0.383,0.402-0.375c0.216,0.008,0.383,0.187,0.375,0.403C228.701,186.846,228.52,187.016,228.304,187.007z
				 M229.779,185.645c-0.216-0.008-0.385-0.189-0.375-0.403c0.006-0.214,0.188-0.383,0.403-0.375
				c0.211,0.008,0.381,0.189,0.373,0.401C230.171,185.484,229.992,185.651,229.779,185.645z M231.248,184.283
				c-0.215-0.008-0.383-0.187-0.375-0.403c0.008-0.216,0.187-0.383,0.403-0.375c0.216,0.008,0.381,0.19,0.375,0.403
				C231.643,184.124,231.464,184.291,231.248,184.283z M232.72,182.923c-0.216-0.008-0.383-0.187-0.375-0.403
				c0.008-0.216,0.188-0.383,0.403-0.375c0.215,0.008,0.383,0.188,0.375,0.403C233.115,182.763,232.933,182.929,232.72,182.923z
				 M229.727,187.057c-0.216-0.008-0.383-0.187-0.375-0.403c0.007-0.216,0.187-0.383,0.403-0.375
				c0.215,0.008,0.383,0.187,0.375,0.403C230.121,186.897,229.942,187.065,229.727,187.057z M231.196,185.695
				c-0.213-0.006-0.383-0.188-0.373-0.401c0.008-0.215,0.187-0.383,0.403-0.375c0.213,0.006,0.381,0.186,0.373,0.401
				C231.591,185.536,231.412,185.703,231.196,185.695z M232.67,184.333c-0.215-0.008-0.383-0.187-0.377-0.4
				c0.008-0.216,0.187-0.383,0.402-0.375c0.216,0.008,0.383,0.187,0.376,0.403C233.065,184.174,232.883,184.343,232.67,184.333z
				 M229.676,188.467c-0.213-0.006-0.383-0.187-0.377-0.401c0.008-0.216,0.191-0.383,0.403-0.375
				c0.215,0.007,0.383,0.187,0.375,0.403C230.072,188.308,229.89,188.477,229.676,188.467z M231.148,187.107
				c-0.215-0.008-0.383-0.187-0.375-0.403c0.006-0.213,0.187-0.383,0.403-0.375c0.213,0.01,0.381,0.189,0.375,0.403
				C231.543,186.947,231.364,187.115,231.148,187.107z M232.618,185.745c-0.214-0.006-0.383-0.187-0.373-0.401
				c0.008-0.216,0.188-0.383,0.401-0.377c0.215,0.009,0.383,0.188,0.375,0.403C233.013,185.586,232.834,185.753,232.618,185.745z
				 M234.09,184.385c-0.216-0.008-0.383-0.187-0.375-0.403c0.007-0.215,0.187-0.383,0.403-0.375
				c0.216,0.008,0.383,0.187,0.375,0.403C234.485,184.225,234.306,184.393,234.09,184.385z M231.097,188.519
				c-0.213-0.006-0.381-0.19-0.375-0.403c0.008-0.215,0.189-0.381,0.403-0.375c0.215,0.008,0.383,0.187,0.375,0.402
				C231.491,188.359,231.312,188.527,231.097,188.519z M232.568,187.159c-0.215-0.008-0.381-0.19-0.375-0.403
				c0.008-0.215,0.187-0.383,0.403-0.375c0.216,0.008,0.383,0.188,0.375,0.403C232.966,186.998,232.784,187.167,232.568,187.159z
				 M234.04,185.795c-0.213-0.006-0.383-0.187-0.374-0.399c0.008-0.215,0.19-0.385,0.401-0.377c0.215,0.008,0.383,0.187,0.377,0.401
				C234.435,185.635,234.256,185.802,234.04,185.795z M239.834,156.197c-12.712-12.712-10.313-13.878-10.313-13.878l18.593-18.593
				c0.66-0.66,1.733-0.66,2.393,0l21.796,21.796c0.66,0.66,0.66,1.734,0,2.393l-18.593,18.593
				C253.71,166.508,252.546,168.909,239.834,156.197z"/>
		</g>
		<path fill-rule="evenodd" clip-rule="evenodd" fill="#E7B933" d="M178.871,102.069c-2.68-4.275-7.43-7.118-12.848-7.118
			c-8.371,0-15.157,6.786-15.157,15.157c0,8.371,6.786,15.157,15.157,15.157c4.951,0,9.346-2.373,12.111-6.044l-12.388-9.01
			L178.871,102.069z"/>
		<path fill-rule="evenodd" clip-rule="evenodd" fill="#E7B933" d="M173.893,193.334c2.208,3.521,6.121,5.864,10.584,5.864
			c6.896,0,12.486-5.59,12.486-12.486c0-6.896-5.59-12.486-12.486-12.486c-4.078,0-7.699,1.955-9.977,4.979l10.205,7.422
			L173.893,193.334z"/>
		<g>
			<rect x="139.902" y="134.116" fill-rule="evenodd" clip-rule="evenodd" fill="#CB2E2B" width="6.54" height="6.54"/>
			<rect x="139.902" y="123.339" fill-rule="evenodd" clip-rule="evenodd" fill="#CB2E2B" width="6.54" height="6.54"/>
			<rect x="139.902" y="144.893" fill-rule="evenodd" clip-rule="evenodd" fill="#CB2E2B" width="6.54" height="6.54"/>
			<rect x="139.902" y="155.671" fill-rule="evenodd" clip-rule="evenodd" fill="#CB2E2B" width="6.54" height="6.54"/>
			<rect x="139.902" y="166.448" fill-rule="evenodd" clip-rule="evenodd" fill="#CB2E2B" width="6.54" height="6.54"/>
		</g>
		<g>
			<rect x="82.813" y="40.315" fill-rule="evenodd" clip-rule="evenodd" fill="#895299" width="6.54" height="6.54"/>
			<rect x="82.813" y="29.538" fill-rule="evenodd" clip-rule="evenodd" fill="#895299" width="6.54" height="6.54"/>
			<rect x="82.813" y="51.092" fill-rule="evenodd" clip-rule="evenodd" fill="#895299" width="6.54" height="6.54"/>
			<rect x="82.813" y="61.869" fill-rule="evenodd" clip-rule="evenodd" fill="#895299" width="6.54" height="6.54"/>
			<rect x="82.813" y="72.647" fill-rule="evenodd" clip-rule="evenodd" fill="#895299" width="6.54" height="6.54"/>
		</g>
		<g>
			<rect x="186.98" y="229.904" fill-rule="evenodd" clip-rule="evenodd" fill="#84BA51" width="6.54" height="6.54"/>
			<rect x="186.98" y="219.127" fill-rule="evenodd" clip-rule="evenodd" fill="#84BA51" width="6.54" height="6.54"/>
			<rect x="186.98" y="240.681" fill-rule="evenodd" clip-rule="evenodd" fill="#84BA51" width="6.54" height="6.54"/>
			<rect x="186.98" y="251.458" fill-rule="evenodd" clip-rule="evenodd" fill="#84BA51" width="6.54" height="6.54"/>
			<rect x="186.98" y="262.235" fill-rule="evenodd" clip-rule="evenodd" fill="#84BA51" width="6.54" height="6.54"/>
		</g>
		<g>
			<circle fill="#E7B933" cx="146.712" cy="36.379" r="2.901"/>
			<circle fill="#CB2E2B" cx="140.593" cy="43.592" r="2.901"/>
			<circle fill="#84BA51" cx="152.831" cy="43.592" r="2.901"/>
			<circle fill="#D56C2F" cx="146.712" cy="49.394" r="2.901"/>
		</g>
		<g>
			<circle fill="#E7B933" cx="56.802" cy="216.126" r="2.901"/>
			<circle fill="#CB2E2B" cx="50.683" cy="223.339" r="2.901"/>
			<circle fill="#84BA51" cx="62.922" cy="223.339" r="2.901"/>
			<circle fill="#D56C2F" cx="56.802" cy="229.141" r="2.901"/>
		</g>
		<path fill="#434244" d="M233.17,115.08h-5.648v-5.653c0-0.612-0.496-1.113-1.112-1.113h-4.962c-0.617,0-1.112,0.502-1.112,1.113
			v5.653h-5.653c-0.612,0-1.113,0.495-1.113,1.112v4.963c0,0.619,0.501,1.114,1.113,1.114h5.653v5.652
			c0,0.612,0.494,1.113,1.112,1.113h4.962c0.617,0,1.112-0.501,1.112-1.113v-5.652h5.648c0.616,0,1.113-0.495,1.113-1.114v-4.963
			C234.283,115.575,233.786,115.08,233.17,115.08z M222.27,120.327c-0.422-0.423-0.684-1.007-0.684-1.653
			c0-0.645,0.262-1.229,0.684-1.658c0.429-0.423,1.013-0.685,1.657-0.685c1.291,0,2.337,1.051,2.337,2.342
			c0,1.291-1.046,2.337-2.337,2.337C223.283,121.01,222.699,120.749,222.27,120.327z"/>
		<path fill="#434244" d="M152.676,225.016h-5.648v-5.653c0-0.612-0.496-1.113-1.112-1.113h-4.962c-0.617,0-1.112,0.502-1.112,1.113
			v5.653h-5.653c-0.612,0-1.113,0.495-1.113,1.112v4.963c0,0.619,0.501,1.114,1.113,1.114h5.653v5.652
			c0,0.612,0.494,1.113,1.112,1.113h4.962c0.617,0,1.112-0.501,1.112-1.113v-5.652h5.648c0.616,0,1.113-0.495,1.113-1.114v-4.963
			C153.789,225.511,153.292,225.016,152.676,225.016z M141.776,230.262c-0.422-0.423-0.684-1.007-0.684-1.653
			c0-0.645,0.262-1.229,0.684-1.658c0.429-0.423,1.013-0.684,1.657-0.684c1.291,0,2.337,1.051,2.337,2.342
			c0,1.291-1.046,2.337-2.337,2.337C142.789,230.946,142.205,230.684,141.776,230.262z"/>
	</g>
</g>
</svg>
