<?xml version="1.0" encoding="utf-8"?>
<!-- Generator: Adobe Illustrator 18.0.0, SVG Export Plug-In . SVG Version: 6.00 Build 0)  -->
<!DOCTYPE svg PUBLIC "-//W3C//DTD SVG 1.1//EN" "http://www.w3.org/Graphics/SVG/1.1/DTD/svg11.dtd">
<svg version="1.1" id="Capa_1" xmlns="http://www.w3.org/2000/svg" xmlns:xlink="http://www.w3.org/1999/xlink" x="0px" y="0px"
	 viewBox="0 0 300 300" enable-background="new 0 0 300 300" xml:space="preserve">
<g>
	<path fill="#424243" d="M251.128,66.482H48.874c-2.153,0-3.898,1.742-3.898,3.896v125.136c0,2.151,1.745,3.895,3.898,3.895h90.027
		v30.86H98.567v3.248h102.866v-3.248h-40.334v-30.86h90.029c2.151,0,3.896-1.745,3.896-3.895V70.378
		C255.024,68.225,253.279,66.482,251.128,66.482z"/>
	<rect x="53.874" y="76.71" fill="#E4E4E5" width="192.255" height="108.991"/>
	<rect x="58.486" y="89.9" fill="#6D6E6F" width="25.594" height="79.18"/>
	<rect x="88.42" y="89.9" fill="#6D6E6F" width="105.502" height="79.18"/>
	<rect x="61.056" y="95.464" fill="#E4E4E5" width="20.958" height="1.897"/>
	<rect x="93.948" y="95.464" fill="#E4E4E5" width="5.585" height="1.897"/>
	<rect x="90.099" y="95.464" fill="#E4E4E5" width="1.377" height="1.897"/>
	<rect x="93.948" y="99.939" fill="#E4E4E5" width="24.289" height="1.897"/>
	<rect x="90.099" y="99.939" fill="#E4E4E5" width="1.377" height="1.897"/>
	<rect x="93.948" y="104.414" fill="#E4E4E5" width="19.742" height="1.897"/>
	<rect x="90.099" y="104.414" fill="#E4E4E5" width="1.377" height="1.897"/>
	<rect x="93.948" y="108.889" fill="#E4E4E5" width="29.665" height="1.897"/>
	<rect x="90.099" y="108.889" fill="#E4E4E5" width="1.377" height="1.897"/>
	<rect x="93.948" y="113.364" fill="#E4E4E5" width="37.321" height="1.897"/>
	<rect x="90.099" y="113.364" fill="#E4E4E5" width="1.377" height="1.897"/>
	<rect x="90.099" y="117.839" fill="#E4E4E5" width="1.377" height="1.897"/>
	<rect x="90.099" y="122.314" fill="#E4E4E5" width="1.377" height="1.897"/>
	<rect x="93.948" y="126.789" fill="#E4E4E5" width="46.675" height="1.897"/>
	<rect x="90.099" y="126.789" fill="#E4E4E5" width="1.377" height="1.897"/>
	<rect x="93.948" y="131.264" fill="#E4E4E5" width="32.393" height="1.897"/>
	<rect x="90.099" y="131.264" fill="#E4E4E5" width="1.377" height="1.897"/>
	<rect x="93.948" y="135.739" fill="#E4E4E5" width="25.829" height="1.897"/>
	<rect x="90.099" y="135.739" fill="#E4E4E5" width="1.377" height="1.897"/>
	<rect x="93.948" y="140.214" fill="#E4E4E5" width="36.79" height="1.897"/>
	<rect x="90.099" y="140.214" fill="#E4E4E5" width="1.377" height="1.897"/>
	<rect x="93.948" y="144.689" fill="#E4E4E5" width="30.642" height="1.897"/>
	<rect x="90.099" y="144.689" fill="#E4E4E5" width="1.377" height="1.897"/>
	<rect x="93.948" y="149.165" fill="#E4E4E5" width="61.529" height="1.897"/>
	<rect x="90.099" y="149.165" fill="#E4E4E5" width="1.377" height="1.897"/>
	<rect x="93.948" y="153.64" fill="#E4E4E5" width="11.171" height="1.897"/>
	<rect x="90.099" y="153.64" fill="#E4E4E5" width="1.377" height="1.897"/>
	<rect x="93.948" y="158.115" fill="#E4E4E5" width="23.337" height="1.897"/>
	<rect x="90.099" y="158.115" fill="#E4E4E5" width="1.377" height="1.897"/>
	<rect x="93.948" y="162.59" fill="#E4E4E5" width="1.728" height="1.897"/>
	<rect x="90.099" y="162.59" fill="#E4E4E5" width="1.377" height="1.897"/>
	<rect x="61.056" y="99.939" fill="#E4E4E5" width="20.958" height="1.897"/>
	<rect x="61.056" y="104.414" fill="#E4E4E5" width="20.958" height="1.897"/>
	<rect x="61.056" y="108.889" fill="#E4E4E5" width="20.958" height="1.897"/>
	<rect x="61.056" y="113.364" fill="#E4E4E5" width="20.958" height="1.897"/>
	<rect x="61.056" y="117.839" fill="#E4E4E5" width="20.958" height="1.897"/>
	<rect x="61.056" y="122.314" fill="#E4E4E5" width="20.958" height="1.897"/>
	<rect x="61.056" y="126.789" fill="#E4E4E5" width="20.958" height="1.897"/>
	<rect x="61.056" y="131.264" fill="#E4E4E5" width="20.958" height="1.897"/>
	<rect x="61.056" y="135.739" fill="#E4E4E5" width="20.958" height="1.897"/>
	<rect x="61.056" y="140.214" fill="#E4E4E5" width="20.958" height="1.897"/>
	<rect x="61.056" y="144.689" fill="#E4E4E5" width="20.958" height="1.897"/>
	<rect x="61.056" y="149.165" fill="#E4E4E5" width="20.958" height="1.897"/>
	<rect x="61.056" y="153.64" fill="#E4E4E5" width="20.958" height="1.897"/>
	<rect x="61.056" y="158.115" fill="#E4E4E5" width="20.958" height="1.897"/>
	<rect x="61.056" y="162.59" fill="#E4E4E5" width="20.958" height="1.897"/>
	<rect x="150" y="106.927" fill="#424243" width="80.881" height="43.519"/>
	<rect x="160.854" y="118.258" fill="#E4E4E5" width="5.583" height="1.895"/>
	<rect x="160.854" y="122.733" fill="#E4E4E5" width="24.287" height="1.895"/>
	<rect x="150" y="109.833" fill="#E4E4E5" width="80.881" height="1.895"/>
	<rect x="160.854" y="127.208" fill="#E4E4E5" width="19.742" height="1.895"/>
	<rect x="160.854" y="131.683" fill="#E4E4E5" width="29.663" height="1.895"/>
	<rect x="160.854" y="136.158" fill="#E4E4E5" width="37.321" height="1.895"/>
</g>
</svg>
