<?xml version="1.0" encoding="utf-8"?>
<!-- Generator: Adobe Illustrator 18.0.0, SVG Export Plug-In . SVG Version: 6.00 Build 0)  -->
<!DOCTYPE svg PUBLIC "-//W3C//DTD SVG 1.1//EN" "http://www.w3.org/Graphics/SVG/1.1/DTD/svg11.dtd">
<svg version="1.1" id="Capa_1" xmlns="http://www.w3.org/2000/svg" xmlns:xlink="http://www.w3.org/1999/xlink" x="0px" y="0px"
	 viewBox="0 0 300 300" enable-background="new 0 0 300 300" xml:space="preserve">
<g id="Design">
	<g>
		<g>
			<path fill="none" stroke="#A8BFC3" stroke-miterlimit="10" d="M210.939,55.46c0.393,0.31,0.784,0.622,1.172,0.937"/>
			<path fill="none" stroke="#A8BFC3" stroke-miterlimit="10" stroke-dasharray="2.992,2.992" d="M214.409,58.312
				c41.761,35.763,51.515,97.82,20.644,145.089c-33.559,51.385-102.422,65.836-153.807,32.276
				c-49.137-32.091-64.5-96.46-36.409-146.962"/>
			<path fill="none" stroke="#A8BFC3" stroke-miterlimit="10" d="M45.573,87.413c0.249-0.433,0.5-0.865,0.755-1.296"/>
			<g>
				<polygon fill="#A8BFC3" points="208.453,62.327 202.799,49.564 216.68,51.048 				"/>
			</g>
			<g>
				<circle fill="#A8BFC3" cx="46.203" cy="86.35" r="5.264"/>
			</g>
		</g>
	</g>
	<g>
		<g>
			<path fill="none" stroke="#A8BFC3" stroke-miterlimit="10" d="M53.292,180.48c-0.197-0.46-0.39-0.922-0.58-1.384"/>
			<path fill="none" stroke="#A8BFC3" stroke-miterlimit="10" stroke-dasharray="2.9995,2.9995" d="M51.618,176.304
				c-16.428-43.939,1.279-94.47,43.525-117.959c44.201-24.576,99.374-10.713,126.991,30.598"/>
			<path fill="none" stroke="#A8BFC3" stroke-miterlimit="10" d="M222.959,90.197c0.271,0.419,0.539,0.841,0.805,1.266"/>
			<g>
				<polygon fill="#A8BFC3" points="58.768,175.604 57.685,189.521 46.173,181.624 				"/>
			</g>
			<g>
				<circle fill="#A8BFC3" cx="223.617" cy="91.242" r="5.264"/>
			</g>
		</g>
	</g>
	<g>
		<g>
			<path fill="none" stroke="#A8BFC3" stroke-miterlimit="10" stroke-dasharray="3,3" d="M253.597,86.315
				c30.125,59.581,8.023,132.831-50.846,165.563c-57.378,31.903-129.019,13.826-164.753-39.916"/>
			<g>
				<circle fill="#A8BFC3" cx="253.694" cy="86.56" r="5.264"/>
			</g>
			<g>
				<polygon fill="#A8BFC3" points="45.041,209.991 32.737,203.397 33.177,217.35 				"/>
			</g>
		</g>
	</g>
	<circle fill="#68A3DE" cx="40.63" cy="119.388" r="23.995"/>
	<path fill="#D0E8F0" d="M164.709,244.42c-0.427-0.089-0.713-0.248-1.034-0.475c-0.884-0.624-1.89-1.396-2.636-2.379
		c-0.774-1.026-1.163-2.146-1.191-3.424c-0.02-0.936,0.326-1.77,0.921-2.233c0.284-0.221,0.62-0.358,0.997-0.406
		c0.206-0.02,0.39-0.029,0.558-0.025c0.276,0.005,0.525,0.043,0.761,0.113c0.66,0.177,1.17,0.593,1.762,1.076l0.09,0.074l0.098-0.07
		c0.62-0.458,1.158-0.854,1.823-1.003c0.241-0.062,0.494-0.088,0.768-0.083c0.171,0.004,0.352,0.019,0.563,0.048
		c0.368,0.063,0.698,0.211,0.966,0.443c0.567,0.487,0.858,1.336,0.783,2.269c-0.106,1.277-0.562,2.378-1.396,3.37
		c-0.806,0.953-1.855,1.683-2.777,2.271C165.43,244.201,165.136,244.349,164.709,244.42z"/>
	<g>
		<polygon fill="#D0E8F0" points="105.129,33.428 110.499,38.805 110.499,45.976 106.917,45.976 106.917,40.598 103.336,40.598 
			103.336,45.976 99.749,45.976 99.749,38.805 		"/>
		<path fill="#D0E8F0" d="M112.297,39.604c-0.206,0-0.408-0.077-0.561-0.235l-6.607-6.605l-6.613,6.605
			c-0.311,0.312-0.815,0.312-1.126,0c-0.312-0.31-0.312-0.815,0-1.126l7.173-7.174c0.307-0.307,0.816-0.307,1.122,0l7.169,7.174
			c0.316,0.311,0.316,0.817,0,1.126C112.705,39.526,112.499,39.604,112.297,39.604z"/>
	</g>
	<path fill="#D0E8F0" d="M275.872,163.952c-3.181,0-5.768,2.587-5.768,5.769c0,1.496,0.573,2.862,1.509,3.889l-3.467,3.467
		c-0.139,0.138-0.203,0.317-0.203,0.498c0,0.18,0.064,0.358,0.203,0.495c0.275,0.275,0.717,0.275,0.995,0l3.543-3.542
		c0.915,0.609,2.014,0.965,3.189,0.965c3.184,0,5.776-2.587,5.776-5.771C281.648,166.539,279.056,163.952,275.872,163.952z
		 M275.872,164.972c2.619,0,4.753,2.131,4.753,4.749c0,2.619-2.134,4.749-4.753,4.749c-2.615,0-4.749-2.129-4.749-4.749
		C271.123,167.104,273.257,164.972,275.872,164.972z"/>
	<g>
		<path fill="#D0E8F0" d="M209.139,203.23c0.203,1.055,0.991,1.804,1.849,1.806c0.868-0.002,1.66-0.764,1.859-1.828
			c0.094-0.057,0.18-0.226,0.203-0.431c0.024-0.264-0.062-0.489-0.189-0.503c-0.014,0-0.019,0-0.029,0
			c-0.189-0.822-0.854-1.477-1.708-1.536c0.176-0.116,0.318-0.133,0.343-0.135c-0.219,0.016-0.399,0.059-0.546,0.118
			c-0.119-0.037-0.261-0.066-0.422-0.082c0.023,0.002,0.138,0.019,0.285,0.105c-0.019,0.002-0.029,0.007-0.048,0.007
			c-0.179-0.014-0.403,0.007-0.663,0.088c0.023-0.003,0.146-0.038,0.326-0.007c-0.635,0.216-1.109,0.784-1.256,1.469
			c-0.029-0.016-0.062-0.026-0.085-0.026c-0.133,0.015-0.218,0.239-0.195,0.503C208.887,203.03,209.015,203.23,209.139,203.23z"/>
		<path fill="#D0E8F0" d="M216.706,207.479c-0.298-0.263-0.743-0.237-1.009,0.062l-0.91,1.017l-0.546-1.458l-0.298-0.773
			c-0.062-0.175-0.195-0.31-0.361-0.402l0.004-0.003c-0.275-0.165-0.616-0.265-0.986-0.265h-0.521
			c0.038,0.192,0.057,0.396,0.057,0.611c0,0.718-0.209,1.352-0.518,1.731l-0.251-1.425c0-0.031-0.019-0.059-0.033-0.083
			c0.019-0.007,0.042-0.028,0.053-0.047l0.246-0.732c0.014-0.031-0.004-0.055-0.042-0.055h-1.266c-0.033,0-0.052,0.023-0.047,0.055
			l0.256,0.732c0.005,0.019,0.024,0.04,0.047,0.047c-0.019,0.024-0.033,0.052-0.033,0.083l-0.251,1.425
			c-0.309-0.379-0.512-1.013-0.512-1.731c0-0.216,0.019-0.42,0.047-0.611h-0.517c-0.375,0-0.716,0.1-0.991,0.268
			c0.004,0,0.004,0,0.004,0c-0.161,0.094-0.294,0.227-0.36,0.402l-0.294,0.773l-1.807,4.783c-0.152,0.403,0.1,0.832,0.559,0.963
			c0.465,0.133,0.958-0.085,1.11-0.484l1.095-2.897v1.748c0,0.005,0,0.014,0,0.021c0,0.01,0,0.021,0,0.029v8.699
			c0,0.623,0.455,1.131,1.02,1.131c0.564,0,1.025-0.508,1.025-1.131v-6.978h0.511v6.978c0,0.623,0.45,1.131,1.015,1.131
			c0.564,0,1.023-0.508,1.023-1.131v-8.699c0-0.007,0-0.019,0-0.029c0-0.007,0-0.016,0-0.021v-1.897l0.385,0.984
			c0.09,0.211,0.123,0.254,0.242,0.398c0.246,0.309,0.745,0.237,1.01-0.059l0.498-0.564l1.408-1.579
			C217.034,208.195,217.005,207.741,216.706,207.479z"/>
	</g>
	<path fill="#D0E8F0" d="M29.698,191.396c0.256-0.327,0.409-0.729,0.409-1.165c0.003-1.088-0.929-1.973-2.083-1.978
		c-0.607,0-1.154,0.243-1.537,0.634c-0.657-1.526-2.242-2.609-4.096-2.614c-1.994-0.003-3.681,1.236-4.241,2.947
		c-0.195-0.037-0.399-0.053-0.605-0.053c-1.988-0.005-3.604,1.511-3.61,3.386c0,0.132,0.011,0.253,0.024,0.383
		c-0.974,0.325-1.674,1.165-1.677,2.152c0,0.771,0.423,1.458,1.077,1.88l18.2,0.037c0.692-0.592,1.125-1.439,1.125-2.387
		C32.687,192.97,31.385,191.607,29.698,191.396z"/>
	<g>
		<path fill="#D0E8F0" d="M251.465,71.925c1.067-0.816,1.6-1.793,1.6-2.936c0-1.144-0.534-2.121-1.6-2.926
			c-1.064-0.808-2.345-1.22-3.856-1.22c-1.5,0-2.783,0.412-3.844,1.22c-1.067,0.806-1.6,1.783-1.6,2.926
			c0,1.101,0.497,2.036,1.482,2.83c0.008,0.096,0.013,0.191,0.013,0.275c0,0.594-0.161,1.067-0.486,1.442
			c-0.32,0.385-0.737,0.602-1.244,0.668c0.298,0.491,0.657,0.74,1.072,0.74c0.66,0,1.238-0.195,1.727-0.61
			c0.489-0.401,0.755-0.901,0.798-1.518c0.663,0.216,1.357,0.319,2.083,0.319C249.12,73.134,250.401,72.73,251.465,71.925z"/>
		<path fill="#D0E8F0" d="M254.079,76.192c-0.219-0.264-0.332-0.602-0.332-1.004c0-0.058,0.003-0.124,0.008-0.19
			c0.679-0.544,1.019-1.199,1.019-1.949c0-0.792-0.367-1.463-1.101-2.018c-0.262-0.206-0.544-0.364-0.848-0.485
			c-0.013,0.026-0.031,0.063-0.05,0.092c-0.275,0.496-0.687,0.966-1.231,1.379c-0.538,0.412-1.146,0.731-1.801,0.929
			c-0.655,0.211-1.368,0.309-2.134,0.309c-0.11,0-0.227,0-0.338-0.011c0.058,0.705,0.423,1.315,1.093,1.819
			c0.729,0.563,1.616,0.845,2.657,0.845c0.502,0,0.982-0.074,1.436-0.219c0.032,0.417,0.211,0.774,0.55,1.046
			c0.34,0.28,0.736,0.42,1.188,0.42c0.29,0,0.538-0.166,0.745-0.515C254.589,76.604,254.301,76.446,254.079,76.192z"/>
		<path fill="#D0E8F0" d="M256.9,70.797c-0.32-0.383-0.481-0.861-0.481-1.452c0-0.084,0-0.169,0.008-0.272
			c0.988-0.786,1.482-1.745,1.482-2.833c0-1.143-0.534-2.118-1.6-2.926c-1.061-0.805-2.345-1.209-3.845-1.209
			c-1.511,0-2.794,0.404-3.856,1.209c-0.56,0.423-0.969,0.901-1.236,1.416c0.079-0.008,0.159-0.008,0.237-0.008
			c0.766,0,1.479,0.103,2.134,0.309c0.655,0.206,1.262,0.515,1.801,0.93c0.544,0.412,0.956,0.871,1.231,1.368
			c0.274,0.507,0.415,1.069,0.415,1.661c0,0.489-0.098,0.956-0.283,1.389c0.566-0.039,1.115-0.142,1.643-0.312
			c0.042,0.621,0.304,1.125,0.795,1.529c0.493,0.404,1.067,0.602,1.724,0.602c0.423,0,0.776-0.241,1.075-0.742
			C257.636,71.389,257.221,71.175,256.9,70.797z"/>
	</g>
	<circle fill="#C23A3A" cx="245.538" cy="199.882" r="23.995"/>
	<circle fill="#EEBD64" cx="82.548" cy="246.771" r="17.852"/>
	<circle fill="#CADADE" cx="246.202" cy="107.622" r="11.966"/>
	<g>
		<g>
			<rect x="223.753" y="142.915" fill="#61AAD8" width="21.583" height="21.579"/>
			<path fill="#DA903D" stroke="#F0F0F0" stroke-miterlimit="10" d="M223.753,142.915l21.583,21.579L223.753,142.915z"/>
			<path fill="#DA903D" stroke="#F0F0F0" stroke-miterlimit="10" d="M245.336,142.915l-21.583,21.579L245.336,142.915z"/>
		</g>
		<path fill="#EEBD64" d="M239,155.77c0-0.803,1.223-0.77,0.423-0.77h-0.282C238.338,155,239,154.967,239,155.77v3.438l0,0v-5.327
			c0-0.803-2.154-1.881-2.953-1.881h-0.282c-0.803,0-1.764,1.078-1.764,1.881v5.327l0,0v-6.744c0-0.799-0.531-2.464-1.33-2.464
			h-0.287c-0.799,0-2.383,1.665-2.383,2.464v7.373l0,0v-5.484c0-0.799,0.092-2.353-0.708-2.353h-0.286
			c-0.799,0,0.994,1.554,0.994,2.353v4.855l0,0v4.197c-2-1.331-4.179-1.587-5.529-0.562l1.676,3.349
			c2.299,3.38,6.838,4.808,7.459,4.808h1.192c3.351,0,4.203-2.683,4.203-6.039v-5.209l0,0V155.77z"/>
		<path fill="#DFAA5E" d="M239.423,155h-0.282c-0.803,0-0.141-0.132-0.141,0.672v-1.889c0-0.803-2.154-1.782-2.953-1.782h-0.282
			c-0.803,0-1.764,0.979-1.764,1.782v-1.417c0-0.611,0-1.111-2-1.313v20.059c0,0.012,1.479-0.111,1.606-0.111h1.192
			c3.351,0,4.203-2.782,4.203-6.138v-5.209v-3.981C239,154.868,240.223,155,239.423,155z"/>
	</g>
	<g>
		<g>
			<g>
				<path fill="#4E5A71" d="M50.723,134.463c0,0.472-0.38,0.851-0.847,0.851H28.893c-0.472,0-0.852-0.379-0.852-0.851v-26.795
					c0-0.467,0.38-0.852,0.852-0.852h20.983c0.467,0,0.847,0.384,0.847,0.852V134.463z"/>
				<rect x="29.956" y="109.44" fill="#FFFFFF" width="18.856" height="23.112"/>
				<path fill="#ECEFF0" d="M39.738,108.093c0,0.197-0.162,0.355-0.355,0.355c-0.196,0-0.353-0.158-0.353-0.355
					c0-0.193,0.157-0.355,0.353-0.355C39.576,107.738,39.738,107.9,39.738,108.093z"/>
				<path fill="#ECEFF0" d="M40.092,133.824c0,0.393-0.319,0.712-0.708,0.712c-0.393,0-0.708-0.319-0.708-0.712
					c0-0.39,0.315-0.705,0.708-0.705C39.773,133.119,40.092,133.434,40.092,133.824z"/>
				<path fill="#354050" d="M39.738,133.824c0,0.195-0.162,0.355-0.355,0.355c-0.196,0-0.353-0.16-0.353-0.355
					c0-0.192,0.157-0.35,0.353-0.35C39.576,133.474,39.738,133.632,39.738,133.824z"/>
			</g>
		</g>
	</g>
	<g>
		<g>
			<g>
				<defs>
					<path id="SVGID_1_" d="M132.501,264.746h-1.152c-4.636,0-8.396-3.758-8.396-8.394v-9.063c0-4.635,3.76-8.396,8.396-8.396h1.152
						c4.636,0,8.39,3.761,8.39,8.396v9.063C140.891,260.988,137.137,264.746,132.501,264.746z"/>
				</defs>
				<use xlink:href="#SVGID_1_"  overflow="visible" fill="#E1E4E7"/>
				<clipPath id="SVGID_2_">
					<use xlink:href="#SVGID_1_"  overflow="visible"/>
				</clipPath>
				<path clip-path="url(#SVGID_2_)" fill="#EBEFF1" d="M124.469,261.427h-1.88c-7.532,0-13.644-5.919-13.644-13.214V233.94
					c0-7.29,6.111-13.205,13.644-13.205h1.88c7.534,0,13.645,5.915,13.645,13.205v14.273
					C138.114,255.507,132.003,261.427,124.469,261.427z"/>
				<rect x="122.347" y="238.893" clip-path="url(#SVGID_2_)" fill="#D25F52" width="9.79" height="7.541"/>
			</g>
		</g>
		<g>
			<g>
				<path fill="#EEBD64" d="M134.052,262.584c0,0.817-1.14,1.01-1.955,1.01l0,0c-0.815,0-1.947-0.193-1.947-1.01l0.472-11.158
					c0-0.816,0.66-1.477,1.475-1.477l0,0c0.823,0,1.483,0.661,1.483,1.477L134.052,262.584z"/>
				<path fill="#EEBD64" d="M133.121,271.034c0.297,0.359-0.518,1.152-1.152,1.671l0,0c-0.634,0.514-1.577,1.141-1.873,0.783
					l-3.625-5.217c-0.289-0.362-2.21-2.014-1.577-2.491c0,0,0.102-0.169,0.498-0.386c0.849-0.707,2.481,0.047,2.77,0.404
					L133.121,271.034z"/>
				<path fill="#EEBD64" d="M138.276,263.091c0,0.404-1.125,0.503-1.947,0.503l0,0c-0.817,0-1.947-0.099-1.947-0.503l0.706-5.579
					c0-0.412,0.424-0.74,1.24-0.74l0,0c0.821,0,1.247,0.328,1.247,0.74L138.276,263.091z"/>
				<path fill="#ECB52B" d="M142.515,263.219c0,0.302-1.139,0.375-1.947,0.375l0,0c-0.823,0-1.955-0.074-1.955-0.375l0.708-4.086
					c0-0.302,0.424-0.545,1.247-0.545l0,0c0.808,0,1.239,0.243,1.239,0.545L142.515,263.219z"/>
				<path fill="#ECB52B" d="M145.991,263.366c0,0.181-0.849,0.228-1.665,0.228l0,0c-0.822,0-1.718-0.047-1.718-0.228l0.708-2.513
					c0.101-0.189,0.188-0.337,1.01-0.337l0,0c0.816,0,0.904,0.149,1.004,0.337L145.991,263.366z"/>
				<path fill="#EEBD64" d="M146.038,273.117c0,1.664-1.415,3.026-3.153,3.026h-9.582c-1.738,0-3.153-1.362-3.153-3.026v-11.797
					c0-1.672,1.415,1.009,3.153,1.009h5.822c0.781,0,2.162,0.31,3.483,0.284c1.632-0.036,3.166-0.339,3.383,0.585L146.038,273.117z"
					/>
			</g>
			<g>
				<path fill="#DFAA5E" d="M145.991,263.366L145.991,263.366L145.991,263.366v-0.169c-0.021-0.089-0.061-0.167-0.102-0.235
					l-0.559-2.11c-0.1-0.189-0.187-0.337-1.004-0.337c-0.822,0-0.909,0.149-1.01,0.337l-0.493,1.752c-0.073,0-0.141,0-0.215,0.008
					c-0.066,0-0.134-0.008-0.202-0.008l-0.6-3.472c0-0.302-0.431-0.545-1.239-0.545c-0.823,0-1.247,0.243-1.247,0.545l-0.553,3.196
					h-0.472v13.814h4.59c1.738,0,3.153-1.362,3.153-3.026L145.991,263.366z"/>
			</g>
			<path fill="#FFFFFF" d="M145.525,275.522c0,0.378-0.128,0.685-0.862,0.685h-13.241c-0.734,0-0.619-0.307-0.619-0.685l0,0
				c0-0.391-0.115-0.702,0.619-0.702h13.241C145.398,274.82,145.525,275.13,145.525,275.522L145.525,275.522z"/>
			<path fill="#61A1D5" d="M145.525,276.424c0,0.97-0.128,3.18-0.862,3.18h-13.241c-0.734,0-0.619-2.21-0.619-3.18l0,0
				c0-0.971-0.115-0.337,0.619-0.337h13.241C145.398,276.088,145.525,275.454,145.525,276.424L145.525,276.424z"/>
		</g>
	</g>
	<g>
		<polygon fill="#606C74" points="201.458,273.215 199.542,274.283 193.82,264.003 195.742,262.934 		"/>
		<polygon fill="#606C74" points="200.506,273.743 199.542,274.283 193.82,264.003 194.791,263.465 		"/>
		<g>
			<path opacity="0.5" fill="#B8E5ED" d="M195.123,264.482c-3.792,2.108-8.577,0.742-10.682-3.047
				c-2.111-3.79-0.75-8.574,3.043-10.682c3.794-2.108,8.571-0.747,10.682,3.047C200.278,257.59,198.91,262.373,195.123,264.482z"/>
			<path fill="#6A7887" d="M199.835,260.05c-0.652,2.278-2.151,4.167-4.224,5.321c-4.275,2.376-9.685,0.835-12.063-3.441
				c-1.153-2.072-1.427-4.467-0.775-6.745c0.645-2.281,2.144-4.168,4.216-5.321c4.276-2.377,9.691-0.835,12.064,3.44
				C200.207,255.376,200.487,257.772,199.835,260.05z M184.728,255.743c-0.502,1.756-0.287,3.603,0.599,5.198
				c1.831,3.293,6.003,4.483,9.3,2.652c1.597-0.887,2.751-2.343,3.253-4.099c0.495-1.757,0.286-3.603-0.6-5.198
				c-1.838-3.294-6.009-4.484-9.301-2.653C186.384,252.529,185.229,253.986,184.728,255.743z"/>
		</g>
		<g>
			<path fill="#E06E45" d="M195.103,268.085l4.543,8.169c0.515,0.926,1.675,1.255,2.601,0.743l0.045-0.025l-5.475-9.842
				L195.103,268.085z"/>
			<path fill="#BD3008" d="M196.817,267.131l5.475,9.842l0.046-0.027c0.926-0.515,1.258-1.678,0.743-2.6l-4.549-8.17
				L196.817,267.131z"/>
		</g>
	</g>
	<g>
		<path fill="#CF4C3C" d="M96.525,86.978c0,5.265-4.271,9.542-9.546,9.542c-5.27,0-9.546-4.276-9.546-9.542
			c0-5.275,4.276-9.55,9.546-9.55C92.253,77.427,96.525,81.703,96.525,86.978z"/>
		<polygon fill="#FFFFFF" points="92.088,86.978 88.084,88.912 84.087,90.838 84.087,86.978 84.087,83.109 88.084,85.043 		"/>
	</g>
	<g>
		<path fill="#7CCF8E" d="M81.025,198.933c0,6.089-4.939,11.029-11.023,11.029c-6.094,0-11.028-4.939-11.028-11.029
			c0-6.089,4.934-11.029,11.028-11.029C76.085,187.905,81.025,192.844,81.025,198.933z"/>
		<g>
			<path fill="#7CCFBA" d="M70.001,211.49c-6.929,0-12.557-5.639-12.557-12.557c0-6.924,5.628-12.557,12.557-12.557
				c6.919,0,12.547,5.633,12.547,12.557C82.548,205.852,76.92,211.49,70.001,211.49z M70.001,187.059
				c-6.549,0-11.879,5.324-11.879,11.874c0,6.55,5.33,11.874,11.879,11.874c6.55,0,11.874-5.324,11.874-11.874
				C81.876,192.383,76.551,187.059,70.001,187.059z"/>
		</g>
		<g>
			<defs>
				<path id="SVGID_3_" d="M81.025,198.933c0,6.089-4.939,11.029-11.023,11.029c-6.094,0-11.028-4.939-11.028-11.029
					c0-6.089,4.934-11.029,11.028-11.029C76.085,187.905,81.025,192.844,81.025,198.933z"/>
			</defs>
			<clipPath id="SVGID_4_">
				<use xlink:href="#SVGID_3_"  overflow="visible"/>
			</clipPath>
			<g clip-path="url(#SVGID_4_)">
				<linearGradient id="SVGID_5_" gradientUnits="userSpaceOnUse" x1="66.5695" y1="206.1392" x2="73.1625" y2="206.1392">
					<stop  offset="0.5096" style="stop-color:#FDFBE2"/>
					<stop  offset="0.5096" style="stop-color:#FDFBE2"/>
				</linearGradient>
				<polygon fill="url(#SVGID_5_)" points="73.163,204.843 71.932,208.801 67.215,208.801 66.57,204.843 68.95,203.477 
					71.184,203.477 				"/>
				<path fill="#FBF4E2" d="M74.014,197.859c0,2.234-1.811,6.03-4.05,6.03s-4.051-3.796-4.051-6.03c0-2.234,1.811-4.055,4.051-4.055
					S74.014,195.625,74.014,197.859z"/>
				<path fill="#4E5A71" d="M66.163,199.085c0,0-2.521-1.063-1.865-3.752c0.661-2.689,2.635-2.689,2.635-2.689
					c0.553-1.236,1.773-1.941,2.033-1.941c0.374,1.334,1.241,1.35,1.643,1.42c0.195,0.033,0.38-0.005,0.548-0.103
					c1.008-0.591,1.881,0.233,1.881,0.233s2.906,0.168,2.408,3.687c-0.493,3.513-0.738,2.082-1.329,2.635
					c-0.591,0.548-1.523-2.472-1.692-2.472c-0.71,1.865-3.844,0.163-3.844,0.326C66.661,197.035,66.163,199.085,66.163,199.085z"/>
				<path fill="#5888CC" d="M72.897,212.488h-5.661c-1.611,0-2.917-1.301-2.917-2.906v-2.217c0-1.611,1.307-2.912,2.917-2.912
					l2.76,3.053l2.608-3.053h0.293c1.605,0,2.912,1.302,2.912,2.912v2.217C75.809,211.187,74.502,212.488,72.897,212.488z"/>
				<g>
					<polygon fill="#FFFFFF" points="69.883,209.311 65.913,204.724 66.445,204.534 69.861,208.302 					"/>
				</g>
				<g>
					<polygon fill="#FFFFFF" points="69.883,209.311 69.883,208.302 73.331,204.496 74.003,204.702 					"/>
				</g>
			</g>
		</g>
	</g>
	<circle fill="#CBE367" cx="144.853" cy="44.392" r="23.995"/>
	<g>
		<path fill="#E5E5E6" d="M109.719,81.681L109.719,81.681c0-4.074-3.308-7.382-7.39-7.382l0,0c4.081,0,7.39-3.308,7.39-7.382l0,0
			c0,4.074,3.301,7.382,7.375,7.382l0,0C113.02,74.299,109.719,77.607,109.719,81.681z"/>
		<path fill="#A2C2C9" d="M102.33,82.425L102.33,82.425c0-2.446-1.978-4.431-4.431-4.431l0,0c2.453,0,4.431-1.985,4.431-4.431l0,0
			c0,2.446,1.985,4.431,4.431,4.431l0,0C104.314,77.994,102.33,79.979,102.33,82.425z"/>
	</g>
	<g>
		<path fill="#FFFFFF" d="M211.736,99.835L211.736,99.835c0-4.074-3.308-7.382-7.39-7.382l0,0c4.081,0,7.39-3.308,7.39-7.382l0,0
			c0,4.074,3.301,7.382,7.375,7.382l0,0C215.036,92.453,211.736,95.761,211.736,99.835z"/>
		<path fill="#A2C2C9" d="M204.346,100.578L204.346,100.578c0-2.446-1.977-4.431-4.431-4.431l0,0c2.453,0,4.431-1.985,4.431-4.431
			l0,0c0,2.446,1.985,4.431,4.431,4.431l0,0C206.331,96.148,204.346,98.133,204.346,100.578z"/>
	</g>
	<g>
		<path fill="#FFFFFF" d="M111.142,225.2L111.142,225.2c0-4.074-3.308-7.382-7.39-7.382l0,0c4.081,0,7.39-3.308,7.39-7.382l0,0
			c0,4.074,3.301,7.382,7.375,7.382l0,0C114.442,217.817,111.142,221.126,111.142,225.2z"/>
		<path fill="#A2C2C9" d="M103.752,225.943L103.752,225.943c0-2.446-1.978-4.431-4.431-4.431l0,0c2.453,0,4.431-1.985,4.431-4.431
			l0,0c0,2.446,1.985,4.431,4.431,4.431l0,0C105.737,221.512,103.752,223.497,103.752,225.943z"/>
	</g>
	<g>
		<path fill="#EBB731" d="M185.67,224.411L185.67,224.411c0-4.074-3.308-7.382-7.39-7.382l0,0c4.081,0,7.39-3.308,7.39-7.382l0,0
			c0,4.074,3.301,7.382,7.375,7.382l0,0C188.971,217.029,185.67,220.338,185.67,224.411z"/>
		<path fill="#61AAD8" d="M178.28,225.155L178.28,225.155c0-2.446-1.978-4.431-4.431-4.431l0,0c2.453,0,4.431-1.985,4.431-4.431l0,0
			c0,2.446,1.985,4.431,4.431,4.431l0,0C180.265,220.724,178.28,222.709,178.28,225.155z"/>
	</g>
	<g>
		<g>
			<path fill="#364457" d="M253.401,233.495c0,0-5.398-2.333-11.437-0.208c0,3.736,0,15.887,0,15.887h11.437h11.928
				c0,0,0-12.151,0-15.887C259.289,231.162,253.401,233.495,253.401,233.495z"/>
			<path fill="#A4B8CD" d="M253.414,233.24c0,0-5.117-2.274-10.842-0.198c0,3.649,0,15.512,0,15.512h10.842h11.307
				c0,0,0-11.863,0-15.512C258.996,230.966,253.414,233.24,253.414,233.24z"/>
			<path fill="#F1FCFF" d="M253.414,233.24c0,0,4.723-2.505,10.448-0.43c0,3.65,0,15.1,0,15.1h-10.448V233.24z"/>
			<path fill="#F1FCFF" d="M253.414,233.24c0,0-4.723-2.505-10.448-0.43c0,3.65,0,15.1,0,15.1h10.448V233.24z"/>
			<path fill="#E0EAF4" d="M254.201,232.896c-0.506,0.193-0.787,0.343-0.787,0.343v14.67h0.787V232.896z"/>
		</g>
		<g>
			<g>
				<g>
					<path fill="#C3D8E3" d="M254.38,235.834v0.394c0,0,3.979-2.042,8.802-0.35c0-0.14,0-0.273,0-0.394
						C258.359,233.793,254.38,235.834,254.38,235.834z"/>
				</g>
				<g>
					<path fill="#C3D8E3" d="M254.38,236.845v0.394c0,0,3.979-2.041,8.802-0.35c0-0.14,0-0.272,0-0.393
						C258.359,234.804,254.38,236.845,254.38,236.845z"/>
				</g>
				<g>
					<path fill="#C3D8E3" d="M254.38,237.857v0.393c0,0,3.979-2.041,8.802-0.349c0-0.141,0-0.273,0-0.394
						C258.359,235.815,254.38,237.857,254.38,237.857z"/>
				</g>
				<g>
					<path fill="#C3D8E3" d="M254.38,238.868v0.394c0,0,3.979-2.042,8.802-0.35c0-0.141,0-0.273,0-0.394
						C258.359,236.827,254.38,238.868,254.38,238.868z"/>
				</g>
				<g>
					<path fill="#C3D8E3" d="M254.38,239.879v0.394c0,0,3.979-2.042,8.802-0.35c0-0.14,0-0.273,0-0.393
						C258.359,237.838,254.38,239.879,254.38,239.879z"/>
				</g>
				<g>
					<path fill="#C3D8E3" d="M254.38,240.89v0.394c0,0,3.979-2.041,8.802-0.349c0-0.141,0-0.274,0-0.394
						C258.359,238.849,254.38,240.89,254.38,240.89z"/>
				</g>
				<g>
					<path fill="#C3D8E3" d="M254.38,241.902v0.393c0,0,3.979-2.041,8.802-0.349c0-0.141,0-0.273,0-0.394
						C258.359,239.86,254.38,241.902,254.38,241.902z"/>
				</g>
				<g>
					<path fill="#C3D8E3" d="M254.38,242.913v0.394c0,0,3.979-2.042,8.802-0.35c0-0.14,0-0.273,0-0.394
						C258.359,240.871,254.38,242.913,254.38,242.913z"/>
				</g>
				<g>
					<path fill="#C3D8E3" d="M254.38,243.924v0.394c0,0,3.979-2.042,8.802-0.35c0-0.14,0-0.273,0-0.393
						C258.359,241.883,254.38,243.924,254.38,243.924z"/>
				</g>
				<g>
					<path fill="#C3D8E3" d="M254.38,244.937v0.393c0,0,3.979-2.041,8.802-0.349c0-0.141,0-0.273,0-0.394
						C258.359,242.894,254.38,244.937,254.38,244.937z"/>
				</g>
				<g>
					<path fill="#C3D8E3" d="M254.38,245.948v0.394c0,0,3.979-2.042,8.802-0.35c0-0.14,0-0.273,0-0.394
						C258.359,243.905,254.38,245.948,254.38,245.948z"/>
				</g>
				<g>
					<path fill="#C3D8E3" d="M254.38,246.959v0.394c0,0,3.979-2.041,8.802-0.35c0-0.14,0-0.273,0-0.393
						C258.359,244.917,254.38,246.959,254.38,246.959z"/>
				</g>
				<g>
					<path fill="#C3D8E3" d="M258.43,233.453c-2.427,0.161-4.049,0.992-4.049,0.992v0.707c0,0,1.622-0.83,4.049-0.992V233.453z"/>
				</g>
			</g>
		</g>
		<g>
			<path fill="#C3D8E3" d="M252.591,235.834v0.394c0,0-3.979-2.042-8.802-0.35c0-0.14,0-0.273,0-0.394
				C248.611,233.793,252.591,235.834,252.591,235.834z"/>
			<path fill="#C3D8E3" d="M252.591,236.845v0.394c0,0-3.979-2.041-8.802-0.35c0-0.14,0-0.272,0-0.393
				C248.611,234.804,252.591,236.845,252.591,236.845z"/>
			<path fill="#C3D8E3" d="M252.591,237.857v0.393c0,0-3.979-2.041-8.802-0.349c0-0.141,0-0.273,0-0.394
				C248.611,235.815,252.591,237.857,252.591,237.857z"/>
			<path fill="#C3D8E3" d="M252.591,238.868v0.394c0,0-3.979-2.042-8.802-0.35c0-0.141,0-0.273,0-0.394
				C248.611,236.827,252.591,238.868,252.591,238.868z"/>
			<path fill="#C3D8E3" d="M252.591,239.879v0.394c0,0-3.979-2.042-8.802-0.35c0-0.14,0-0.273,0-0.393
				C248.611,237.838,252.591,239.879,252.591,239.879z"/>
			<path fill="#C3D8E3" d="M252.591,240.89v0.394c0,0-3.979-2.041-8.802-0.349c0-0.141,0-0.274,0-0.394
				C248.611,238.849,252.591,240.89,252.591,240.89z"/>
			<path fill="#C3D8E3" d="M252.591,241.902v0.393c0,0-3.979-2.041-8.802-0.349c0-0.141,0-0.273,0-0.394
				C248.611,239.86,252.591,241.902,252.591,241.902z"/>
			<path fill="#C3D8E3" d="M252.591,242.913v0.394c0,0-3.979-2.042-8.802-0.35c0-0.14,0-0.273,0-0.394
				C248.611,240.871,252.591,242.913,252.591,242.913z"/>
			<path fill="#C3D8E3" d="M252.591,243.924v0.394c0,0-3.979-2.042-8.802-0.35c0-0.14,0-0.273,0-0.393
				C248.611,241.883,252.591,243.924,252.591,243.924z"/>
			<path fill="#C3D8E3" d="M252.591,244.937v0.393c0,0-3.979-2.041-8.802-0.349c0-0.141,0-0.273,0-0.394
				C248.611,242.894,252.591,244.937,252.591,244.937z"/>
			<path fill="#C3D8E3" d="M252.591,245.948v0.394c0,0-3.979-2.042-8.802-0.35c0-0.14,0-0.273,0-0.394
				C248.611,243.905,252.591,245.948,252.591,245.948z"/>
			<path fill="#C3D8E3" d="M252.591,246.959v0.394c0,0-3.979-2.041-8.802-0.35c0-0.14,0-0.273,0-0.393
				C248.611,244.917,252.591,246.959,252.591,246.959z"/>
			<path fill="#C3D8E3" d="M248.541,233.453c2.427,0.161,4.049,0.992,4.049,0.992v0.707c0,0-1.623-0.83-4.049-0.992V233.453z"/>
		</g>
	</g>
	<g>
		<g>
			<rect x="63.505" y="140.098" fill-rule="evenodd" clip-rule="evenodd" fill="#364457" width="8.329" height="29.818"/>
			<rect x="66.336" y="141.82" fill-rule="evenodd" clip-rule="evenodd" fill="#6EC2D4" width="2.162" height="13.045"/>
			<rect x="63.498" y="156.172" fill-rule="evenodd" clip-rule="evenodd" fill="#EAA940" width="8.315" height="4.496"/>
			<rect x="63.498" y="162.127" fill-rule="evenodd" clip-rule="evenodd" fill="#EAA940" width="8.315" height="4.496"/>
			<rect x="71.834" y="145.183" fill-rule="evenodd" clip-rule="evenodd" fill="#CD5A4B" width="4.38" height="24.732"/>
			<rect x="73.158" y="147.505" fill-rule="evenodd" clip-rule="evenodd" fill="#FDFCF9" width="1.734" height="20.09"/>
			<rect x="76.215" y="142.208" fill-rule="evenodd" clip-rule="evenodd" fill="#8CC9CA" width="4.868" height="27.708"/>
			<path fill-rule="evenodd" clip-rule="evenodd" fill="#FFFFFF" d="M77.331,167.721c0,0.555,0.592,1.007,1.317,1.007
				c0.726,0,1.318-0.452,1.318-1.007c0-0.554-0.591-1.007-1.318-1.007C77.923,166.715,77.331,167.168,77.331,167.721"/>
			<path fill-rule="evenodd" clip-rule="evenodd" fill="#FFFFFF" d="M77.331,165.061c0,0.554,0.592,1.006,1.317,1.006
				c0.726,0,1.318-0.452,1.318-1.006c0-0.555-0.591-1.007-1.318-1.007C77.923,164.053,77.331,164.506,77.331,165.061"/>
			<rect x="78.271" y="142.208" fill-rule="evenodd" clip-rule="evenodd" fill="#FFFFFF" width="0.755" height="19.644"/>
		</g>
		<polygon opacity="0.1" fill-rule="evenodd" clip-rule="evenodd" points="71.834,140.098 63.505,169.916 63.505,140.098 		"/>
		<polygon opacity="0.1" fill-rule="evenodd" clip-rule="evenodd" points="76.27,145.183 71.834,169.916 71.834,145.183 		"/>
		<polygon opacity="0.1" fill-rule="evenodd" clip-rule="evenodd" points="81.082,142.208 76.215,169.916 76.215,142.208 		"/>
	</g>
	<g>
		<g>
			<path fill="#A5A6A9" d="M141.235,55.625c-0.341,1.398-0.684,2.796-1.025,4.194c3.192,0,6.382,0,9.574,0
				c-0.342-1.399-0.684-2.797-1.026-4.194C146.25,55.625,143.744,55.625,141.235,55.625z"/>
			<path fill="#F0F1F1" d="M150.375,59.745h-10.757c-0.272,0-0.494,0.26-0.494,0.581v0.218h11.745v-0.218
				C150.869,60.004,150.647,59.745,150.375,59.745z"/>
			<path fill="#F0F1F1" d="M128.821,53.993v2.311c0,0.445,0.359,0.804,0.806,0.804h30.74c0.444,0,0.804-0.359,0.804-0.804v-2.311
				H128.821z"/>
			<path fill="#223341" d="M161.171,53.993v-19.57c0-0.444-0.36-0.805-0.804-0.805h-30.74c-0.446,0-0.806,0.361-0.806,0.805v19.57
				H161.171z"/>
			<rect x="130.146" y="34.877" fill="#FFFFFF" width="29.701" height="17.781"/>
		</g>
	</g>
	<g id="idea_1_">
		<g>
			<g>
				<path fill="#D0E8F0" d="M197.444,42.512c-0.127,0-0.229-0.102-0.229-0.229c0-1.417-1.154-2.572-2.573-2.572
					c-0.126,0-0.229-0.101-0.229-0.229c0-0.127,0.103-0.229,0.229-0.229c1.672,0,3.032,1.359,3.032,3.03
					C197.674,42.41,197.572,42.512,197.444,42.512z"/>
			</g>
		</g>
		<g>
			<g>
				<g>
					<polygon fill="#D0E8F0" points="195.518,48.284 195.17,48.227 195.854,44.089 196.202,44.146 195.518,48.284 					"/>
				</g>
				<g>
					<polygon fill="#D0E8F0" points="193.768,48.284 193.085,44.146 193.431,44.089 194.115,48.227 193.768,48.284 					"/>
				</g>
			</g>
			<g>
				<path fill="#D0E8F0" d="M196.006,44.67c-0.144,0-0.207-0.14-0.252-0.242c-0.019-0.042-0.058-0.131-0.081-0.131
					c-0.022,0-0.062,0.088-0.08,0.131c-0.046,0.102-0.109,0.242-0.253,0.242c-0.144,0-0.205-0.14-0.251-0.242
					c-0.019-0.042-0.058-0.131-0.08-0.131c-0.023,0-0.062,0.088-0.08,0.131c-0.046,0.102-0.109,0.242-0.252,0.242
					c-0.143,0-0.206-0.14-0.252-0.242c-0.019-0.042-0.058-0.131-0.081-0.131c-0.022,0-0.062,0.088-0.081,0.131
					c-0.045,0.102-0.107,0.242-0.252,0.242c-0.143,0-0.205-0.14-0.251-0.242c-0.02-0.042-0.059-0.131-0.082-0.131
					s-0.062,0.088-0.081,0.131c-0.046,0.102-0.108,0.242-0.252,0.242v-0.187c0.022,0,0.062-0.089,0.08-0.131
					c0.046-0.102,0.108-0.243,0.252-0.243c0.143,0,0.206,0.14,0.252,0.243c0.02,0.042,0.058,0.131,0.08,0.131
					c0.023,0,0.062-0.089,0.082-0.131c0.045-0.102,0.107-0.243,0.251-0.243c0.144,0,0.206,0.141,0.253,0.243
					c0.018,0.042,0.058,0.131,0.08,0.131c0.022,0,0.061-0.089,0.081-0.131c0.045-0.102,0.107-0.243,0.252-0.243
					c0.143,0,0.205,0.141,0.25,0.243c0.02,0.042,0.059,0.131,0.081,0.131c0.023,0,0.063-0.089,0.081-0.131
					c0.045-0.102,0.108-0.243,0.252-0.243c0.144,0,0.206,0.141,0.251,0.243c0.02,0.042,0.059,0.131,0.082,0.131V44.67L196.006,44.67
					z"/>
			</g>
		</g>
		<g>
			<path fill="#D0E8F0" d="M194.641,37.205c-0.126,0-0.23-0.104-0.23-0.23v-2.408c0-0.126,0.104-0.229,0.23-0.229
				c0.128,0,0.23,0.103,0.23,0.229v2.408C194.871,37.101,194.769,37.205,194.641,37.205z"/>
		</g>
		<g>
			<path fill="#D0E8F0" d="M197.392,37.94c-0.038,0-0.079-0.009-0.114-0.03c-0.109-0.064-0.148-0.204-0.084-0.313l1.204-2.087
				c0.063-0.109,0.203-0.148,0.313-0.084c0.11,0.064,0.148,0.204,0.083,0.314l-1.203,2.085
				C197.548,37.9,197.472,37.94,197.392,37.94z"/>
		</g>
		<g>
			<path fill="#D0E8F0" d="M199.407,39.954c-0.078,0-0.156-0.041-0.199-0.115c-0.063-0.109-0.025-0.25,0.085-0.313l2.085-1.205
				c0.11-0.062,0.25-0.025,0.314,0.084c0.063,0.11,0.025,0.251-0.085,0.314l-2.086,1.204
				C199.485,39.944,199.447,39.954,199.407,39.954z"/>
		</g>
		<g>
			<path fill="#D0E8F0" d="M202.63,42.705h-2.485c-0.127,0-0.23-0.102-0.23-0.229c0-0.127,0.103-0.23,0.23-0.23h2.485
				c0.126,0,0.229,0.103,0.229,0.23C202.859,42.602,202.756,42.705,202.63,42.705z"/>
		</g>
		<g>
			<path fill="#D0E8F0" d="M201.495,46.661c-0.039,0-0.079-0.01-0.115-0.031l-2.086-1.203c-0.11-0.064-0.148-0.204-0.084-0.314
				c0.063-0.109,0.203-0.147,0.313-0.083l2.087,1.203c0.109,0.063,0.147,0.204,0.083,0.314
				C201.651,46.619,201.573,46.661,201.495,46.661z"/>
		</g>
		<g>
			<path fill="#D0E8F0" d="M191.891,37.943c-0.08,0-0.157-0.042-0.2-0.116l-1.204-2.085c-0.063-0.11-0.026-0.25,0.084-0.314
				c0.109-0.063,0.25-0.025,0.314,0.084l1.202,2.086c0.064,0.109,0.027,0.251-0.083,0.313
				C191.968,37.934,191.93,37.943,191.891,37.943z"/>
		</g>
		<g>
			<path fill="#D0E8F0" d="M189.877,39.957c-0.039,0-0.079-0.01-0.115-0.03l-2.086-1.204c-0.109-0.064-0.147-0.204-0.084-0.313
				c0.063-0.109,0.204-0.148,0.314-0.084l2.087,1.204c0.109,0.063,0.147,0.204,0.084,0.313
				C190.034,39.917,189.957,39.957,189.877,39.957z"/>
		</g>
		<g>
			<path fill="#D0E8F0" d="M189.141,42.709h-2.408c-0.127,0-0.23-0.104-0.23-0.23c0-0.126,0.103-0.229,0.23-0.229h2.408
				c0.128,0,0.231,0.103,0.231,0.229C189.372,42.605,189.269,42.709,189.141,42.709z"/>
		</g>
		<g>
			<path fill="#D0E8F0" d="M187.792,46.664c-0.079,0-0.156-0.041-0.199-0.115c-0.063-0.11-0.026-0.251,0.085-0.314l2.085-1.204
				c0.11-0.063,0.25-0.026,0.313,0.084c0.064,0.11,0.026,0.25-0.083,0.313l-2.087,1.205
				C187.872,46.653,187.832,46.664,187.792,46.664z"/>
		</g>
		<g>
			<g>
				<path fill="#D0E8F0" d="M196.678,48.354h-0.001h-4.078c-0.211,0-0.383-0.173-0.383-0.383c0-0.016,0.002-0.034,0.003-0.051
					c0.024-0.273-0.001-1.11-0.281-1.483c-1.634-2.105-1.68-4.133-1.68-4.154c0-2.419,1.967-4.386,4.385-4.386
					c2.419,0,4.386,1.967,4.386,4.386c0,0.02-0.046,2.048-1.684,4.158c-0.29,0.385-0.303,1.223-0.288,1.463
					c0.003,0.022,0.005,0.044,0.005,0.066C197.062,48.182,196.891,48.354,196.678,48.354z M192.599,47.588
					c-0.213,0-0.356,0.162-0.379,0.325C192.248,47.73,192.407,47.588,192.599,47.588z M196.743,47.593
					c0.054,0.01,0.104,0.03,0.148,0.059C196.847,47.624,196.798,47.603,196.743,47.593z M192.989,47.588h3.302
					c0.006-0.174,0.022-0.318,0.022-0.322c0.054-0.556,0.199-0.991,0.423-1.29c1.473-1.894,1.527-3.675,1.527-3.693
					c0-1.995-1.624-3.619-3.62-3.619c-1.996,0-3.619,1.624-3.619,3.619c0,0.017,0.054,1.797,1.523,3.688
					c0.229,0.306,0.37,0.74,0.423,1.297C192.969,47.271,192.981,47.416,192.989,47.588z"/>
			</g>
			<g>
				<path fill="#D0E8F0" d="M196.548,49.173h-3.809c-0.211,0-0.383-0.172-0.383-0.382c0-0.212,0.172-0.383,0.383-0.383h3.809
					c0.211,0,0.383,0.171,0.383,0.383C196.931,49.001,196.759,49.173,196.548,49.173z"/>
			</g>
			<g>
				<path fill="#D0E8F0" d="M196.265,49.992h-3.244c-0.211,0-0.384-0.172-0.384-0.382c0-0.212,0.173-0.383,0.384-0.383h3.244
					c0.212,0,0.383,0.172,0.383,0.383C196.648,49.82,196.477,49.992,196.265,49.992z"/>
			</g>
			<g>
				<path fill="#D0E8F0" d="M195.788,50.788h-2.292c-0.211,0-0.383-0.173-0.383-0.382c0-0.212,0.172-0.383,0.383-0.383h2.292
					c0.212,0,0.383,0.17,0.383,0.383C196.172,50.615,196,50.788,195.788,50.788z"/>
			</g>
		</g>
	</g>
	<g>
		<path fill="#D0E8F0" d="M58.223,58.331c-1.663,0-3.011,3.659-3.011,8.172c0,4.511,1.348,8.169,3.011,8.169
			c1.661,0,3.009-3.658,3.009-8.169C61.231,61.989,59.884,58.331,58.223,58.331z M58.223,73.342c-1.392,0-2.521-3.063-2.521-6.84
			c0-3.779,1.128-6.842,2.521-6.842c1.391,0,2.52,3.063,2.52,6.842C60.743,70.279,59.614,73.342,58.223,73.342z"/>
		<path fill="#D0E8F0" d="M66.392,66.502c0-1.663-3.659-3.01-8.17-3.01c-4.514,0-8.171,1.347-8.171,3.01
			c0,1.661,3.658,3.01,8.171,3.01C62.734,69.512,66.392,68.164,66.392,66.502z M51.379,66.502c0-1.393,3.064-2.521,6.844-2.521
			c3.778,0,6.839,1.128,6.839,2.521c0,1.391-3.062,2.52-6.839,2.52C54.443,69.022,51.379,67.893,51.379,66.502z"/>
		<path fill="#D0E8F0" d="M63.999,60.725c-1.176-1.176-4.715,0.458-7.906,3.649c-3.19,3.19-4.825,6.729-3.648,7.904
			c1.176,1.177,4.715-0.457,7.904-3.649C63.539,65.439,65.174,61.9,63.999,60.725z M53.384,71.339
			c-0.985-0.984,0.383-3.948,3.054-6.62c2.672-2.672,5.636-4.039,6.621-3.054c0.983,0.984-0.383,3.948-3.055,6.619
			C57.333,70.955,54.367,72.324,53.384,71.339z"/>
		<path fill="#D0E8F0" d="M63.999,72.278c1.175-1.175-0.46-4.714-3.65-7.905c-3.189-3.19-6.728-4.824-7.904-3.649
			c-1.177,1.175,0.458,4.714,3.648,7.905C59.284,71.82,62.823,73.455,63.999,72.278z M53.384,61.664
			c0.983-0.983,3.949,0.384,6.62,3.055c2.673,2.672,4.039,5.636,3.054,6.62c-0.983,0.984-3.948-0.384-6.62-3.056
			C53.767,65.612,52.4,62.649,53.384,61.664z"/>
		<circle fill="#D0E8F0" cx="58.232" cy="66.502" r="1.261"/>
	</g>
	<g>
		<polygon fill="#D0E8F0" points="16.668,93.223 16.668,87.426 13.422,90.473 13.128,90.189 13.128,93.223 		"/>
		<polygon fill="#D0E8F0" points="20.832,93.223 20.832,88.383 18.273,85.71 17.293,86.629 17.293,93.223 		"/>
		<polygon fill="#D0E8F0" points="24.999,93.223 24.999,86.915 21.985,89.546 21.458,89.002 21.458,93.223 		"/>
		<polygon fill="#D0E8F0" points="29.164,93.223 29.164,83.275 25.624,86.368 25.624,93.223 		"/>
		<path fill="#D0E8F0" d="M29.085,79.948l-6.96,5.997l-3.244-3.166c-0.147-0.143-0.348-0.224-0.558-0.224
			c-0.206,0.002-0.412,0.079-0.558,0.221l-4.624,4.474v1.553l0.298,0.276l4.88-4.723l3.214,3.139
			c0.292,0.286,0.771,0.298,1.082,0.031l6.548-5.644v-1.853L29.085,79.948z"/>
	</g>
	<g>
		<polygon fill="#D0E8F0" points="279.05,116.009 279.179,114.437 275.62,114.437 275.749,116.009 		"/>
		<polygon fill="#D0E8F0" points="279.722,113.946 282.961,113.946 283.639,111.294 279.936,111.294 		"/>
		<polygon fill="#D0E8F0" points="271.969,114.437 272.378,116.009 275.247,116.009 275.118,114.437 		"/>
		<polygon fill="#D0E8F0" points="282.828,114.437 279.681,114.437 279.553,116.009 282.422,116.009 		"/>
		<path fill="#D0E8F0" d="M285.396,106.579c-0.164,0-0.299,0.058-0.408,0.13c-0.064,0.035-0.127,0.087-0.185,0.146
			c-0.679,0.679-1.356,1.363-2.034,2.041c-0.075,0.073-0.127,0.14-0.162,0.237h-2.49l-0.14,1.671h3.795l0.286-1.06
			c0.541-0.541,1.082-1.101,1.623-1.592h1.302c0.982,0,0.982-1.572,0-1.572H285.396z"/>
		<polygon fill="#D0E8F0" points="275.325,110.803 279.476,110.803 279.616,109.132 275.183,109.132 		"/>
		<polygon fill="#D0E8F0" points="275.076,113.946 274.863,111.294 271.16,111.294 271.838,113.946 		"/>
		<polygon fill="#D0E8F0" points="270.584,109.132 271.028,110.803 274.822,110.803 274.682,109.132 		"/>
		<polygon fill="#D0E8F0" points="279.434,111.294 275.365,111.294 275.579,113.946 279.22,113.946 		"/>
		<path fill="#D0E8F0" d="M273.893,116.453c0.73,0,1.322,0.592,1.322,1.323c0,0.73-0.592,1.322-1.322,1.322
			c-0.731,0-1.322-0.591-1.322-1.322C272.571,117.045,273.162,116.453,273.893,116.453"/>
		<path fill="#D0E8F0" d="M280.905,116.453c0.731,0,1.323,0.592,1.323,1.323c0,0.73-0.593,1.322-1.323,1.322
			c-0.729,0-1.322-0.591-1.322-1.322C279.583,117.045,280.176,116.453,280.905,116.453"/>
	</g>
	<path fill="#F0F1F1" d="M255.798,206c0.363,0,0.691-0.181,0.84-0.515l4.883-11.072c0.126-0.287,0.098-0.235-0.07-0.499
		c-0.171-0.26-0.461,0.086-0.772,0.086h-14.831c-0.067,0-0.14-0.041-0.215-0.029c-0.032,0.004-0.059,0.029-0.089,0.029h-4.3
		c-0.072,0-0.149-0.04-0.23-0.027c-0.025,0.004-0.045,0.027-0.068,0.027h-4.437l-4.428-3.989c-0.4-0.318-0.976-0.614-1.289-0.213
		c-0.315,0.4-0.244,0.929,0.155,1.243l4.709,3.707l3.354,10.631c0.053,0.167,0.156,0.309,0.281,0.432l-0.148,3.753
		c-0.879,0.172-1.544,0.948-1.544,1.882c0,1.061,0.856,2.24,1.911,2.24c0.724,0,1.347,1.313,1.671-0.687h12.29
		c0.324,2,0.947,0.686,1.671,0.686c1.055,0,1.911-1.02,1.911-2.081c0-1.061-0.856-2.657-1.911-2.657
		c-1.01,0-1.829,1.052-1.899,1.052h-11.835c-0.053,0-0.542-0.781-1.224-1.04l0.141-2.96H255.798z M257.008,199h-1.437l0.798-2h1.543
		L257.008,199z M256.104,202.075h-1.33l0.398-1.088h1.383L256.104,202.075z M250.838,205l0.105-1h2.449l-0.398,1H250.838z
		 M250.231,200l-0.105,2h-3.027l-0.125-2H250.231z M246.849,200l-0.25-2h3.947l-0.21,2H246.849z M246.173,202h-3.254l-0.179-2h3.309
		L246.173,202z M246.298,204h0.124h-3.146h-0.179H246.298z M247.223,204h2.796l-0.105,1h-2.566L247.223,204z M251.049,202l0.105-1
		h3.035l-0.398,1H251.049z M254.588,200h-3.328l0.21-2h3.916L254.588,200z M251.575,197l0.211-3h4.796l-0.797,3H251.575z
		 M250.652,197h-4.178l-0.25-3h4.638L250.652,197z M245.549,196h-3.525l-0.358-2h3.634L245.549,196z M245.674,198l0.25,2h-3.362
		l-0.358-2H245.674z M241.628,199h-2.366l-0.648-2h2.657L241.628,199z M241.807,201l0.179,1h-2.076l-0.324-1H241.807z M240.235,203
		h1.93l0.179,1h-1.785L240.235,203z M253.977,204.25l0.398-1.088h1.277l-0.451,1.088H253.977z M258.364,196h-1.597l0.797-3h1.703
		L258.364,196z M240.732,194l0.358,2h-2.802l-0.649-2H240.732z"/>
	<path fill="#F0F1F1" d="M238.799,104.059v7.36c0,0.784,0.637,1.42,1.421,1.42h12.008c0.781,0,1.418-0.636,1.418-1.42v-7.36
		c0-0.784-0.638-1.421-1.418-1.421H240.22C239.436,102.638,238.799,103.275,238.799,104.059z M239.703,111.418v-7.345l4.684,3.889
		l-4.681,3.487C239.707,111.438,239.703,111.429,239.703,111.418z M252.738,111.488l-4.677-3.518l4.685-3.874v7.323
		C252.745,111.442,252.745,111.465,252.738,111.488z M240.48,103.542h11.517l-5.314,4.392c-0.242,0.201-0.67,0.201-0.915,0
		L240.48,103.542z M251.83,111.935h-11.261l4.531-3.379l0.089,0.073c0.292,0.241,0.666,0.362,1.037,0.362
		c0.371,0,0.741-0.121,1.033-0.358l0.082-0.068L251.83,111.935z"/>
	<g>
		<path fill="#364457" d="M94.112,252.656c0,0.598-0.489,1.088-1.088,1.088H71.818c-0.598,0-1.088-0.49-1.088-1.088v-10.875
			c0-0.598,0.489-1.088,1.088-1.088h21.206c0.598,0,1.088,0.49,1.088,1.088V252.656z"/>
		<path fill="#46596F" d="M71.206,251.637c8.426,0,15.83-4.36,20.092-10.943h-19.48c-0.598,0-1.088,0.49-1.088,1.088v9.843
			C70.889,251.628,71.046,251.637,71.206,251.637z"/>
		<text transform="matrix(0.9397 0 0 1 72.3594 247.2193)" fill="#E5E5E6" font-family="'BebasNeueRegular'" font-size="6.6798">VISA</text>
		<text transform="matrix(0.9397 0 0 1 77.8985 250.1939)"><tspan x="0" y="0" fill="#E5E5E6" font-family="'BebasNeueRegular'" font-size="1.6422">Lorem ipsum dolor sit amet</tspan><tspan x="0" y="1.971" fill="#E5E5E6" font-family="'BebasNeueRegular'" font-size="1.6422">5656 343 787 888</tspan></text>
	</g>
	<g>
		<g id="Shield">
			<path opacity="0.85" fill="#C4C4C4" d="M147.222,225.603c-20.816-10.279-37.242-27.268-48.375-49.13
				C88.833,156.808,84,133.689,84,109.616v-1.505l1.039-0.121c25.194-2.037,27.025-23.903,27.043-24.12L111.975,82h71.938
				l0.123,1.87c0.076,0.883,1.756,21.903,26.868,23.933l1.096,0.308v1.505c0,24.073-4.89,47.191-14.904,66.858
				c-11.133,21.862-27.818,38.851-48.632,49.13l-0.621,0.357L147.222,225.603z"/>
			<path fill="#CFD1D2" d="M182.394,84.377h-34.466h-34.466c0,0-1.901,23.067-28.767,25.239c0,45.324,19.268,92.814,63.233,114.525
				c43.963-21.711,63.232-69.201,63.232-114.525C184.291,107.444,182.394,84.377,182.394,84.377z"/>
			<path fill="#E5E5E6" d="M148,84h-34.523c0,0-1.873,23.256-28.739,25.427c0,45.324,17.261,93.003,63.261,114.713V84z"/>
			<path fill="#5586C2" d="M147.944,216.013c-17.835-9.623-31.841-24.26-41.668-43.558c-8.526-16.743-13.4-35.513-14.219-55.947
				C108.5,112.845,116.351,102,119.297,93h57.292c2.944,9,10.795,19.845,27.24,23.508c-0.819,20.434-5.693,39.554-14.219,56.298
				C179.783,192.103,165.778,206.39,147.944,216.013z"/>
			<path fill="#68A3DE" d="M148,93h-28.703c-2.946,9-10.797,19.845-27.241,23.508c0.82,20.434,5.722,39.598,14.248,56.342
				C116.131,192.148,132,206.39,148,216.013V93z"/>
		</g>
		<circle fill="#A5A6A9" cx="116.654" cy="88.342" r="1.742"/>
		<circle fill="#A5A6A9" cx="179.729" cy="88.342" r="1.742"/>
		<circle fill="#A5A6A9" cx="206.917" cy="113.355" r="1.742"/>
		<circle fill="#A5A6A9" cx="88.379" cy="113.355" r="1.742"/>
		<circle fill="#A5A6A9" cx="148.192" cy="219.931" r="1.742"/>
		<circle fill="#A5A6A9" cx="194.411" cy="170.993" r="1.742"/>
		<circle fill="#A5A6A9" cx="101.429" cy="170.993" r="1.742"/>
	</g>
</g>
</svg>
