<?xml version="1.0" encoding="utf-8"?>
<!-- Generator: Adobe Illustrator 18.0.0, SVG Export Plug-In . SVG Version: 6.00 Build 0)  -->
<!DOCTYPE svg PUBLIC "-//W3C//DTD SVG 1.1//EN" "http://www.w3.org/Graphics/SVG/1.1/DTD/svg11.dtd">
<svg version="1.1" id="Capa_1" xmlns="http://www.w3.org/2000/svg" xmlns:xlink="http://www.w3.org/1999/xlink" x="0px" y="0px"
	 viewBox="0 0 132.255 280.697" enable-background="new 0 0 132.255 280.697" xml:space="preserve">
<g>
	<g>
		<path fill="#FFFFFF" d="M52.585,200.465c0.079-0.4,0.464-0.66,0.863-0.58l8.044,1.597c0.398,0.079,0.657,0.467,0.579,0.867l0,0
			c-0.078,0.4-0.466,0.66-0.865,0.58l-8.043-1.599C52.765,201.253,52.505,200.864,52.585,200.465L52.585,200.465z"/>
		<path fill="#FFFFFF" d="M59.585,203.619l8.308,1.65c1.011,0.201,1.99-0.456,2.189-1.468c0.199-1.011-0.455-1.992-1.465-2.192
			l-8.308-1.651L59.585,203.619z"/>
		
			<rect x="60.747" y="200.137" transform="matrix(-0.9816 -0.1907 0.1907 -0.9816 82.4143 411.9387)" fill="#322B2A" width="0.561" height="3.733"/>
	</g>
	<g>
		<g>
			<path fill="#848484" d="M18.793,68.517c-3.356-27.016,6.098-44.295,6.501-45.018l2.516,1.412
				c-0.094,0.169-9.389,17.231-6.155,43.249L18.793,68.517z"/>
		</g>
		<g>
			<path fill="#454143" d="M30.097,76.521c0.251,2.307-1.412,4.379-3.716,4.627l-3.102,0.336c-2.302,0.249-4.368-1.419-4.616-3.725
				l-1.334-12.379c-0.248-2.307,1.415-4.378,3.717-4.627l3.102-0.336c2.298-0.249,4.366,1.418,4.616,3.726L30.097,76.521z"/>
			<path fill="#7AA7CB" d="M42.967,79.275c0.411,3.834-2.356,7.277-6.18,7.691l-5.157,0.559c-3.824,0.413-7.259-2.359-7.673-6.192
				L21.74,60.756c-0.415-3.835,2.353-7.278,6.178-7.692l5.154-0.558c3.825-0.414,7.263,2.357,7.677,6.191L42.967,79.275z"/>
			<path fill="#606978" d="M45.871,84.938c0.293,2.739-1.683,5.198-4.415,5.495l-1.155,0.124c-2.731,0.296-5.188-1.684-5.482-4.423
				L31.33,53.739c-0.295-2.739,1.678-5.197,4.412-5.494l1.155-0.125c2.732-0.295,5.186,1.685,5.48,4.423L45.871,84.938z"/>
		</g>
		<g>
			<path fill="#848484" d="M95.655,85.32l-2.451-1.518c13.784-22.36,12.393-41.694,12.377-41.886l2.876-0.235
				C108.522,42.506,109.937,62.162,95.655,85.32z"/>
		</g>
		<g>
			<path fill="#454143" d="M82.053,87.879c-1.186,1.993-0.533,4.572,1.455,5.759l2.681,1.599c1.988,1.187,4.56,0.534,5.746-1.459
				l6.357-10.697c1.184-1.994,0.533-4.571-1.456-5.758l-2.679-1.6c-1.99-1.188-4.563-0.535-5.747,1.459L82.053,87.879z"/>
			<path fill="#7AA7CB" d="M69.208,85.012c-1.968,3.314-0.885,7.598,2.423,9.572l4.454,2.659c3.306,1.973,7.582,0.887,9.55-2.427
				l10.569-17.781c1.969-3.313,0.885-7.598-2.421-9.571l-4.454-2.658c-3.307-1.974-7.582-0.888-9.552,2.425L69.208,85.012z"/>
			<path fill="#606978" d="M64.215,88.949c-1.405,2.367-0.632,5.426,1.73,6.837l0.997,0.594c2.359,1.409,5.417,0.634,6.821-1.733
				l16.638-27.993c1.406-2.368,0.631-5.429-1.729-6.837l-0.997-0.596c-2.362-1.41-5.415-0.633-6.822,1.733L64.215,88.949z"/>
		</g>
		<g>
			<g>
				<path fill="#FFFFFF" d="M27.826,26.582c-0.584-0.13-1.153-0.38-1.665-0.764c-1.913-1.433-2.305-4.149-0.876-6.066
					C33.857,8.258,51.118-2.253,73.864,2.719c17.724,3.875,31.311,16.197,37.275,33.807c0.767,2.267-0.445,4.729-2.708,5.498
					c-2.261,0.767-4.716-0.446-5.485-2.712c-2.35-6.937-10.065-23.563-30.926-28.123C53.287,7.094,39.175,15.607,32.217,24.94
					C31.168,26.345,29.434,26.933,27.826,26.582z"/>
			</g>
		</g>
		<path fill="#535A65" d="M26.161,25.818c0.512,0.384,1.081,0.634,1.665,0.764c1.607,0.351,3.342-0.237,4.391-1.642
			c6.958-9.333,21.07-17.846,39.804-13.751c20.86,4.561,28.576,21.187,30.926,28.123c0.77,2.267,3.225,3.479,5.485,2.712
			c0.486-0.165,0.911-0.42,1.29-0.723c-0.027-0.352-0.082-0.703-0.201-1.051C103.556,22.64,89.97,10.318,72.246,6.442
			c-22.092-4.829-39.008,4.949-47.815,16.046C24.473,23.757,25.067,24.998,26.161,25.818z"/>
		<g>
			<path fill="#848484" d="M92.283,102.065c1.476,0.644,2.942,1.463,4.399,2.456c5.798,3.947,8.747,9.638,8.092,15.617
				c-0.891,8.132-8.344,15.56-20.449,20.376c-6.523,2.598-10.375,7.431-10.563,13.262c-0.187,5.815,3.376,11.63,8.665,14.143
				c3.414,1.62,10.434,3.229,19.009-4.274c5.269-4.61,15.247-4.19,22.716,0.953c7.316,5.041,9.883,12.981,6.861,21.241
				c-7.165,19.59-28.425,25.85-61.481,18.104l0.221-0.937c32.512,7.619,53.384,1.568,60.359-17.498
				c4.12-11.273-3.176-17.823-6.506-20.117c-7.127-4.911-16.586-5.355-21.539-1.02c-6.562,5.745-13.91,7.351-20.052,4.417
				c-5.624-2.671-9.413-8.858-9.213-15.044c0.201-6.232,4.272-11.38,11.169-14.125c11.762-4.682,18.996-11.821,19.848-19.586
				c0.615-5.613-2.182-10.975-7.675-14.715c-5.123-3.489-10.344-4.735-15.513-3.705c-9.314,1.852-15.828,10.438-18.199,14.044
				c-6.916,10.532-17.41,13.226-31.185,8.006c-5.885-2.231-9.852-5.704-11.794-10.331c-3.072-7.317-0.219-15.395,1.152-18.529
				c2.656-6.079,1.795-13.321,1.786-13.393l0.954-0.12c0.038,0.306,0.901,7.578-1.861,13.899
				c-1.319,3.019-4.073,10.796-1.147,17.769c1.837,4.373,5.624,7.671,11.248,9.802c13.299,5.039,23.407,2.469,30.044-7.634
				c2.437-3.706,9.144-12.537,18.814-14.46C84.393,99.881,88.358,100.352,92.283,102.065z"/>
		</g>
	</g>
</g>
<g>
	<g id="ipad_2_">
		<g>
			<g>
				
					<linearGradient id="SVGID_1_" gradientUnits="userSpaceOnUse" x1="191.6022" y1="-158.3387" x2="43.6998" y2="88.8479" gradientTransform="matrix(0.8782 -0.4784 0.4784 0.8782 -27.2905 265.1735)">
					<stop  offset="0" style="stop-color:#272425"/>
					<stop  offset="0.0361" style="stop-color:#2A2627"/>
					<stop  offset="0.3585" style="stop-color:#3E3337"/>
					<stop  offset="0.6806" style="stop-color:#4A3B41"/>
					<stop  offset="1" style="stop-color:#4E3E44"/>
				</linearGradient>
				<path fill="url(#SVGID_1_)" d="M97.382,138.713l-73.395,7.954h0.002l-18,0.852c-3.681,0.351-6.343,3.19-5.989,6.875
					l11.585,120.354c0.35,3.677,3.627,6.269,7.305,5.917l91.4-8.86c3.672-0.354,6.367-3.659,6.018-7.337l-11.602-120.145
					C104.353,140.637,101.052,138.359,97.382,138.713z"/>
				<path fill="#65ADBC" d="M64.268,272.745c-1.479,0.143-2.796-0.945-2.937-2.427c-0.145-1.487,0.941-2.796,2.419-2.938
					c1.479-0.145,2.797,0.934,2.938,2.419C66.831,271.286,65.745,272.604,64.268,272.745z"/>
				<path fill="#38485E" d="M52.653,151.686c-0.832,0.08-1.575-0.53-1.656-1.369c-0.076-0.839,0.533-1.576,1.365-1.654
					c0.839-0.081,1.579,0.524,1.658,1.362C54.102,150.863,53.488,151.604,52.653,151.686z"/>
				<polygon fill="#B0B0B0" points="103.819,259.313 22.875,267.109 12.511,159.07 93.46,151.276 				"/>
				<polygon opacity="0.2" fill="#FFFFFF" points="103.819,259.313 12.511,159.07 93.46,151.276 				"/>
			</g>
		</g>
	</g>
</g>
</svg>
