<?xml version="1.0" encoding="utf-8"?>
<!-- Generator: Adobe Illustrator 18.0.0, SVG Export Plug-In . SVG Version: 6.00 Build 0)  -->
<!DOCTYPE svg PUBLIC "-//W3C//DTD SVG 1.1//EN" "http://www.w3.org/Graphics/SVG/1.1/DTD/svg11.dtd">
<svg version="1.1" id="Capa_1" xmlns="http://www.w3.org/2000/svg" xmlns:xlink="http://www.w3.org/1999/xlink" x="0px" y="0px"
	 viewBox="0 0 350.289 84.167" enable-background="new 0 0 350.289 84.167" xml:space="preserve">
<g>
	<g id="coffee_1_">
		<linearGradient id="SVGID_1_" gradientUnits="userSpaceOnUse" x1="56.3379" y1="44.6167" x2="10.153" y2="38.7466">
			<stop  offset="0" style="stop-color:#FFFFFF"/>
			<stop  offset="1" style="stop-color:#E4E4E4"/>
		</linearGradient>
		<ellipse fill="url(#SVGID_1_)" cx="32.224" cy="41.552" rx="25.218" ry="25.274"/>
		<path fill="#FFFFFF" d="M39.328,15.465c0.673,0.185,1.277,0.628,1.651,1.283c0.369,0.653,0.446,1.398,0.259,2.072l-2.152,7.908
			l-5.26-1.441l2.153-7.906c0.182-0.674,0.626-1.279,1.279-1.655C37.909,15.356,38.651,15.281,39.328,15.465z"/>
		<path fill="#DEDCDA" d="M33.826,25.289l5.26,1.441l0.803-2.948c-1.648-0.715-3.416-1.205-5.261-1.438L33.826,25.289z"/>
		<linearGradient id="SVGID_2_" gradientUnits="userSpaceOnUse" x1="15.1806" y1="41.5525" x2="49.2607" y2="41.5525">
			<stop  offset="0" style="stop-color:#FFFFFF"/>
			<stop  offset="1" style="stop-color:#E4E4E4"/>
		</linearGradient>
		<path fill="url(#SVGID_2_)" d="M32.224,24.475c9.411,0,17.036,7.645,17.036,17.076c0,9.435-7.625,17.079-17.036,17.079
			c-9.413,0-17.044-7.644-17.044-17.079C15.181,32.121,22.811,24.475,32.224,24.475z"/>
		<ellipse fill="#7C4427" cx="32.224" cy="41.551" rx="14.313" ry="14.346"/>
		<path fill="#4A2C1A" d="M36.315,51.799c-7.909,0-14.316-6.42-14.316-14.344c0-2.914,0.868-5.622,2.357-7.885
			c-3.884,2.567-6.448,6.973-6.448,11.982c0,7.923,6.409,14.346,14.317,14.346c4.998,0,9.396-2.57,11.956-6.46
			C41.923,50.929,39.221,51.799,36.315,51.799z"/>
	</g>
</g>
<g id="keyboard_2_">
	<linearGradient id="SVGID_3_" gradientUnits="userSpaceOnUse" x1="177.332" y1="66.5575" x2="177.332" y2="3.2101">
		<stop  offset="0" style="stop-color:#FFFFFF"/>
		<stop  offset="1" style="stop-color:#E4E4E4"/>
	</linearGradient>
	<path fill="url(#SVGID_3_)" d="M278.633,4.679c-0.001-1.349-1.182-2.459-2.62-2.459L78.645,2.221c-1.438,0-2.613,1.109-2.613,2.459
		l0.001,72.678c-0.001,1.351,1.175,2.46,2.613,2.46h197.367c1.438,0,2.619-1.109,2.619-2.46L278.633,4.679z"/>
	<g>
		<path fill="#2C394D" d="M92.119,18.992c0,0.353-0.285,0.64-0.637,0.64H81.73c-0.352,0-0.638-0.287-0.638-0.639l0.001-9.771
			c0-0.354,0.285-0.639,0.638-0.639l9.752,0c0.35,0,0.636,0.285,0.636,0.641V18.992z"/>
		<path fill="#2C394D" d="M112.331,32.447c0,0.357-0.282,0.646-0.639,0.644h-9.75c-0.352,0-0.635-0.287-0.635-0.644v-9.772
			c0-0.348,0.283-0.635,0.634-0.635h9.751c0.357,0,0.639,0.287,0.639,0.635L112.331,32.447z"/>
		<path fill="#2C394D" d="M115.51,45.907c0,0.355-0.285,0.636-0.637,0.636h-9.752c-0.346,0-0.638-0.281-0.639-0.636v-9.776
			c0-0.344,0.291-0.633,0.638-0.633l9.753-0.001c0.351,0.001,0.637,0.291,0.637,0.635V45.907z"/>
		<path fill="#2C394D" d="M108.936,59.362c0,0.351-0.286,0.639-0.636,0.639h-9.751C98.2,60,97.914,59.712,97.914,59.362v-9.77
			c0-0.351,0.287-0.642,0.635-0.642h9.751c0.351,0,0.636,0.291,0.636,0.642V59.362z"/>
		<path fill="#2C394D" d="M92.119,74.519c0.001,0.353-0.286,0.639-0.636,0.638H81.73c-0.353,0-0.639-0.285-0.637-0.639
			l-0.001-11.473c0.001-0.345,0.286-0.637,0.639-0.637h9.752c0.352,0,0.637,0.292,0.637,0.637V74.519z"/>
		<path fill="#2C394D" d="M105.507,74.519c0.001,0.353-0.285,0.639-0.637,0.638h-9.748c-0.35,0.001-0.637-0.285-0.638-0.638
			l0.001-11.474c0-0.344,0.288-0.637,0.637-0.637h9.747c0.353,0,0.639,0.293,0.639,0.637L105.507,74.519z"/>
		<path fill="#2C394D" d="M118.903,74.517c-0.001,0.354-0.287,0.639-0.64,0.639h-9.75c-0.352,0.001-0.636-0.285-0.637-0.638
			l0.001-11.474c0-0.344,0.285-0.637,0.635-0.637h9.752c0.351,0,0.638,0.293,0.638,0.637L118.903,74.517z"/>
		<path fill="#2C394D" d="M233.287,74.517c0,0.354-0.292,0.64-0.642,0.64h-9.752c-0.349,0-0.635-0.286-0.635-0.639V63.044
			c0-0.345,0.286-0.637,0.635-0.637h9.755c0.347,0,0.639,0.292,0.639,0.637V74.517z"/>
		<path fill="#2C394D" d="M246.71,74.517c0.001,0.354-0.286,0.64-0.638,0.639h-9.746c-0.357,0-0.644-0.285-0.644-0.638v-5.102
			c0-0.346,0.288-0.637,0.644-0.637h9.746c0.352,0,0.638,0.291,0.638,0.639V74.517z"/>
		<path fill="#2C394D" d="M273.565,74.517c0.001,0.354-0.285,0.639-0.638,0.639h-9.749c-0.349,0-0.641-0.284-0.641-0.639v-5.1
			c0-0.347,0.29-0.637,0.641-0.637h9.749c0.351,0,0.638,0.289,0.638,0.639L273.565,74.517z"/>
		<path fill="#2C394D" d="M135.789,74.519c0,0.353-0.285,0.638-0.632,0.638l-13.255,0.001c-0.35,0-0.633-0.286-0.633-0.64V63.044
			c0-0.344,0.284-0.637,0.634-0.637h13.255c0.346,0,0.632,0.292,0.632,0.637L135.789,74.519z"/>
		<path fill="#2C394D" d="M219.856,74.519c0,0.353-0.285,0.638-0.638,0.639l-13.249-0.001c-0.346,0.001-0.639-0.285-0.638-0.639
			l-0.001-11.473c0-0.344,0.293-0.637,0.639-0.637h13.249c0.354,0,0.638,0.292,0.638,0.637V74.519z"/>
		<path fill="#2C394D" d="M202.931,74.517c0,0.354-0.289,0.639-0.642,0.639H138.83c-0.346,0.001-0.639-0.285-0.64-0.638V63.044
			c0-0.345,0.294-0.637,0.64-0.637h63.461c0.351,0,0.641,0.292,0.641,0.637V74.517z"/>
		<path fill="#2C394D" d="M122.363,59.362c0,0.351-0.284,0.639-0.634,0.638l-9.755,0.001c-0.344,0-0.634-0.289-0.634-0.639l0-9.772
			c0-0.349,0.29-0.64,0.634-0.64h9.754c0.35,0,0.634,0.291,0.634,0.64V59.362z"/>
		<path fill="#2C394D" d="M135.789,59.362c0,0.351-0.285,0.639-0.632,0.639h-9.752c-0.352,0-0.638-0.289-0.638-0.639v-9.772
			c0-0.349,0.286-0.64,0.638-0.64h9.752c0.347,0,0.632,0.291,0.632,0.642V59.362z"/>
		<path fill="#2C394D" d="M149.219,59.362c0,0.351-0.284,0.639-0.638,0.638l-9.75,0.001c-0.346-0.001-0.64-0.289-0.64-0.639v-9.77
			c0-0.351,0.295-0.642,0.64-0.642h9.75c0.355,0,0.639,0.291,0.64,0.64L149.219,59.362z"/>
		<path fill="#2C394D" d="M162.646,59.362c0,0.351-0.288,0.639-0.634,0.639h-9.75c-0.35,0-0.641-0.289-0.641-0.639l0.001-9.772
			c-0.001-0.349,0.289-0.64,0.64-0.64h9.75c0.347,0,0.634,0.291,0.634,0.642V59.362z"/>
		<path fill="#2C394D" d="M176.074,59.362c0,0.351-0.286,0.638-0.637,0.639h-9.749c-0.35,0-0.636-0.289-0.636-0.639l0.001-9.772
			c-0.001-0.349,0.286-0.64,0.635-0.64h9.751c0.348,0,0.635,0.291,0.634,0.64L176.074,59.362z"/>
		<path fill="#2C394D" d="M189.501,59.362c0,0.351-0.284,0.639-0.633,0.638l-9.755,0.001c-0.351,0-0.637-0.289-0.637-0.639v-9.77
			c0-0.351,0.285-0.642,0.637-0.642h9.755c0.349,0,0.633,0.291,0.633,0.64V59.362z"/>
		<path fill="#2C394D" d="M202.931,59.362c0,0.351-0.289,0.639-0.642,0.639h-9.748c-0.349-0.001-0.635-0.289-0.635-0.639v-9.772
			c0-0.349,0.286-0.64,0.635-0.64h9.748c0.353,0,0.642,0.291,0.642,0.64V59.362z"/>
		<path fill="#2C394D" d="M216.358,59.362c0,0.351-0.286,0.639-0.639,0.639h-9.751c-0.346-0.001-0.639-0.289-0.639-0.639v-9.772
			c0-0.349,0.293-0.64,0.639-0.64h9.751c0.353,0,0.639,0.291,0.639,0.64V59.362z"/>
		<path fill="#2C394D" d="M229.784,59.362c0,0.351-0.283,0.639-0.635,0.638l-9.753,0.001c-0.353,0-0.638-0.289-0.638-0.639v-9.772
			c0-0.349,0.285-0.64,0.638-0.64h9.751c0.354,0,0.637,0.291,0.637,0.642V59.362z"/>
		<path fill="#2C394D" d="M243.214,59.362c0,0.351-0.29,0.638-0.638,0.638l-9.752,0.001c-0.349-0.001-0.637-0.289-0.637-0.639
			v-9.772c0-0.349,0.286-0.64,0.637-0.64h9.751c0.35,0,0.64,0.291,0.64,0.64V59.362z"/>
		<path fill="#2C394D" d="M273.456,59.362c0,0.351-0.285,0.638-0.635,0.638H246.25c-0.35,0-0.638-0.288-0.638-0.638v-9.772
			c0-0.349,0.288-0.64,0.639-0.64h26.569c0.353,0,0.635,0.291,0.635,0.64V59.362z"/>
		<path fill="#2C394D" d="M128.934,45.906c0,0.356-0.28,0.637-0.631,0.637h-9.757c-0.348,0-0.633-0.281-0.633-0.636v-9.776
			c0-0.344,0.285-0.633,0.632-0.633h9.758c0.351,0,0.631,0.288,0.631,0.635V45.906z"/>
		<path fill="#2C394D" d="M142.365,45.906c-0.001,0.356-0.287,0.637-0.638,0.637h-9.753c-0.348,0-0.631-0.281-0.631-0.637v-9.775
			c0-0.345,0.282-0.633,0.631-0.633h9.753c0.35,0,0.638,0.288,0.637,0.635L142.365,45.906z"/>
		<path fill="#2C394D" d="M155.789,45.906c0,0.356-0.28,0.637-0.632,0.637h-9.754c-0.35,0-0.636-0.281-0.635-0.637l-0.001-9.774
			c0.001-0.347,0.285-0.635,0.636-0.635h9.754c0.351,0,0.632,0.288,0.632,0.633V45.906z"/>
		<path fill="#2C394D" d="M169.219,45.906c0,0.354-0.287,0.637-0.633,0.637h-9.757c-0.348,0-0.633-0.281-0.633-0.636v-9.776
			c0-0.344,0.285-0.633,0.632-0.633h9.758c0.346,0,0.633,0.29,0.633,0.633V45.906z"/>
		<path fill="#2C394D" d="M182.645,45.906c0,0.356-0.287,0.637-0.636,0.637h-9.751c-0.345,0-0.638-0.281-0.638-0.637v-9.775
			c0-0.345,0.293-0.635,0.638-0.635l9.751,0.001c0.349,0,0.636,0.288,0.636,0.633V45.906z"/>
		<path fill="#2C394D" d="M196.073,45.906c0,0.356-0.288,0.637-0.637,0.637h-9.75c-0.349,0-0.635-0.281-0.635-0.637v-9.774
			c0-0.347,0.286-0.636,0.635-0.635l9.75-0.001c0.349,0,0.637,0.289,0.637,0.635V45.906z"/>
		<path fill="#2C394D" d="M209.5,45.907c0,0.355-0.282,0.636-0.636,0.636h-9.752c-0.349,0-0.634-0.281-0.632-0.637v-9.775
			c0-0.345,0.283-0.633,0.632-0.633h9.752c0.351,0,0.636,0.29,0.636,0.633V45.907z"/>
		<path fill="#2C394D" d="M222.929,45.906c0.001,0.354-0.287,0.637-0.634,0.637h-9.754c-0.348,0-0.635-0.283-0.635-0.636v-9.776
			c0-0.344,0.286-0.633,0.635-0.633h9.754c0.348,0,0.634,0.288,0.635,0.633L222.929,45.906z"/>
		<path fill="#2C394D" d="M236.358,45.906c-0.001,0.356-0.288,0.637-0.635,0.637h-9.754c-0.354,0-0.637-0.283-0.638-0.637
			l0.001-9.775c-0.001-0.345,0.284-0.635,0.635-0.633h9.756c0.35,0,0.635,0.288,0.635,0.633V45.906z"/>
		<path fill="#2C394D" d="M249.782,45.906c0,0.354-0.285,0.637-0.635,0.637h-9.75c-0.351,0-0.638-0.283-0.638-0.637v-9.775
			c0.002-0.345,0.286-0.635,0.638-0.633h9.75c0.349,0,0.635,0.288,0.635,0.633V45.906z"/>
		<path fill="#2C394D" d="M263.213,45.906c0,0.354-0.287,0.637-0.638,0.637h-9.755c-0.349,0-0.632-0.283-0.632-0.637v-9.775
			c0.002-0.345,0.282-0.635,0.632-0.633l9.757-0.001c0.348,0.001,0.633,0.289,0.635,0.635V45.906z"/>
		<path fill="#2C394D" d="M125.757,32.447c0,0.357-0.286,0.644-0.639,0.644h-9.751c-0.348,0-0.637-0.287-0.637-0.644l0-9.772
			c0-0.348,0.288-0.635,0.638-0.635h9.75c0.353,0,0.639,0.287,0.639,0.635V32.447z"/>
		<path fill="#2C394D" d="M139.185,32.447c0.001,0.357-0.287,0.646-0.637,0.644h-9.754c-0.348,0-0.633-0.287-0.634-0.644v-9.772
			c0-0.348,0.286-0.635,0.635-0.635h9.751c0.352,0,0.639,0.287,0.638,0.635L139.185,32.447z"/>
		<path fill="#2C394D" d="M152.612,32.447c0,0.357-0.286,0.644-0.638,0.644h-9.752c-0.346,0-0.631-0.287-0.631-0.644v-9.772
			c0-0.348,0.286-0.635,0.631-0.635h9.753c0.352,0,0.638,0.288,0.638,0.635L152.612,32.447z"/>
		<path fill="#2C394D" d="M166.037,32.447c-0.001,0.357-0.288,0.644-0.632,0.644h-9.753c-0.352,0.002-0.638-0.287-0.638-0.644
			v-9.772c0-0.348,0.286-0.635,0.638-0.635h9.753c0.344,0,0.632,0.287,0.632,0.635V32.447z"/>
		<path fill="#2C394D" d="M179.465,32.447c0.001,0.357-0.286,0.644-0.64,0.644h-9.746c-0.351,0-0.635-0.287-0.635-0.644v-9.772
			c0-0.348,0.285-0.635,0.632-0.635h9.749c0.354,0,0.641,0.287,0.64,0.635V32.447z"/>
		<path fill="#2C394D" d="M192.89,32.447c0,0.357-0.28,0.644-0.632,0.644l-9.755,0.002c-0.35-0.002-0.636-0.288-0.636-0.644v-9.774
			c0-0.347,0.285-0.634,0.636-0.635h9.755c0.351,0,0.632,0.287,0.633,0.635L192.89,32.447z"/>
		<path fill="#2C394D" d="M206.32,32.447c0,0.357-0.282,0.644-0.635,0.644h-9.755c-0.346,0-0.632-0.287-0.632-0.642l0.001-9.774
			c-0.001-0.347,0.285-0.635,0.632-0.635h9.754c0.353,0,0.635,0.287,0.633,0.635L206.32,32.447z"/>
		<path fill="#2C394D" d="M219.749,32.447c0,0.356-0.287,0.644-0.638,0.644h-9.753c-0.349,0-0.635-0.287-0.635-0.642v-9.774
			c0-0.348,0.285-0.635,0.635-0.635h9.753c0.352,0,0.637,0.287,0.637,0.635L219.749,32.447z"/>
		<path fill="#2C394D" d="M233.173,32.447c0.002,0.357-0.286,0.644-0.632,0.644h-9.751c-0.353,0-0.635-0.287-0.635-0.644
			l0.001-9.772c0-0.348,0.282-0.635,0.635-0.635h9.751c0.346,0,0.634,0.287,0.634,0.635L233.173,32.447z"/>
		<path fill="#2C394D" d="M246.603,32.447c0.003,0.357-0.285,0.644-0.638,0.644h-9.753c-0.344,0-0.632-0.287-0.633-0.644
			l0.001-9.772c-0.001-0.348,0.288-0.635,0.632-0.635h9.752c0.354,0,0.641,0.287,0.641,0.635L246.603,32.447z"/>
		<path fill="#2C394D" d="M260.03,32.447c0,0.357-0.284,0.644-0.632,0.644h-9.754c-0.355,0-0.639-0.287-0.639-0.644v-9.772
			c0-0.348,0.284-0.635,0.638-0.635h9.755c0.347,0,0.632,0.287,0.632,0.635V32.447z"/>
		<path fill="#2C394D" d="M98.902,32.448c0,0.356-0.284,0.642-0.636,0.642H81.731c-0.354,0.002-0.639-0.287-0.639-0.644l0-9.772
			c0-0.348,0.286-0.635,0.639-0.634l16.535-0.001c0.353,0,0.637,0.288,0.638,0.635L98.902,32.448z"/>
		<path fill="#2C394D" d="M273.456,18.992c0,0.353-0.285,0.64-0.635,0.64h-16.537c-0.345,0-0.635-0.287-0.635-0.64v-9.77
			c0.002-0.354,0.29-0.639,0.635-0.639l16.537,0c0.351,0,0.635,0.285,0.635,0.639V18.992z"/>
		<path fill="#2C394D" d="M102.08,45.907c0,0.355-0.282,0.636-0.637,0.636H81.731c-0.353,0-0.639-0.281-0.638-0.637l-0.001-9.774
			c0-0.345,0.286-0.635,0.639-0.636h19.711c0.354,0.001,0.637,0.291,0.637,0.635V45.907z"/>
		<path fill="#2C394D" d="M95.512,59.362c0,0.351-0.287,0.639-0.638,0.638L81.73,60.001c-0.353,0-0.639-0.289-0.639-0.639
			l0.001-9.772c-0.001-0.349,0.285-0.64,0.637-0.64h13.143c0.353,0,0.639,0.291,0.639,0.64L95.512,59.362z"/>
		<path fill="#2C394D" d="M105.545,18.992c0,0.353-0.284,0.64-0.639,0.64h-9.746c-0.35,0-0.637-0.287-0.637-0.64l0-9.77
			c0-0.354,0.287-0.639,0.638-0.639h9.747c0.354,0.001,0.638,0.285,0.638,0.641V18.992z"/>
		<path fill="#2C394D" d="M118.974,18.992c0,0.353-0.286,0.64-0.638,0.64h-9.753c-0.348,0-0.633-0.287-0.633-0.64v-9.77
			c0-0.354,0.286-0.639,0.633-0.639l9.754,0c0.351,0,0.636,0.285,0.636,0.639V18.992z"/>
		<path fill="#2C394D" d="M132.405,18.993c0,0.352-0.292,0.639-0.642,0.639h-9.754c-0.348,0-0.633-0.287-0.633-0.64v-9.77
			c0-0.354,0.285-0.639,0.633-0.639h9.752c0.351,0,0.644,0.285,0.644,0.639L132.405,18.993z"/>
		<path fill="#2C394D" d="M145.828,18.993c0,0.352-0.286,0.639-0.637,0.639h-9.753c-0.348,0-0.637-0.287-0.637-0.639l0-9.771
			c0-0.353,0.288-0.639,0.636-0.639l9.753,0c0.351,0,0.639,0.284,0.639,0.639L145.828,18.993z"/>
		<path fill="#2C394D" d="M159.251,18.992c0,0.353-0.28,0.639-0.633,0.64h-9.753c-0.349,0-0.636-0.287-0.636-0.639l0.001-9.771
			c0-0.354,0.286-0.639,0.635-0.639l9.754,0c0.352,0,0.632,0.285,0.632,0.639L159.251,18.992z"/>
		<path fill="#2C394D" d="M172.682,18.993c0,0.352-0.285,0.639-0.636,0.639h-9.746c-0.354,0-0.638-0.287-0.638-0.64v-9.77
			c0-0.354,0.284-0.639,0.638-0.639l9.746,0c0.351,0,0.636,0.286,0.636,0.639V18.993z"/>
		<path fill="#2C394D" d="M186.104,18.993c0,0.352-0.28,0.639-0.632,0.639h-9.751c-0.353,0-0.638-0.287-0.638-0.64v-9.77
			c0-0.354,0.285-0.639,0.638-0.639l9.75,0c0.353,0,0.632,0.286,0.632,0.639V18.993z"/>
		<path fill="#2C394D" d="M199.535,18.993c0,0.352-0.285,0.639-0.64,0.639h-9.75c-0.351,0-0.638-0.287-0.638-0.64v-9.77
			c0-0.354,0.286-0.639,0.638-0.639h9.751c0.354,0,0.639,0.286,0.641,0.638L199.535,18.993z"/>
		<path fill="#2C394D" d="M212.961,18.991c0.001,0.354-0.283,0.641-0.633,0.641h-9.749c-0.354,0-0.639-0.287-0.639-0.639
			l0.001-9.771c0-0.354,0.284-0.639,0.638-0.639h9.749c0.35,0,0.633,0.285,0.633,0.639V18.991z"/>
		<path fill="#2C394D" d="M226.392,18.991c0,0.353-0.288,0.641-0.634,0.641h-9.756c-0.348,0-0.634-0.287-0.634-0.64l0.001-9.77
			c0-0.354,0.285-0.639,0.633-0.639h9.756c0.346,0,0.634,0.285,0.634,0.639V18.991z"/>
		<path fill="#2C394D" d="M239.82,18.992c0,0.353-0.285,0.64-0.638,0.64h-9.751c-0.352,0-0.64-0.287-0.64-0.64l0.001-9.77
			c0-0.354,0.287-0.639,0.639-0.639l9.751,0c0.352,0,0.636,0.285,0.638,0.639V18.992z"/>
		<path fill="#2C394D" d="M253.243,18.992c0,0.353-0.282,0.64-0.631,0.64h-9.757c-0.348,0-0.633-0.287-0.633-0.64v-9.77
			c0-0.354,0.286-0.639,0.632-0.639h9.759c0.348,0,0.632,0.285,0.63,0.639V18.992z"/>
		<g>
			<path fill="#2C394D" d="M249.112,69.143v5.375c0,0.167,0.063,0.332,0.186,0.452c0.124,0.125,0.29,0.187,0.449,0.188l9.756-0.001
				c0.162,0,0.321-0.062,0.449-0.189c0.125-0.118,0.187-0.285,0.187-0.45v-5.376L249.112,69.143z"/>
			<path fill="#2C394D" d="M260.14,68.42v-5.376c0-0.159-0.062-0.325-0.187-0.447c-0.126-0.126-0.288-0.19-0.448-0.19h-9.757
				c-0.16,0-0.326,0.064-0.45,0.19c-0.123,0.123-0.186,0.289-0.186,0.447v5.376H260.14z"/>
		</g>
		<path fill="#2C394D" d="M263.068,22.04c-0.16,0-0.323,0.058-0.449,0.187c-0.123,0.123-0.182,0.285-0.182,0.448v9.772
			c0,0.166,0.059,0.329,0.182,0.456c0.125,0.121,0.288,0.188,0.449,0.188h2.546v12.815c0,0.165,0.065,0.329,0.188,0.45
			c0.125,0.127,0.285,0.187,0.449,0.187h6.57c0.166,0,0.326-0.06,0.452-0.187c0.125-0.121,0.188-0.285,0.188-0.45V22.675
			c0-0.163-0.062-0.325-0.188-0.448c-0.126-0.128-0.286-0.187-0.452-0.187H263.068z"/>
	</g>
	<linearGradient id="SVGID_4_" gradientUnits="userSpaceOnUse" x1="176.5992" y1="6.4375" x2="176.5992" y2="0.4323">
		<stop  offset="0" style="stop-color:#FFFFFF"/>
		<stop  offset="1" style="stop-color:#E4E4E4"/>
	</linearGradient>
	<path fill="url(#SVGID_4_)" d="M272.636,5c0,0.419-0.34,0.5-0.758,0.5H81.32c-0.418,0-0.758-0.081-0.758-0.5l0,0
		c0-0.419,0.339-0.5,0.758-0.5h190.558C272.296,4.5,272.636,4.581,272.636,5L272.636,5z"/>
</g>
<g>
	<g id="mouse_2_">
		<g>
			<linearGradient id="SVGID_5_" gradientUnits="userSpaceOnUse" x1="333.0419" y1="22.1486" x2="342.5676" y2="66.6015">
				<stop  offset="0" style="stop-color:#FFFFFF"/>
				<stop  offset="1" style="stop-color:#E4E4E4"/>
			</linearGradient>
			<path fill="url(#SVGID_5_)" d="M324.926,13.024c7.293-1.907,14.75,2.475,16.651,9.779l8.268,31.756
				c1.9,7.301-2.473,14.773-9.765,16.68l-3.512,0.918l-15.156-58.214L324.926,13.024z"/>
			<path fill="#E5E5E6" d="M317.89,14.863l3.522-0.921l15.156,58.214l-3.523,0.922c-7.286,1.904-14.745-2.473-16.647-9.775
				l-8.267-31.755C306.23,24.244,310.602,16.769,317.89,14.863z"/>
		</g>
		<g>
			<path fill="#253A54" d="M329.469,26.835l0.74,2.845c0.635,2.435-0.83,4.928-3.251,5.566l-3.037-11.669
				C326.341,22.944,328.836,24.402,329.469,26.835z"/>
			<path fill="#223341" d="M323.921,23.577L323.921,23.577l3.037,11.669l0,0c-2.436,0.637-4.917-0.828-5.551-3.265l-0.74-2.845
				C320.032,26.703,321.485,24.214,323.921,23.577z"/>
		</g>
	</g>
</g>
</svg>
